<?xml version="1.0" encoding="UTF-8" standalone="no"?>
<!-- Created with Inkscape (http://www.inkscape.org/) -->

<svg
   width="25mm"
   height="24mm"
   viewBox="0 0 25 24"
   version="1.1"
   id="svg1"
   inkscape:version="1.4 (86a8ad7, 2024-10-11)"
   sodipodi:docname="config.svg"
   xmlns:inkscape="http://www.inkscape.org/namespaces/inkscape"
   xmlns:sodipodi="http://sodipodi.sourceforge.net/DTD/sodipodi-0.dtd"
   xmlns:xlink="http://www.w3.org/1999/xlink"
   xmlns="http://www.w3.org/2000/svg"
   xmlns:svg="http://www.w3.org/2000/svg">
  <sodipodi:namedview
     id="namedview1"
     pagecolor="#ffffff"
     bordercolor="#000000"
     borderopacity="0.25"
     inkscape:showpageshadow="2"
     inkscape:pageopacity="0.0"
     inkscape:pagecheckerboard="0"
     inkscape:deskcolor="#d1d1d1"
     inkscape:document-units="mm"
     inkscape:zoom="4.1978414"
     inkscape:cx="72.537281"
     inkscape:cy="41.330766"
     inkscape:window-width="1920"
     inkscape:window-height="1051"
     inkscape:window-x="-9"
     inkscape:window-y="-9"
     inkscape:window-maximized="1"
     inkscape:current-layer="layer1" />
  <defs
     id="defs1">
    <linearGradient
       id="linearGradient1"
       inkscape:collect="always">
      <stop
         style="stop-color:#78cef5;stop-opacity:1;"
         offset="0"
         id="stop1" />
      <stop
         style="stop-color:#ffd500;stop-opacity:1;"
         offset="0"
         id="stop2" />
    </linearGradient>
    <linearGradient
       inkscape:collect="always"
       xlink:href="#linearGradient1"
       id="linearGradient2"
       x1="2.379509"
       y1="12.164308"
       x2="21.648216"
       y2="12.164308"
       gradientUnits="userSpaceOnUse" />
  </defs>
  <g
     inkscape:label="Capa 1"
     inkscape:groupmode="layer"
     id="layer1">
    <path
       id="path3"
       d="m 17.619702,6.6809971 v 0 c -0.43741,-0.43744 -0.93335,-0.81632 -1.45853,-1.13735 l 0.20394,-1.3712503 c 0.0875,-0.43709 -0.14566,-0.87489 -0.61238,-0.99166 l -2.01221,-0.58314 c -0.40845,-0.11677 -0.87521,0.0875 -1.05022,0.49565 l -0.52504,1.2837603 c -0.6416,-0.0293 -1.28348,0.0289 -1.89618,0.17463 L 9.4527522,3.4142768 c -0.26268,-0.37959 -0.75847,-0.46708 -1.13732,-0.26282 l -1.83787,0.99166 c -0.4083,0.2338903 -0.55439,0.7295403 -0.4083,1.1084303 l 0.52475,1.28376 c -0.4954,0.43744 -0.93309,0.96237 -1.28337,1.54587 l -1.31205,-0.23354 c -0.43794,-0.0582 -0.87517,0.20426 -0.9919,0.6417 l -0.58332,2.0125999 c -0.14637,0.43744 0.0874,0.87524 0.49583,1.04987 l 1.19556,0.52528 c 0,0.67063 0.0584,1.34126 0.20423,1.98297 l -1.02112,0.72954 c -0.34974,0.26247 -0.46591,0.75847 -0.2329,1.16664 l 0.9918,1.83762 c 0.20394,0.37923 0.69977,0.55386 1.10849,0.37923 l 1.1665,-0.46672 c 0.43751,0.46672 0.96241,0.90417 1.51666,1.2252 l -0.2045,1.19556 c -0.0872,0.46672 0.17543,0.90417 0.61309,1.05057 l 2.0120698,0.55351 c 0.43783,0.11677 0.87534,-0.0875 1.05022,-0.52423 l 0.46672,-1.07985 c 0.69963,0.0293 1.39996,-0.0289 2.10016,-0.20426 l 0.67066,0.96273 c 0.26293,0.40852 0.7873,0.49601 1.13757,0.2921 l 1.83734,-1.02129 c 0.40848,-0.20426 0.58388,-0.70026 0.40848,-1.10808 l -0.46676,-1.10842 c 0.52546,-0.52494 0.96284,-1.07915 1.31265,-1.69228 l 1.25448,0.20461 c 0.43709,0.0582 0.84596,-0.17533 0.99166,-0.61242 l 0.58349,-2.04188 c 0.11642,-0.40851 -0.0875,-0.87524 -0.496,-1.05022 l -1.19592,-0.49565 c 0,-0.67098 -0.0875,-1.31269 -0.26282,-1.98332 l 1.05022,-0.7295399 c 0.34995,-0.26212 0.49565,-0.75812 0.26282,-1.16664 l -0.99201,-1.83726 c -0.23354,-0.37924 -0.69991,-0.55422 -1.10808,-0.37924 z m -3.9375,8.6042499 c -1.6922,0.90417 -3.7923598,0.32068 -4.6962098,-1.37089 -0.93349,-1.69157 -0.32106,-3.79166 1.3710298,-4.6954699 1.66205,-0.90417 3.76245,-0.2921 4.69579,1.3705399 0.90442,1.66264 0.29133,3.76273 -1.37061,4.69582 v 0"
       style="fill:url(#linearGradient2);fill-opacity:1;fill-rule:evenodd;stroke:none;stroke-width:0.0352778" />
  </g>
</svg>
