<?xml version="1.0" encoding="UTF-8" standalone="no"?>
<!-- Created with Inkscape (http://www.inkscape.org/) -->

<svg
   width="57mm"
   height="100mm"
   viewBox="0 0 57 100"
   version="1.1"
   id="svg1"
   inkscape:version="1.4 (86a8ad7, 2024-10-11)"
   sodipodi:docname="dinamita.svg"
   xmlns:inkscape="http://www.inkscape.org/namespaces/inkscape"
   xmlns:sodipodi="http://sodipodi.sourceforge.net/DTD/sodipodi-0.dtd"
   xmlns="http://www.w3.org/2000/svg"
   xmlns:svg="http://www.w3.org/2000/svg">
  <sodipodi:namedview
     id="namedview1"
     pagecolor="#ffffff"
     bordercolor="#000000"
     borderopacity="0.25"
     inkscape:showpageshadow="2"
     inkscape:pageopacity="0.0"
     inkscape:pagecheckerboard="0"
     inkscape:deskcolor="#d1d1d1"
     inkscape:document-units="mm"
     inkscape:zoom="0.74208053"
     inkscape:cx="396.8572"
     inkscape:cy="561.25984"
     inkscape:window-width="1920"
     inkscape:window-height="1051"
     inkscape:window-x="-9"
     inkscape:window-y="-9"
     inkscape:window-maximized="1"
     inkscape:current-layer="layer1" />
  <defs
     id="defs1" />
  <g
     inkscape:label="Capa 1"
     inkscape:groupmode="layer"
     id="layer1">
    <path
       id="path3"
       d="m 26.539439,31.342369 -16.57068,0.91298 c 2.76437,18.10526 3.90702,46.30279 4.15008,53.08777 1.73038,5.82541 12.34652,6.32812 15.28163,-0.84173 -2.45957,-25.05604 -2.86103,-53.15902 -2.86103,-53.15902"
       style="fill:#df302b;fill-opacity:1;fill-rule:nonzero;stroke:none;stroke-width:0.0352777" />
    <path
       id="path4"
       d="m 28.178799,86.587359 c 0,-2.6e-4 -3.50697,-34.02083 -3.35809,-53.04895 l -5.98488,-0.34502 c 0,0 2.90901,38.5251 3.17465,56.5665 2.30082,-0.1972 4.60199,-1.21955 6.16832,-3.17253"
       style="fill:#ad2426;fill-opacity:1;fill-rule:nonzero;stroke:none;stroke-width:0.0352777" />
    <path
       id="path5"
       d="m 15.759259,35.106499 c 1.43933,13.87687 3.72357,54.53698 3.72357,54.53698 0.62512,0.1143 1.27212,0.16439 1.92475,0.14922 -0.41275,-12.57758 -3.97686,-54.59976 -3.97686,-54.59976 0,0 -0.37571,-1.68593 -0.80539,-3.30412 l -1.15358,0.0635 c 0.0614,0.83785 0.15522,1.87783 0.28751,3.15418"
       style="fill:#ad2426;fill-opacity:1;fill-rule:nonzero;stroke:none;stroke-width:0.0352777" />
    <path
       id="path6"
       d="m 26.539439,31.342369 c 0.1016,1.84397 -3.52531,3.54294 -8.10154,3.79518 -4.57588,0.25224 -8.36754,-1.03823 -8.46914,-2.8822 -0.1016,-1.84361 3.52531,-3.54294 8.10119,-3.79483 4.57624,-0.25223 8.36789,1.03823 8.46949,2.88185"
       style="fill:#f03f3a;fill-opacity:1;fill-rule:nonzero;stroke:none;stroke-width:0.0352777" />
    <path
       id="path7"
       d="m 16.008669,13.635037 -1.78505,0.783873 c 1.95791,4.458759 2.93088,9.534529 3.15418,16.457789 0.31539,0.83714 1.79952,0.66322 1.94875,-0.0628 -0.15593,-4.83623 -0.67416,-11.159062 -3.31788,-17.178862"
       style="fill:#eea354;fill-opacity:1;fill-rule:nonzero;stroke:none;stroke-width:0.0352777" />
    <path
       id="path8"
       d="m 18.556789,22.410029 c -0.77576,-0.247294 -1.50954,-0.604658 -2.17911,-1.059035 0.009,0.04515 0.0176,0.09031 0.0268,0.135818 0.66922,0.442384 1.40053,0.789517 2.17064,1.030467 -0.006,-0.036 -0.0124,-0.0716 -0.0183,-0.10725"
       style="fill:#be7a3e;fill-opacity:1;fill-rule:nonzero;stroke:none;stroke-width:0.0352777" />
    <path
       id="path9"
       d="m 16.005149,19.688352 c 0.67556,0.445558 1.42627,0.772583 2.21756,0.96026 -0.007,-0.03528 -0.0145,-0.0702 -0.0219,-0.105481 -0.79798,-0.195437 -1.55469,-0.532342 -2.23061,-0.992362 0.0116,0.04586 0.0236,0.09172 0.0349,0.137583"
       style="fill:#be7a3e;fill-opacity:1;fill-rule:nonzero;stroke:none;stroke-width:0.0352777" />
    <path
       id="path10"
       d="m 16.993269,25.333849 c 0.005,0.0483 0.0109,0.0963 0.0166,0.14464 0.63606,0.57644 1.34303,1.07174 2.10538,1.47391 -0.003,-0.0381 -0.006,-0.0765 -0.01,-0.11465 -0.76659,-0.41028 -1.47673,-0.91581 -2.11244,-1.5039"
       style="fill:#be7a3e;fill-opacity:1;fill-rule:nonzero;stroke:none;stroke-width:0.0352777" />
    <path
       id="path11"
       d="m 16.771019,23.621819 c 0.65159,0.46461 1.36525,0.84067 2.12161,1.11584 -0.004,-0.0353 -0.009,-0.0713 -0.0134,-0.10689 -0.75918,-0.28046 -1.47602,-0.66463 -2.12761,-1.13947 0.006,0.0437 0.0131,0.0871 0.0194,0.13052"
       style="fill:#be7a3e;fill-opacity:1;fill-rule:nonzero;stroke:none;stroke-width:0.0352777" />
    <path
       id="path12"
       d="m 17.735519,18.60356 c -0.80398,-0.155575 -1.57445,-0.45085 -2.27471,-0.866423 0.0141,0.04551 0.0289,0.09067 0.0427,0.136525 0.6985,0.401109 1.46296,0.684742 2.25989,0.832909 -0.009,-0.03422 -0.0187,-0.06879 -0.0279,-0.103011"
       style="fill:#be7a3e;fill-opacity:1;fill-rule:nonzero;stroke:none;stroke-width:0.0352777" />
    <path
       id="path13"
       d="m 17.215169,27.732039 c 0.003,0.0473 0.006,0.0949 0.01,0.14181 0.57997,0.55916 1.27141,1.00189 2.03377,1.28588 -0.002,-0.0349 -0.004,-0.0699 -0.005,-0.10513 -0.76694,-0.29175 -1.46261,-0.74683 -2.03835,-1.32256"
       style="fill:#be7a3e;fill-opacity:1;fill-rule:nonzero;stroke:none;stroke-width:0.0352777" />
    <path
       id="path14"
       d="m 14.534409,14.282385 c 0.64735,0.525638 1.39489,0.919338 2.19957,1.152171 -0.0141,-0.0381 -0.0275,-0.0762 -0.0416,-0.1143 -0.75001,-0.226129 -1.44957,-0.594077 -2.05952,-1.08091 l -0.0984,0.04304"
       style="fill:#be7a3e;fill-opacity:1;fill-rule:nonzero;stroke:none;stroke-width:0.0352777" />
    <path
       id="path15"
       d="m 19.321609,30.670319 c -10e-4,-0.0335 -0.002,-0.0677 -0.004,-0.10124 -0.81174,-0.20038 -1.52647,-0.69392 -2.01119,-1.36349 0.003,0.0575 0.006,0.11501 0.009,0.17286 0.5006,0.63606 1.20933,1.10279 2.0059,1.29187"
       style="fill:#be7a3e;fill-opacity:1;fill-rule:nonzero;stroke:none;stroke-width:0.0352777" />
    <path
       id="path16"
       d="m 17.201409,16.788164 c -0.0106,-0.03316 -0.0212,-0.06597 -0.0321,-0.09913 -0.81245,-0.08149 -1.59985,-0.328789 -2.31351,-0.715787 0.0173,0.04621 0.0353,0.09207 0.0522,0.138289 0.7112,0.368652 1.49119,0.601486 2.2934,0.676627"
       style="fill:#be7a3e;fill-opacity:1;fill-rule:nonzero;stroke:none;stroke-width:0.0352777" />
    <path
       id="path17"
       d="m 14.780299,1.6487095 c -0.0459,6.570837 -1.72685,9.3740095 -3.92218,6.5405 2.19533,2.8335095 -0.90982,3.0046075 -7.24606,0.398991 6.33624,2.6056165 7.42915,6.2921435 2.55059,8.6021305 4.87856,-2.309987 5.24827,0.362656 0.86254,6.235698 4.38573,-5.873042 6.86435,-5.306833 5.78308,1.32151 1.08127,-6.628343 4.29507,-8.866718 7.49935,-5.223229 -3.20428,-3.643489 -0.85619,-4.440062 5.47864,-1.858433 -6.33483,-2.581629 -7.39316,-6.64845 -2.4698,-9.4890155 -4.92336,2.8405655 -8.58202,0.04268 -8.53616,-6.528152"
       style="fill:#f35f19;fill-opacity:1;fill-rule:nonzero;stroke:none;stroke-width:0.0352777" />
    <path
       id="path18"
       d="m 19.239409,10.529184 c -2.59397,1.496483 -4.52085,0.02257 -4.49686,-3.4392315 -0.024,3.4618085 -0.90981,4.9385345 -2.06657,3.4455815 1.15676,1.492953 -0.47907,1.582912 -3.81706,0.210253 3.33799,1.372659 3.91372,3.315052 1.34338,4.531784 2.57034,-1.216732 2.76507,0.190852 0.45438,3.285066 2.31069,-3.094214 3.61633,-2.795764 3.04694,0.696032 0.56939,-3.491796 2.26272,-4.671132 3.95076,-2.751315 -1.68804,-1.919817 -0.4512,-2.339269 2.88608,-0.97931 -3.33728,-1.359959 -3.89502,-3.502377 -1.30105,-4.99886"
       style="fill:#f9b70a;fill-opacity:1;fill-rule:nonzero;stroke:none;stroke-width:0.0352777" />
    <path
       id="path19"
       d="m 16.761849,16.847431 c 0.8255,1.732492 1.61572,3.466042 2.59292,5.12304 l 0.0533,-0.02612 c -0.77223,-1.76177 -1.71521,-3.41771 -2.63737,-5.101166 l -0.009,0.0042"
       style="fill:#f9b70a;fill-opacity:1;fill-rule:nonzero;stroke:none;stroke-width:0.0352777" />
    <path
       id="path20"
       d="m 12.848489,17.659879 c -0.66993,1.325033 -1.4538,2.635956 -1.94487,4.041775 -0.0205,0.05856 0.0684,0.08184 0.097,0.03457 0.77188,-1.268238 1.28305,-2.7051 1.87889,-4.060473 l -0.031,-0.01587"
       style="fill:#f9b70a;fill-opacity:1;fill-rule:nonzero;stroke:none;stroke-width:0.0352777" />
    <path
       id="path21"
       d="m 10.615409,13.833298 c -1.41711,0.134762 -2.84727,0.218016 -4.24427,0.504473 -0.036,0.0074 -0.0229,0.0635 0.012,0.06209 1.4224,-0.06244 2.82858,-0.331258 4.23334,-0.545748 l -10e-4,-0.02082"
       style="fill:#f9b70a;fill-opacity:1;fill-rule:nonzero;stroke:none;stroke-width:0.0352777" />
    <path
       id="path22"
       d="m 11.804269,10.754961 0.0183,-0.02045 c -1.03999,-0.9888375 -1.84467,-2.1304245 -2.75872,-3.2240375 -0.0564,-0.06773 -0.15628,-0.0035 -0.1143,0.07585 0.65511,1.238956 1.78011,2.296231 2.85468,3.1686485"
       style="fill:#f9b70a;fill-opacity:1;fill-rule:nonzero;stroke:none;stroke-width:0.0352777" />
    <path
       id="path23"
       d="m 16.010789,8.3370215 c 0.46672,-1.205442 0.99801,-2.427817 1.32186,-3.681587 0.0176,-0.06879 -0.09,-0.109363 -0.11924,-0.04233 -0.51753,1.188509 -0.85125,2.476852 -1.2259,3.715809 l 0.0233,0.0081"
       style="fill:#f9b70a;fill-opacity:1;fill-rule:nonzero;stroke:none;stroke-width:0.0352777" />
    <path
       id="path24"
       d="m 22.072569,11.42665 c -1.15782,0.102304 -2.31775,0.379236 -3.44876,0.639937 l 0.008,0.04057 c 1.1504,-0.161925 2.33045,-0.318913 3.4491,-0.63853 l -0.008,-0.04198"
       style="fill:#f9b70a;fill-opacity:1;fill-rule:nonzero;stroke:none;stroke-width:0.0352777" />
    <path
       id="path25"
       d="m 17.107569,11.758967 c -1.37547,0.79375 -2.39782,0.01199 -2.38512,-1.8238625 -0.0127,1.8358565 -0.48225,2.6190225 -1.09573,1.8273895 0.61348,0.791633 -0.25436,0.83961 -2.0246,0.111477 1.77024,0.728133 2.07575,1.757891 0.71262,2.403475 1.36313,-0.645584 1.46649,0.101248 0.24094,1.742368 1.22555,-1.64112 1.91806,-1.482725 1.61608,0.369007 0.30198,-1.851732 1.1998,-2.477207 2.09515,-1.459442 -0.89535,-1.017765 -0.23954,-1.240367 1.5307,-0.51929 -1.77024,-0.721077 -2.06551,-1.857372 -0.69004,-2.651122"
       style="fill:#ffffff;fill-opacity:1;fill-rule:nonzero;stroke:none;stroke-width:0.0352777" />
    <path
       id="path26"
       d="m 18.772689,6.7089525 c -1.14618,1.200502 -1.87149,2.785182 -2.7619,4.1694815 l 0.0296,0.02045 c 0.95533,-1.3387915 2.16077,-2.6006765 2.85115,-4.1080975 0.0342,-0.07514 -0.061,-0.142875 -0.11888,-0.08184"
       style="fill:#ffffff;fill-opacity:1;fill-rule:nonzero;stroke:none;stroke-width:0.0352777" />
    <path
       id="path27"
       d="m 43.625119,24.008509 c -0.64558,-1.65981 -1.27846,-3.314695 -2.13607,-4.880677 -0.0236,-0.04374 -0.0938,-0.0081 -0.0776,0.0381 0.59055,1.684163 1.39877,3.260017 2.20028,4.849287 l 0.0134,-0.007"
       style="fill:#ffffff;fill-opacity:1;fill-rule:nonzero;stroke:none;stroke-width:0.0352777" />
    <path
       id="path28"
       d="m 15.267839,15.257462 c 0.49988,1.950861 0.87771,3.902075 1.55575,5.805311 0.0127,0.03563 0.0769,0.02716 0.0691,-0.01341 -0.37923,-1.986846 -1.03822,-3.863975 -1.59455,-5.802138 l -0.0303,0.01024"
       style="fill:#ffffff;fill-opacity:1;fill-rule:nonzero;stroke:none;stroke-width:0.0352777" />
    <path
       id="path29"
       d="m 12.360599,14.83166 c -1.6069,1.021644 -3.1937,2.059517 -4.68101,3.251904 -0.0385,0.03105 -7.9e-4,0.09137 0.0427,0.06491 1.62808,-0.993071 3.14361,-2.133248 4.65138,-3.297415 l -0.013,-0.01939"
       style="fill:#ffffff;fill-opacity:1;fill-rule:nonzero;stroke:none;stroke-width:0.0352777" />
    <path
       id="path30"
       d="m 16.951299,12.809537 0.002,0.0374 c 0.71826,0.01024 1.41358,2.64e-4 2.12866,-0.08255 l -0.001,-0.01799 c -0.71931,-0.03352 -1.41393,0.0035 -2.12971,0.06314"
       style="fill:#ffffff;fill-opacity:1;fill-rule:nonzero;stroke:none;stroke-width:0.0352777" />
    <path
       id="path31"
       d="m 9.996629,12.996862 c 0.78811,0.122063 1.58892,0.147109 2.38478,0.139349 l 0.004,-0.05327 c -0.78988,-0.09948 -1.58786,-0.166865 -2.38514,-0.136525 l -0.004,0.05044"
       style="fill:#ffffff;fill-opacity:1;fill-rule:nonzero;stroke:none;stroke-width:0.0352777" />
    <path
       id="path32"
       d="m 29.400469,84.501389 c -0.001,-0.0138 -0.003,-0.0293 -0.004,-0.043 0.001,0.0141 0.003,0.0286 0.004,0.043 m -15.4051,-2.37067 c -0.0522,-1.28411 -0.11712,-2.79435 -0.19579,-4.48486 v 0 c 0.0787,1.69121 0.14358,3.20075 0.19579,4.48486"
       style="fill:#222020;fill-opacity:1;fill-rule:nonzero;stroke:none;stroke-width:0.0352777" />
    <path
       id="path33"
       d="m 21.181099,89.796229 c -3.19052,0 -6.20854,-1.57833 -7.06226,-4.45311 v 0 c -0.0282,-0.79411 -0.0691,-1.88172 -0.12347,-3.2124 -0.0522,-1.28411 -0.11712,-2.79365 -0.19579,-4.48486 1.65699,-0.6731 3.27907,-1.73531 4.79284,-3.10939 0.5274,8.648 0.89041,15.10701 0.89041,15.10701 0.55245,0.10124 1.12183,0.15169 1.69721,0.15169 0.0759,0 0.1517,-7.9e-4 0.22754,-0.002 -0.12241,-3.72851 -0.5214,-10.04464 -1.0227,-17.08644 0.31644,-0.36195 0.62653,-0.73836 0.92851,-1.12712 0.35419,6.78815 0.62442,13.24892 0.69709,18.18075 2.30082,-0.1972 4.60199,-1.21955 6.16832,-3.17253 0,-2.6e-4 -1.14935,-11.14954 -2.10432,-24.25382 0.65864,-2.11349 1.10666,-4.34799 1.29117,-6.64704 0.43074,8.82826 1.07491,19.02883 2.03058,28.77185 10e-4,0.0138 0.003,0.0293 0.004,0.043 v 0 c -1.48661,3.63184 -4.94418,5.29484 -8.21937,5.29484"
       style="fill:#992520;fill-opacity:1;fill-rule:nonzero;stroke:none;stroke-width:0.0352777" />
    <path
       id="path34"
       d="m 22.010479,89.759889 c -0.0727,-4.93183 -0.3429,-11.3926 -0.69709,-18.18075 2.00554,-2.58374 3.67171,-5.74957 4.76109,-9.2456 0.95497,13.10428 2.10432,24.25347 2.10432,24.25382 -1.56633,1.95298 -3.8675,2.97533 -6.16832,3.17253"
       style="fill:#751c1e;fill-opacity:1;fill-rule:nonzero;stroke:none;stroke-width:0.0352777" />
    <path
       id="path35"
       d="m 21.180039,89.795169 c -0.57538,0 -1.14476,-0.0504 -1.69721,-0.15169 0,0 -0.36301,-6.45901 -0.89041,-15.10701 0.61736,-0.56021 1.21567,-1.17157 1.79246,-1.83021 0.5013,7.0418 0.90029,13.35793 1.0227,17.08644 -0.0758,0.002 -0.15169,0.002 -0.22754,0.002"
       style="fill:#751c1e;fill-opacity:1;fill-rule:nonzero;stroke:none;stroke-width:0.0352777" />
    <path
       id="path36"
       d="m 47.959049,44.461109 -15.87782,-4.82917 c -3.61668,17.95462 -12.21987,44.8317 -14.31996,51.28789 -0.3743,6.06566 9.42481,10.181521 14.64169,4.45346 6.28897,-24.37764 15.55609,-50.91218 15.55609,-50.91218"
       style="fill:#df302b;fill-opacity:1;fill-rule:nonzero;stroke:none;stroke-width:0.0352777" />
    <path
       id="path37"
       d="m 30.539939,96.913519 c 0,-2.6e-4 8.38129,-33.15829 15.05091,-50.97956 l -5.50263,-2.37772 c 0,0 -10.48914,37.18383 -16.43062,54.22053 2.22885,0.60431 4.74133,0.43391 6.88234,-0.86325"
       style="fill:#ad2426;fill-opacity:1;fill-rule:nonzero;stroke:none;stroke-width:0.0352777" />
    <path
       id="path38"
       d="m 36.541749,44.297419 c -3.40995,13.52762 -15.21848,52.50251 -15.21848,52.50251 0.54786,0.32173 1.13877,0.59125 1.75683,0.8008 3.92853,-11.95564 15.00223,-52.64855 15.00223,-52.64855 0,0 0.22578,-1.71274 0.37712,-3.38032 l -1.1049,-0.3362 c -0.23037,0.80822 -0.49918,1.81716 -0.8128,3.06176"
       style="fill:#ad2426;fill-opacity:1;fill-rule:nonzero;stroke:none;stroke-width:0.0352777" />
    <path
       id="path39"
       d="m 47.959049,44.461109 c -0.53728,1.76707 -4.5272,2.11808 -8.91187,0.78458 -4.38432,-1.3335 -7.50323,-3.84704 -6.96595,-5.61375 0.53728,-1.76636 4.52719,-2.11773 8.91187,-0.78423 4.38467,1.33385 7.50358,3.84704 6.96595,5.6134"
       style="fill:#f03f3a;fill-opacity:1;fill-rule:nonzero;stroke:none;stroke-width:0.0352777" />
    <path
       id="path40"
       d="m 44.144819,24.215199 -1.94593,0.12382 c 0.30904,4.85987 -0.51928,9.96103 -2.68499,16.54034 0.008,0.895 1.46227,1.24072 1.85173,0.60995 1.51307,-4.59599 3.19617,-10.7128 2.77919,-17.27411"
       style="fill:#eea354;fill-opacity:1;fill-rule:nonzero;stroke:none;stroke-width:0.0352777" />
    <path
       id="path41"
       d="m 43.526749,33.331679 c -0.64417,-0.49848 -1.21038,-1.0862 -1.68381,-1.74237 -0.007,0.0455 -0.0141,0.091 -0.0212,0.13653 0.47661,0.64523 1.04458,1.22237 1.68522,1.71273 0.007,-0.0356 0.0131,-0.0713 0.0198,-0.10689"
       style="fill:#be7a3e;fill-opacity:1;fill-rule:nonzero;stroke:none;stroke-width:0.0352777" />
    <path
       id="path42"
       d="m 42.063779,29.899859 c 0.48119,0.65017 1.07456,1.21496 1.7533,1.66299 0.005,-0.0356 0.0106,-0.0713 0.0155,-0.10689 -0.68227,-0.4572 -1.27705,-1.03329 -1.75436,-1.69757 -0.005,0.0473 -0.009,0.0942 -0.0145,0.14147"
       style="fill:#be7a3e;fill-opacity:1;fill-rule:nonzero;stroke:none;stroke-width:0.0352777" />
    <path
       id="path43"
       d="m 41.054479,35.541479 c -0.0113,0.0473 -0.0226,0.0942 -0.0342,0.14182 0.3997,0.75917 0.89394,1.46755 1.47215,2.10679 0.01,-0.037 0.0201,-0.0744 0.0303,-0.11113 -0.57961,-0.64876 -1.07279,-1.36701 -1.46826,-2.13748"
       style="fill:#be7a3e;fill-opacity:1;fill-rule:nonzero;stroke:none;stroke-width:0.0352777" />
    <path
       id="path44"
       d="m 41.433369,33.856969 c 0.45261,0.66004 0.99377,1.25835 1.61007,1.77623 0.008,-0.0349 0.0155,-0.0698 0.024,-0.10477 -0.61701,-0.52423 -1.15852,-1.13066 -1.60761,-1.80023 -0.009,0.0427 -0.0177,0.0857 -0.0265,0.12877"
       style="fill:#be7a3e;fill-opacity:1;fill-rule:nonzero;stroke:none;stroke-width:0.0352777" />
    <path
       id="path45"
       d="m 44.061559,29.474409 c -0.70168,-0.42192 -1.32433,-0.96344 -1.83938,-1.59421 -0.002,0.0476 -0.004,0.0949 -0.007,0.14288 0.51823,0.6163 1.13912,1.14512 1.83692,1.55787 0.004,-0.0353 0.006,-0.0709 0.009,-0.10654"
       style="fill:#be7a3e;fill-opacity:1;fill-rule:nonzero;stroke:none;stroke-width:0.0352777" />
    <path
       id="path46"
       d="m 40.439939,37.870159 c -0.0127,0.0455 -0.0265,0.0914 -0.0395,0.13653 0.35278,0.72425 0.85055,1.37725 1.46897,1.90606 0.0106,-0.0335 0.0208,-0.067 0.0314,-0.1009 -0.62054,-0.53728 -1.1176,-1.20297 -1.46086,-1.94169"
       style="fill:#be7a3e;fill-opacity:1;fill-rule:nonzero;stroke:none;stroke-width:0.0352777" />
    <path
       id="path47"
       d="m 42.537559,24.317499 c 0.42792,0.71579 0.99448,1.34197 1.67076,1.83692 -2.7e-4,-0.0406 2.6e-4,-0.0811 0,-0.12136 -0.62689,-0.47025 -1.15747,-1.05586 -1.56351,-1.72261 l -0.10725,0.007"
       style="fill:#be7a3e;fill-opacity:1;fill-rule:nonzero;stroke:none;stroke-width:0.0352777" />
    <path
       id="path48"
       d="m 41.410079,41.352789 c 0.0106,-0.0318 0.0208,-0.0642 0.0314,-0.0967 -0.69356,-0.46638 -1.19556,-1.17546 -1.42134,-1.97062 -0.0169,0.0554 -0.0339,0.11042 -0.0508,0.1658 0.25188,0.76906 0.75741,1.45098 1.44074,1.90148"
       style="fill:#be7a3e;fill-opacity:1;fill-rule:nonzero;stroke:none;stroke-width:0.0352777" />
    <path
       id="path49"
       d="m 44.182919,27.585989 c 0.001,-0.0346 0.002,-0.0692 0.004,-0.10372 -0.73554,-0.3556 -1.39029,-0.85795 -1.92757,-1.46614 2.6e-4,0.049 10e-4,0.0981 0.002,0.14746 0.54116,0.5902 1.19415,1.07632 1.92193,1.4224"
       style="fill:#be7a3e;fill-opacity:1;fill-rule:nonzero;stroke:none;stroke-width:0.0352777" />
    <path
       id="path50"
       d="m 47.104269,12.535077 c -2.298,6.156325 -4.83905,8.212312 -5.92879,4.797425 1.08974,3.414887 -1.88559,2.510012 -6.94266,-2.111729 5.05707,4.621741 4.81859,8.459616 -0.55669,8.954556 5.37528,-0.49494 4.80519,2.14207 -1.32961,6.15351 6.1348,-4.01144 8.26875,-2.6289 4.97875,3.22544 3.29,-5.85434 7.07672,-6.85412 8.83602,-2.33186 -1.7593,-4.52226 0.71932,-4.46475 5.78344,0.13406 -5.06412,-4.59881 -4.66266,-8.7817 0.93698,-9.759952 -5.59964,0.978252 -8.07544,-2.905125 -5.77744,-9.06145"
       style="fill:#f35f19;fill-opacity:1;fill-rule:nonzero;stroke:none;stroke-width:0.0352777" />
    <path
       id="path51"
       d="m 48.245149,22.406499 c -2.95028,0.51577 -4.2545,-1.530345 -3.04377,-4.77343 -1.21073,3.243085 -2.54952,4.326466 -3.12349,2.5273 0.57397,1.799166 -0.99342,1.32221 -3.6576,-1.112663 2.66418,2.434873 2.53859,4.456643 -0.29316,4.717693 2.83175,-0.26105 2.53154,1.12854 -0.70026,3.24168 3.2318,-2.11314 4.35575,-1.38501 2.62255,1.69933 1.7332,-3.08434 3.72851,-3.61103 4.65525,-1.22872 -0.92674,-2.38231 0.37889,-2.35197 3.04659,0.0705 -2.6677,-2.42252 -2.45639,-4.62597 0.49389,-5.14174"
       style="fill:#f9b70a;fill-opacity:1;fill-rule:nonzero;stroke:none;stroke-width:0.0352777" />
    <path
       id="path52"
       d="m 43.749709,27.491089 c 0.18062,1.91029 0.32808,3.81 0.67697,5.7016 0.006,0.0328 0.061,0.0279 0.0589,-0.006 -0.1203,-1.92017 -0.4378,-3.79906 -0.72637,-5.69666 l -0.01,0.001"
       style="fill:#f9b70a;fill-opacity:1;fill-rule:nonzero;stroke:none;stroke-width:0.0352777" />
    <path
       id="path53"
       d="m 39.795069,26.911119 c -1.08409,1.01459 -2.27013,1.97697 -3.21381,3.12879 -0.0392,0.0483 0.0363,0.10054 0.0794,0.066 1.16029,-0.92639 2.1336,-2.10079 3.15807,-3.16936 l -0.0236,-0.0254"
       style="fill:#f9b70a;fill-opacity:1;fill-rule:nonzero;stroke:none;stroke-width:0.0352777" />
    <path
       id="path54"
       d="m 39.010839,22.550439 c -1.37724,-0.359835 -2.7492,-0.771879 -4.1596,-0.982487 -0.0367,-0.0056 -0.0434,0.05186 -0.0102,0.06244 1.35749,0.429329 2.77036,0.659347 4.16348,0.940157 l 0.006,-0.0201"
       style="fill:#f9b70a;fill-opacity:1;fill-rule:nonzero;stroke:none;stroke-width:0.0352777" />
    <path
       id="path55"
       d="m 41.183949,20.067235 0.024,-0.01304 c -0.63747,-1.28552 -1.00119,-2.633837 -1.48449,-3.974745 -0.03,-0.0829 -0.1457,-0.0568 -0.1337,0.03175 0.1905,1.388533 0.88406,2.767542 1.5942,3.95605"
       style="fill:#f9b70a;fill-opacity:1;fill-rule:nonzero;stroke:none;stroke-width:0.0352777" />
    <path
       id="path56"
       d="m 45.964799,19.239619 c 0.85196,-0.971905 1.77023,-1.937809 2.50472,-3.004257 0.0406,-0.05856 -0.0469,-0.133702 -0.0974,-0.08078 -0.89358,0.938742 -1.64959,2.034117 -2.4264,3.069167 l 0.0191,0.01587"
       style="fill:#f9b70a;fill-opacity:1;fill-rule:nonzero;stroke:none;stroke-width:0.0352777" />
    <path
       id="path57"
       d="m 50.598179,24.221899 c -1.12289,-0.30092 -2.30717,-0.43921 -3.45899,-0.58244 l -0.007,0.0409 c 1.13594,0.24271 2.29835,0.50023 3.45863,0.58349 l 0.007,-0.042"
       style="fill:#f9b70a;fill-opacity:1;fill-rule:nonzero;stroke:none;stroke-width:0.0352777" />
    <path
       id="path58"
       d="m 45.820509,22.830189 c -1.56457,0.2734 -2.25637,-0.811387 -1.61431,-2.531533 -0.64206,1.720146 -1.3522,2.294463 -1.65629,1.340204 0.30409,0.954259 -0.52705,0.701319 -1.93993,-0.589846 1.41288,1.291165 1.3462,2.363615 -0.15522,2.501905 1.50142,-0.13829 1.34232,0.59831 -0.37183,1.71908 1.71415,-1.12077 2.31034,-0.73448 1.391,0.90135 0.91934,-1.63583 1.97733,-1.91523 2.46874,-0.65158 -0.49141,-1.26365 0.20109,-1.24742 1.61573,0.0374 -1.41464,-1.28481 -1.30246,-2.45357 0.26211,-2.72697"
       style="fill:#ffffff;fill-opacity:1;fill-rule:nonzero;stroke:none;stroke-width:0.0352777" />
    <path
       id="path59"
       d="m 49.117219,18.658239 c -1.48802,0.734132 -2.71321,1.974146 -4.02484,2.968625 l 0.0208,0.02893 c 1.35678,-0.929217 2.92206,-1.700742 4.08799,-2.88008 0.0578,-0.05856 -0.008,-0.154868 -0.084,-0.117475"
       style="fill:#ffffff;fill-opacity:1;fill-rule:nonzero;stroke:none;stroke-width:0.0352777" />
    <path
       id="path60"
       d="m 43.058259,20.659902 c -0.037,-1.780823 -0.0635,-3.552473 -0.33126,-5.317421 -0.007,-0.04939 -0.0854,-0.03986 -0.0861,0.0088 -0.0236,1.78435 0.19509,3.541887 0.40252,5.310362 l 0.0148,-0.0019"
       style="fill:#ffffff;fill-opacity:1;fill-rule:nonzero;stroke:none;stroke-width:0.0352777" />
    <path
       id="path61"
       d="m 42.892099,25.484839 c -0.20073,2.00413 -0.5147,3.96628 -0.53093,5.98664 -2.6e-4,0.0381 0.0624,0.0522 0.0692,0.0113 0.32561,-1.99637 0.35066,-3.98568 0.49353,-5.99722 l -0.0318,-8e-4"
       style="fill:#ffffff;fill-opacity:1;fill-rule:nonzero;stroke:none;stroke-width:0.0352777" />
    <path
       id="path62"
       d="m 40.307299,24.086789 c -1.85984,0.40851 -3.70628,0.83855 -5.51251,1.4485 -0.0469,0.0159 -0.0321,0.0857 0.0177,0.0755 1.87008,-0.37395 3.68512,-0.92499 5.50016,-1.50072 l -0.005,-0.0233"
       style="fill:#ffffff;fill-opacity:1;fill-rule:nonzero;stroke:none;stroke-width:0.0352777" />
    <path
       id="path63"
       d="m 45.313219,23.763289 -0.0109,0.036 c 0.67098,0.25612 1.32785,0.48542 2.02776,0.65299 l 0.005,-0.0173 c -0.66429,-0.2787 -1.32927,-0.4819 -2.02213,-0.67169"
       style="fill:#ffffff;fill-opacity:1;fill-rule:nonzero;stroke:none;stroke-width:0.0352777" />
    <path
       id="path64"
       d="m 38.716619,21.552781 c 0.69815,0.384881 1.44181,0.683331 2.19216,0.948968 l 0.0222,-0.0483 c -0.70803,-0.364767 -1.43439,-0.702023 -2.19322,-0.94685 l -0.0212,0.04621"
       style="fill:#ffffff;fill-opacity:1;fill-rule:nonzero;stroke:none;stroke-width:0.0352777" />
  </g>
</svg>
