<?xml version="1.0" encoding="UTF-8" standalone="no"?>
<!-- Created with Inkscape (http://www.inkscape.org/) -->

<svg
   version="1.1"
   id="svg1"
   width="533.33331"
   height="813.33331"
   viewBox="0 0 533.33331 813.33331"
   sodipodi:docname="pascua1.svg"
   inkscape:version="1.4 (86a8ad7, 2024-10-11)"
   xmlns:inkscape="http://www.inkscape.org/namespaces/inkscape"
   xmlns:sodipodi="http://sodipodi.sourceforge.net/DTD/sodipodi-0.dtd"
   xmlns="http://www.w3.org/2000/svg"
   xmlns:svg="http://www.w3.org/2000/svg">
  <defs
     id="defs1">
    <clipPath
       clipPathUnits="userSpaceOnUse"
       id="clipPath39">
      <path
         d="m 1643.21,2025.87 c -75.78,0 -191.2,7.14 -215.19,67.23 -66.81,167.39 185.52,352.42 302.87,430.61 86.26,71.57 185.01,123.62 279.89,180.85 107.47,64.82 193.57,176.35 281.53,263.3 10.44,10.32 25.03,21.23 38.71,21.23 4.21,0 8.33,-1.03 12.22,-3.43 9.35,-5.76 12.44,-17.18 14.69,-27.54 48.88,-224.46 129.02,-645.74 -98.02,-807.79 -66.97,-47.8 -159.52,-66.88 -251.47,-83.91 -106.74,-19.78 -215.25,-38.03 -324.27,-40.04 -11.15,-0.2 -25.19,-0.51 -40.96,-0.51"
         transform="translate(0,-2.4999999e-5)"
         id="path39" />
    </clipPath>
  </defs>
  <sodipodi:namedview
     id="namedview1"
     pagecolor="#ffffff"
     bordercolor="#000000"
     borderopacity="0.25"
     inkscape:showpageshadow="2"
     inkscape:pageopacity="0.0"
     inkscape:pagecheckerboard="0"
     inkscape:deskcolor="#d1d1d1"
     inkscape:zoom="1.0241803"
     inkscape:cx="267.04281"
     inkscape:cy="406.66666"
     inkscape:window-width="1920"
     inkscape:window-height="1051"
     inkscape:window-x="-9"
     inkscape:window-y="-9"
     inkscape:window-maximized="1"
     inkscape:current-layer="g1">
    <inkscape:page
       x="0"
       y="0"
       inkscape:label="1"
       id="page1"
       width="533.33331"
       height="813.33331"
       margin="0"
       bleed="0" />
  </sodipodi:namedview>
  <g
     id="g1"
     inkscape:groupmode="layer"
     inkscape:label="1">
    <path
       id="path8"
       d="m 440.65999,535.528 c -26.048,-19.41333 -39.16,-53.24266 -32.568,-84.02933 -2.03333,9.5 -110.39066,42.94533 -124.716,49.47867 -19.30133,8.80133 -38.852,18.69333 -58.44,26.70266 -11.116,4.54534 -22.65733,8.03734 -34.06533,11.844 -5.81333,1.94 -11.6,3.96 -17.276,6.24134 -3.084,1.24133 -12.42133,3.60533 -13.29066,7.25466 -0.316,1.33067 0.148,2.704 0.60666,3.99734 4.084,11.50933 8.16934,23.01733 12.25334,34.524 0.32933,0.92933 0.66266,1.87866 0.65866,2.85733 -0.003,1.2 -0.512,2.34267 -1.01333,3.44667 -12.38267,27.28133 -21.87333,55.62399 -31.30667,83.91453 -11.84333,35.52133 -19.66306,70.71093 -19.65,108.16506 25.51267,9.09907 53.66467,7.70427 80.87533,6.1844 11.38134,-0.63587 22.636,-1.54947 33.47334,-4.84787 12.65066,-3.85106 25.084,-8.3084 37.52266,-12.72546 29.532,-10.4896 60.204,-18.81467 86.92933,-35.16933 9.00534,-5.5104 15.62934,-5.6588 25.95867,-6.00934 10.068,-0.3412 20.01333,-3.46146 28.31067,-8.88026 23.864,-15.58907 43.48266,-35.07547 61.76399,-56.05174 7.41867,-8.512 16.6,-19.86933 21.71334,-29.69066 1.38533,-2.66 6.21866,-9.2 6.21866,-11.78 0.40267,-0.73734 0.8,-1.49867 0.91734,-2.32134 0.13866,-0.97466 -0.124,-1.956 -0.384,-2.90666 -3.74534,-13.69333 -8.69334,-27.21733 -14.25067,-40.39067 -4.72,-10.472 -10.86933,-21.10266 -19.38133,-29.268 -8.632,-8.28 -21.14933,-13.30533 -30.86,-20.54"
       style="fill:#757486;fill-opacity:1;fill-rule:nonzero;stroke:none;stroke-width:0.133333" />
    <path
       id="path9"
       d="m 370.96399,538.59334 c 10.752,-15.68934 24.47467,-30.728 40.696,-42.10934 -5.312,-14.38133 -6.768,-30.03999 -3.568,-44.98533 -2.03333,9.5 -110.39066,42.94533 -124.716,49.47867 -19.30133,8.80133 -38.852,18.69333 -58.44,26.70266 -11.116,4.54534 -22.65733,8.03734 -34.06533,11.844 -5.81333,1.94 -11.6,3.96 -17.276,6.24134 -3.084,1.24133 -12.42133,3.60533 -13.29066,7.25466 -0.31734,1.33067 0.148,2.704 0.60666,3.99734 4.084,11.50933 8.16934,23.01733 12.25334,34.524 0.32933,0.92933 0.66266,1.87866 0.65866,2.85733 -0.003,1.2 -0.512,2.34267 -1.01333,3.44667 -12.38267,27.28133 -21.87333,55.62399 -31.30533,83.91453 -11.84467,35.52133 -19.6644,70.71093 -19.65134,108.16506 25.51267,9.09907 53.66467,7.70427 80.87533,6.1844 11.38134,-0.63587 22.636,-1.54947 33.47334,-4.84787 1.33866,-0.4068 2.664,-0.84533 3.99866,-1.26666 1.988,-16.33494 4.54134,-32.54787 10.49467,-48.47187 10.08133,-26.9672 27.208,-50.73493 45.284,-73.39493 32.128,-40.27333 46.416,-87.84133 74.98533,-129.53466"
       style="fill:#494968;fill-opacity:1;fill-rule:nonzero;stroke:none;stroke-width:0.133333" />
    <path
       id="path10"
       d="m 141.12533,682.9 c 0.12533,-0.38027 0.252,-0.76147 0.37867,-1.1412 1.49866,-4.4948 2.99866,-8.99213 4.512,-13.48547 -1.51334,4.49334 -3.01334,8.992 -4.512,13.48654 -0.12667,0.37866 -0.25334,0.76146 -0.37867,1.14013"
       style="fill:#4a4966;fill-opacity:1;fill-rule:nonzero;stroke:none;stroke-width:0.133333" />
    <path
       id="path11"
       d="m 138.388,691.4412 c 0.88933,-2.84533 1.796,-5.69173 2.73733,-8.5412 0.12533,-0.37867 0.252,-0.76147 0.37867,-1.14013 1.49866,-4.49454 2.99866,-8.9932 4.512,-13.48654 8.00933,-23.78533 16.37866,-47.48133 26.79333,-70.42799 0.50133,-1.10134 1.00667,-2.23867 1.01467,-3.43734 0.064,0.68267 5.896,18.54134 13.97466,31.156 2.16,3.37467 4.48267,6.37333 6.89734,8.568 -12.43334,12.81467 -25.408,25.13867 -38.03867,38.20533 -6.12267,6.33467 -12.24933,12.6772 -18.26933,19.10387"
       style="fill:#38385a;fill-opacity:1;fill-rule:nonzero;stroke:none;stroke-width:0.133333" />
    <path
       id="path12"
       d="m 213.47599,540.94667 c -10.79466,2.34533 -21.81733,3.61333 -32.61599,5.94267 -4.084,0.88133 -7.664,3.088 -11.552,3.93866 -1.22534,0.268 -2.71867,0.17734 -4.24934,0.0867 -1.056,-0.0613 -2.13066,-0.124 -3.14933,-0.0693 -0.824,0.668 -1.41733,1.39066 -1.60533,2.17466 -0.31734,1.33067 0.148,2.704 0.60666,3.99734 4.084,11.50933 8.16934,23.01733 12.25334,34.524 0.32933,0.92933 0.66266,1.87866 0.65866,2.85733 -0.001,0.66133 10.61467,33.06 23.09734,41.49866 1.94933,1.31734 4.08399,2.40934 6.43599,3.21867 13.5,4.648 27.48667,2.80933 40.81334,-1.58267 27.39466,-9.03333 53.18,-27.02533 73.1,-46.82533 0.27866,-0.27866 0.55866,-0.55866 0.83733,-0.83866 27.08,-27.44667 50.75733,-61.51334 50.28133,-99.096 0.19733,15.55466 -138.176,46.53733 -154.912,50.17333"
       style="fill:#2d2d51;fill-opacity:1;fill-rule:nonzero;stroke:none;stroke-width:0.133333" />
    <path
       id="path13"
       d="m 330.98666,534.98134 c 3.18533,-3.21067 6.27333,-6.728 9.25866,-10.156 1.58267,-1.81867 5.44267,-10.08667 7.264,-10.73467 -44.18533,15.72 -90.56399,25.03067 -136.73599,34.284 -16.47067,3.30133 -32.94267,6.604 -49.416,9.904 3.936,11.08933 7.872,22.176 11.808,33.26267 0.328,0.92933 0.66133,1.87866 0.65867,2.856 -0.003,0.66266 10.61466,33.06133 23.09466,41.49999 1.95067,1.31734 4.08533,2.40934 6.43733,3.21867 4.24134,1.46 8.53067,2.27867 12.832,2.58133 2.89734,-9.51333 6.41467,-18.81733 11.112,-27.67066 3.96134,-7.46533 8.64667,-16.48267 14.892,-22.38667 17.60934,-16.64933 40.95067,-26.40533 62.324,-38.456 9.07867,-5.12 19.172,-10.85333 26.47067,-18.20266"
       style="fill:#07073d;fill-opacity:1;fill-rule:nonzero;stroke:none;stroke-width:0.133333" />
    <path
       id="path14"
       d="m 219.34133,135.80668 c -6.14667,10.85333 -10.328,22.46133 -10.60667,34.82667 -0.14,6.14666 0.78,12.26933 1.84267,18.33733 1.20666,6.87867 6.408,12.96133 6.55066,20 0.16,7.89466 -5.456,14.64533 -9.80666,20.80533 -6.30267,8.92667 -7.16534,19.29333 -11.18267,29.02667 -2.384,5.776 -5.352,18.26133 -10.752,21.952 -4.784,3.27066 -9.72,5.52666 -14.42133,8.91866 -8.596,6.20134 -9.864,6.648 -15.692,11.288 -1.55333,1.236 -3.476,4.30267 -4.69467,5.864 -1.388,1.77467 -1.936,4.072 -2.41333,6.20267 -0.768,3.42133 -0.96667,6.92667 -0.99733,10.416 -0.0293,3.26133 -0.28934,6.67467 0.34933,9.89467 1.01733,5.124 3.17333,10.09866 7.05467,13.87733 1.16133,1.13066 2.24133,2.26133 3.58933,3.19066 0.32133,0.22134 0.64533,0.44667 0.90133,0.736 1.712,1.93867 0.724,6.23867 0.59334,8.488 -0.20534,3.52934 -0.51867,7.05467 -0.94,10.568 -0.63867,5.34667 -2.54,10.476 -4.55734,15.476 -0.99066,2.45734 -2.02533,4.9 -3.03066,7.35334 -0.716,1.74533 -2.86934,4.33333 -2.85867,6.17466 0.003,0.496 0.192,0.97067 0.388,1.42934 1.26133,2.94533 3.36133,5.08133 4.784,7.84666 0.16133,0.312 0.30533,0.64667 0.29733,0.99334 -0.0107,0.42933 -0.25066,0.81866 -0.484,1.18666 -1.98933,3.14 -4.32533,5.92934 -6.31733,9.076 -0.504,0.79734 -1.01867,1.61867 -1.18133,2.536 -0.2,1.13467 0.16,2.284 0.516,3.38267 0.90666,2.8 1.812,5.60133 2.71866,8.40133 1.89734,5.86267 0.26,11.82534 0.0387,17.83334 -0.368,9.984 -0.944,19.992 -2.92933,29.82266 -3.80534,18.86 -7.94534,37.07467 -15.48907,54.996 -2.60253,6.184 -5.52653,12.912 -3.49213,19.284 1.82293,5.71067 7.4012,9.77733 13.3812,11.62667 18.19466,5.62666 40.68666,1.268 59.436,0.456 20.30133,-0.88 41.09599,-3.32267 60.84666,-7.84934 22.52267,-5.16 44.2,-10.76666 65.52133,-19.54133 30.408,-12.51333 58.82,-29.99067 83.32,-51.16 2.14667,-1.85467 4.28933,-3.79333 5.688,-6.208 2.584,-4.464 2.276,-9.86133 2.012,-14.948 -1.216,-23.52533 -2.03467,-49.64533 2.14533,-72.90666 1.77334,-9.86934 16.65467,-4.81067 24.88,-8.808 8.70134,-4.22667 15.89867,-12.41867 17.67467,-21.644 4.21333,-21.89067 3.16,-45.98 4.688,-68.208 0.82933,-12.032 1.65733,-24.06533 2.484,-36.09733 4.04266,-58.77733 8.052,-118.216 -2.59733,-176.245332 -1.06267,-5.786666 -2.316,-11.671999 -5.42134,-16.754666 -3.10533,-5.081333 -8.41333,-9.302666 -14.588,-9.784 -2.93866,-0.229333 -6.34266,0.24 -8.42933,-1.736 -1.06533,-1.010666 -1.50933,-2.452 -1.91467,-3.829333 -2.44266,-8.297333 -5.06266,-29.819999 -11.808,-34.070666 -7.23333,-4.56 -24.644,-1.001333 -32.76,-0.302666 -23.78266,2.046666 -47.17866,7.271999 -69.63999,14.905333 -11.42934,3.883999 -19.552,11.561333 -28.70667,19.735999 -15.904,14.201333 -30.68,29.494666 -44.83067,45.266666 -10.236,11.409335 -21.30266,24.046665 -29.15866,37.918665"
       style="fill:#757486;fill-opacity:1;fill-rule:nonzero;stroke:none;stroke-width:0.133333" />
    <path
       id="path15"
       d="m 438.27866,316.55468 c -2.90934,-19.444 1.69733,-39.27867 6.52266,-58.10134 11.74934,-45.84399 10.69734,-94.58266 -3.02266,-139.93199 -5.264,-17.40267 -2.872,-43.161335 2.29333,-60.702668 l -0.232,-0.0067 -0.2,-0.0067 c -25.596,26.949333 -7.844,68.777328 -5.188,100.795998 3.688,44.47066 -5.54133,88.87599 -13.99467,132.75733 -2.98933,15.52533 -5.9,31.28133 -4.49066,47.00533 1.26,14.05333 7.49333,46.316 26.91733,46.90666 7.53467,-4.49066 13.54,-11.95333 15.14,-20.26266 1.57067,-8.16 2.408,-16.624 2.92133,-25.184 -15.632,6.45067 -24.152,-6.468 -26.66666,-23.26933"
       style="fill:#8a8aa2;fill-opacity:1;fill-rule:nonzero;stroke:none;stroke-width:0.133333" />
    <path
       id="path16"
       d="m 316.10266,538.08267 c -12.03733,2.968 -24.37867,5.108 -36.52933,7.168 -24.792,4.20533 -49.92534,7.404 -75.10134,8.46 C 183.396,554.596 148.992,554.34 128.39946,542.19734 c -1.6656,4.56266 -2.726,9.268 -1.28066,13.79333 1.82386,5.71067 7.4012,9.77733 13.3812,11.62667 18.19466,5.62666 40.68666,1.268 59.436,0.456 20.30133,-0.88 41.09599,-3.324 60.84666,-7.84934 22.52267,-5.16 44.2,-10.76666 65.52133,-19.54133 7.12133,-2.92933 14.124,-6.14667 20.99867,-9.608 -10.24667,2.94933 -20.66267,5.24533 -31.2,7.008"
       style="fill:#62627c;fill-opacity:1;fill-rule:nonzero;stroke:none;stroke-width:0.133333" />
    <path
       id="path17"
       d="m 322.03733,32.88535 c -11.42934,3.883999 -19.55067,11.561333 -28.70667,19.735999 -15.904,14.201333 -30.68,29.494666 -44.83067,45.266666 -10.236,11.407995 -21.30266,24.046665 -29.15866,37.918665 -6.14667,10.85333 -10.328,22.46133 -10.60667,34.82667 -0.14,6.14666 0.78133,12.26933 1.84267,18.33733 1.20666,6.87867 6.408,12.96133 6.55066,20 0.16,7.89466 -5.456,14.64533 -9.80666,20.80533 -6.30134,8.92667 -7.16534,19.29333 -11.18267,29.02667 -2.384,5.776 -5.352,18.26133 -10.752,21.952 -4.784,3.27066 -8.672,4.244 -13.03866,8.01733 -5.61467,4.852 -11.48,9.46133 -17.30934,14.1 -1.55333,1.236 -3.24133,2.392 -4.46133,3.952 -1.38667,1.776 -1.93467,4.07467 -2.412,6.204 -0.21867,0.97067 -0.38133,1.94933 -0.516,2.93067 6.98533,1.46933 13.848,3.37466 20.84267,4.94133 5.084,1.14 10.04,1.72933 14.97866,1.72667 6.51734,-17.76534 15.3,-34.832 25.83733,-50.72267 12.568,-18.95333 30.40267,-35.84 39.70934,-56.57867 7.79066,-17.35999 -2.65734,-33.92133 -3.43467,-51.56266 -1.44667,-32.83867 22.30667,-60.88 44.47067,-83.657332 12.328,-12.666666 25.40533,-24.653332 37.77866,-37.278665 5.11067,-5.214667 10.16933,-10.56 14.832,-16.182667 -6.95067,1.848 -13.83333,3.932 -20.62666,6.241334"
       style="fill:#62627c;fill-opacity:1;fill-rule:nonzero;stroke:none;stroke-width:0.133333" />
    <path
       id="path18"
       d="m 297.83333,391.46401 c -2.188,-9.90534 -5.124,-19.64667 -7.332,-29.54934 -1.616,-7.252 -4.72667,-13.72 -4.832,-21.28933 -0.208,-15.048 6.848,-31.16666 0.0187,-45.69333 -4.91066,-10.44267 -9.66533,-14.65067 -5.17733,-26.3 3.98133,-10.33733 11.236,-19.22133 17.744,-28.20267 9.94133,-13.716 18.52133,-28.31733 25.60267,-43.54399 1.488,-3.2 2.588,-8.628 4.89733,-11.27067 2.068,-2.368 5.29333,-3.29333 8.736,-4.60667 3.668,-1.40133 7.38133,-2.708 11.088,-4.01466 3.29466,-1.16 34.492,-11.78134 44.68533,-11.78134 2.012,0 3.20533,0.41467 3.20533,1.396 0.2,13.112 -6.97333,25.976 -16.08133,35.37334 -13.68,14.11466 -32.10267,23.44933 -45.872,37.21333 -5.45866,5.45466 -9.62266,11.82 -12.95733,18.62133 -4.524,9.22933 -7.52,19.26133 -10.144,28.90933 -7.28267,26.76534 -9.33867,53.888 -11.72267,81.368 -0.59466,6.84933 -3.34,16.676 -1.85866,23.37067"
       style="fill:#807f94;fill-opacity:1;fill-rule:nonzero;stroke:none;stroke-width:0.133333" />
    <path
       id="path19"
       d="m 288.21466,303.33334 -0.036,-0.224 c -0.052,-0.32133 -0.11067,-0.64266 -0.172,-0.964 -0.0653,-0.33466 -0.14267,-0.668 -0.212,-1.00133 -0.46933,-2.09733 -1.148,-4.17067 -2.10667,-6.212 -4.91066,-10.44267 -9.66533,-14.65067 -5.17733,-26.3 3.13067,-8.12667 8.284,-15.35467 13.50667,-22.43867 -10.39734,9.80934 -22.41734,20.552 -21.99734,35.66534 0.12134,4.35866 1.39734,8.604 2.11867,12.90933 0.96933,5.79733 0.928,11.744 -0.12133,17.528 -10.64934,-1.336 -21.45334,-1.56133 -32.15334,-0.684 -6.11866,0.50133 -23.12266,0.77867 -12.53733,9.87467 2.45067,2.10533 5.65067,3.212 8.764,4.26933 12.1,4.11067 24.20133,8.22267 36.30133,12.33333 3.388,1.15067 7.688,2.12 10.16,-0.35866 0.50134,-0.504 0.90267,-1.10934 1.26134,-1.75467 0.74933,-10.79733 4.05333,-21.99333 2.40133,-32.64267"
       style="fill:#62627c;fill-opacity:1;fill-rule:nonzero;stroke:none;stroke-width:0.133333" />
    <path
       id="path20"
       d="m 415.31199,483.31467 c 2.58267,-4.464 2.276,-9.86266 2.01333,-14.948 -1.21733,-23.52533 -2.03733,-49.64533 2.144,-72.90666 0.96667,-5.37734 5.824,-6.32134 11.376,-6.716 -2.28,-2.16267 -4.688,-4.22267 -6.712,-6.632 -4.40933,-5.252 -4.82933,-9.50267 -6.24266,-15.80534 -11.71867,-52.27066 13.86533,-111.99333 17.864,-164.43066 2.43066,-31.73733 -3.94534,-61.02933 -5.38667,-92.82133 -0.56,-12.377332 -0.97467,-24.785332 2.81333,-36.761331 1.69467,-5.357334 4.052,-10.289334 7.23867,-14.906667 -0.84,-0.236 -1.61733,-0.596 -2.26,-1.204 -1.06533,-1.010666 -1.50933,-2.452 -1.91467,-3.829333 -2.44266,-8.297333 -5.06266,-29.819999 -11.808,-34.070666 -0.98,-0.618666 -2.15866,-1.076 -3.464,-1.422666 -10.20933,12.091999 -20.21333,24.343999 -31.00933,36.074665 -14.84933,16.133333 -29.596,32.862666 -38.41467,52.803998 -3.756,8.49733 10.572,10.664 17.23867,14.42533 7.556,4.26134 15.336,8.32134 22.292,13.45334 13.82933,10.19866 20.97733,23.53066 18.09867,40.34666 -6.116,35.73067 -35.588,60.4 -43.87334,95.01867 -4.496,18.78933 -0.50533,38.36133 3.488,57.25333 6.95067,32.89066 13.90134,65.78133 20.852,98.67333 2.68,12.67467 6.12934,26.844 3.54934,39.79067 -0.516,2.59066 -1.46667,5.12133 -2.70934,7.592 -3.99066,7.92933 -11.00933,15.24533 -16.472,21.96266 -12.66666,15.57867 -26.584,30.24267 -41.58799,43.82533 28.09733,-12.28933 54.35066,-28.81466 77.19999,-48.55733 2.14534,-1.85467 4.288,-3.79333 5.68667,-6.208"
       style="fill:#8a8aa2;fill-opacity:1;fill-rule:nonzero;stroke:none;stroke-width:0.133333" />
    <path
       id="path21"
       d="m 429.37199,101.67868 c -0.496,-13.801332 1.09467,-28.622665 7.37733,-41.245331 -6.92133,8.641333 -11.65733,18.843999 -13.70533,29.518666 -0.59467,3.096 -0.96533,6.224 -1.31733,9.353333 -2.64534,23.524002 1.01866,45.180002 3.04,68.710662 1.44933,16.88267 -1.35467,35.67067 -5.524,52.216 -0.65867,2.61333 -1.404,5.208 -2.23067,7.77867 -10.01733,31.136 -19.50267,63.04133 -24.17733,95.34533 -4.12667,28.52133 -2.63867,57.768 2.95066,86.02133 4.404,22.27333 11.15334,44.31333 21.70134,64.65733 0.036,-1.89066 -0.0653,-3.8 -0.16134,-5.668 -1.21733,-23.52533 -2.03733,-49.64533 2.144,-72.90666 0.48667,-2.71334 1.968,-4.29334 4.02667,-5.24934 -1.92267,-7.92266 -3.80667,-15.88266 -5.60533,-23.904 -11.71867,-52.27066 13.86533,-111.99333 17.864,-164.43066 1.22666,-16.09066 0.93733,-32.24533 0.19466,-48.352 -0.73866,-16.06933 -5.30933,-31.67066 -6.36933,-47.76 -0.0893,-1.35866 -0.16,-2.72133 -0.208,-4.08533"
       style="fill:#62627c;fill-opacity:1;fill-rule:nonzero;stroke:none;stroke-width:0.133333" />
    <path
       id="path22"
       d="m 298.56933,149.84935 c -0.60934,-4.772 -10.548,-6.33734 -14.452,-6.10134 -7.85867,0.47467 -13.74,4.95734 -16.41067,11.72667 -3.508,8.88933 -7.016,17.77733 -10.52267,26.66667 -8.73733,22.14133 -17.688,44.65199 -32.92,63.36666 -10.10533,12.41333 -22.77066,23.39067 -35.88933,32.89467 -0.488,0.352 -0.96533,0.668 -1.43866,0.96933 -0.49467,0.532 -1.00667,1.012 -1.54934,1.38267 -4.784,3.27066 -9.72,5.52666 -14.42133,8.91866 -8.596,6.20134 -9.86267,6.64934 -15.692,11.288 -1.55333,1.236 -3.476,4.30267 -4.696,5.864 -1.38667,1.77467 -1.93467,4.07334 -2.41333,6.20267 -0.76667,3.42133 -0.96534,6.92667 -0.996,10.416 l -0.008,0.35733 c 1.816,3.99067 10.152,4.68 13.81733,4.31467 13.116,-1.30667 26.308,-1.61867 39.38266,-3.63867 18.16134,-2.80666 23.31734,-15.91333 25.952,-31.76133 3.23067,-19.43867 11.224,-38.072 21.236,-55.41333 15.72,-27.22533 33.07334,-53.91467 49.008,-81.228 1.12934,-1.932 2.29467,-4.03333 2.01334,-6.22533"
       style="fill:#8a8aa2;fill-opacity:1;fill-rule:nonzero;stroke:none;stroke-width:0.133333" />
    <path
       id="path23"
       d="m 398.07999,136.83868 c -14.96667,-11.87867 -35.46,-30.90267 -55.41867,-33.48133 -20.14933,-2.6 -39.39599,-0.20134 -58.01866,4.848 -22.01333,5.97066 -43.152,15.64533 -63.87067,25.148 -0.48666,0.81466 -0.96533,1.63066 -1.43066,2.45333 -6.14667,10.85333 -10.328,22.46133 -10.60667,34.82667 -0.14,6.14666 0.78133,12.26933 1.84267,18.33733 1.20666,6.87867 6.408,12.96133 6.55066,20 0.16,7.89466 -5.456,14.64533 -9.80666,20.80533 -2.704,3.82933 -4.404,7.92533 -5.784,12.12133 0.656,-0.228 1.31333,-0.46 1.964,-0.70533 7.472,-2.812 14.40266,-6.75467 21.29466,-10.68 5.696,-3.244 11.50667,-6.58 15.75067,-11.428 3.79867,-4.33867 6.11867,-9.64 8.38667,-14.85333 4.03066,-9.272 8.728,-18.504 12.17066,-27.98267 3.58934,-9.88133 8.692,-19.13866 20.48934,-20.14533 10.64266,-0.90533 17.436,0.876 24.60266,8.89867 7.08934,7.93466 11.48534,16.23866 14.56134,26.04 0.58666,1.87066 1.33866,3.89733 3.10933,4.88933 2.30933,1.29467 5.24267,0.272 7.65867,-0.83467 10.70399,-4.89733 19.94399,-11.03066 31.22133,-14.856 11.20933,-3.80266 22.71866,-6.73733 34.244,-9.53733 4.012,-0.97467 8.33733,-1.26133 11.83733,-3.36 11.48,-6.88667 -4.81733,-25.79867 -10.748,-30.504"
       style="fill:#2d2d51;fill-opacity:1;fill-rule:nonzero;stroke:none;stroke-width:0.133333" />
    <path
       id="path24"
       d="m 429.33999,357.75734 c -5.92533,-34.38 -3.14267,-68.31866 5.22533,-102.05733 8.43334,-33.99867 9.75334,-72.04 5.66534,-106.79333 -2.77467,-23.59467 -16.49334,-70.533332 3.38533,-89.945331 0.38,-0.370667 0.78,-0.745333 1.18533,-1.121333 -2.10266,-0.052 -4.25333,-0.076 -5.87866,-1.085334 -14.648,17.948 -14.704,42.994666 -12.49734,66.027998 2.38267,24.88267 8.51867,49.74133 5.75067,74.588 -1.50667,13.51467 -5.61733,26.62933 -8.54267,39.93333 -8.64533,39.30133 -13.72666,79.31067 -14.89066,119.472 -0.232,8.03066 -0.37067,19.43733 4.16266,26.61866 2.15467,3.41467 5.73734,5.67867 9.612,7.352 5.19734,-3.308 15.49067,-1.01333 21.832,-4.09466 6.35467,-3.08667 11.896,-8.29334 15.12134,-14.46934 -13.02934,2.85467 -27.724,-0.46933 -30.13067,-14.42533"
       style="fill:#2d2d51;fill-opacity:1;fill-rule:nonzero;stroke:none;stroke-width:0.133333" />
    <path
       id="path25"
       d="m 228.25733,423.15067 c -15.88934,0.772 -31.82,0.74 -47.68267,1.97467 -14.592,1.13733 -25.12533,0.204 -33.968,1.56267 0.79467,2.456 1.58934,4.91066 2.384,7.36666 1.89734,5.86267 0.26,11.82534 0.0387,17.83334 -0.368,9.984 -0.944,19.992 -2.928,29.82266 -3.80667,18.86 -7.94533,37.076 -15.48987,54.996 -2.60306,6.184 -5.52706,12.912 -3.49266,19.284 1.82386,5.71067 7.4012,9.77733 13.3812,11.62667 2.81733,0.87066 5.74533,1.48 8.73866,1.92266 3.972,-20.648 9.96267,-40.82933 20.77067,-59.54533 9.31067,-16.124 24,-29.95733 40.71333,-39.18 12.17333,-6.71733 25.56667,-11.77733 36.42,-20.47066 11.22133,-8.988 18.95867,-21.40267 25.76267,-33.608 -15.53334,3.04666 -30.26,5.71466 -44.648,6.41466"
       style="fill:#494968;fill-opacity:1;fill-rule:nonzero;stroke:none;stroke-width:0.133333" />
    <path
       id="path26"
       d="m 398.07999,136.83868 c -14.96667,-11.87867 -35.46,-30.90267 -55.41867,-33.48133 -20.14933,-2.6 -39.39599,-0.20134 -58.01866,4.848 -22.01333,5.97066 -43.152,15.64533 -63.87067,25.148 -0.48666,0.81466 -0.96533,1.63066 -1.43066,2.45333 -6.14667,10.85333 -10.328,22.46133 -10.60667,34.82667 -0.0893,3.90133 0.25067,7.79333 0.78133,11.66666 3.388,-2.384 6.77467,-4.76933 10.16134,-7.15333 5.91733,-4.16667 12.79866,-8.14533 20.49466,-5.312 8.96,3.3 11.60534,16.796 12.12534,26.90533 3.10666,-6.77333 6.292,-13.56666 8.80666,-20.492 1.82667,-5.02666 4.77867,-9.22 7.092,-13.95733 2.57467,-5.27467 5.01867,-10.684 7.67867,-15.96133 2.91067,-5.77734 8.116,-8.908 14.604,-10.24134 10.92133,-2.24266 24.044,0.48267 32.96533,6.796 4.61734,3.268 9.23467,6.53734 13.852,9.80534 1.68533,-3.60267 3.40533,-7.26 6.08933,-10.26934 9,-10.092 23.228,-2.98 31.73734,4.172 8.69066,7.304 16.82933,15.196 24.36,23.58 3.256,-0.63466 6.56133,-1.16 9.34533,-2.82933 11.48,-6.88667 -4.81733,-25.79867 -10.748,-30.504"
       style="fill:#07073d;fill-opacity:1;fill-rule:nonzero;stroke:none;stroke-width:0.133333" />
    <path
       id="path27"
       d="m 271.68799,355.58134 c 4.91867,-3.412 9.17067,-7.71333 11.72934,-12.92666 1.28,-2.608 1.72666,-6.40267 -0.964,-7.73067 -0.86,-0.424 -1.864,-0.472 -2.832,-0.512 -17.44267,-0.712 -32.80667,5.168 -49.91067,6.52 -7.16267,0.45333 -58.72933,1.33733 -80.83066,-2.756 1.228,3.34533 3.05466,6.472 5.69333,9.04 1.16,1.12933 2.24,2.26133 3.588,3.19066 0.32133,0.22134 0.64667,0.44667 0.90133,0.736 1.712,1.93867 0.724,6.23867 0.59334,8.488 -0.20534,3.52934 -0.52,7.05467 -0.94,10.568 -0.63867,5.34667 -2.54134,10.476 -4.55734,15.476 -0.99066,2.45734 -2.02533,4.9 -3.03066,7.35334 -0.716,1.74533 -2.86934,4.332 -2.86,6.17466 0.003,0.496 0.19333,0.97067 0.39066,1.42934 1.26,2.94533 3.36,5.08133 4.78267,7.84666 0.16133,0.312 0.30533,0.64534 0.29733,0.99334 -0.0107,0.42933 -0.25066,0.81866 -0.484,1.18666 -1.98933,3.14 -4.32533,5.92934 -6.31733,9.076 -0.504,0.79734 -1.01867,1.61867 -1.18133,2.536 -0.2,1.13467 0.16,2.284 0.516,3.38267 0.83866,2.59333 1.67733,5.18667 2.51733,7.78 2.44133,-0.69467 4.33333,-1.25733 5.03467,-1.42133 8.02133,-1.87867 16.356,-3.35334 24.16266,-5.948 7.044,-2.34134 12.74667,-6.144 20.58934,-6.448 0.53333,-0.02 1.09466,-0.036 1.55466,-0.29467 1.012,-0.56933 1.012,-1.93467 0.89733,-3.04533 -0.89733,-8.688 -4.05999,-25.53067 0.0373,-33.61734 3.32,-6.55466 20.36933,-7.664 27.31466,-9.412 14.57067,-3.66933 27.00134,-7.96 39.93867,-15.52 1.14933,-0.67066 2.276,-1.38533 3.36933,-2.14533"
       style="fill:#2d2d51;fill-opacity:1;fill-rule:nonzero;stroke:none;stroke-width:0.133333" />
    <path
       id="path28"
       d="m 254.84266,399.78001 c -12.788,-5.67734 -26.79867,-8.236 -40.52,-11.04534 -5.64133,-1.156 -11.40667,-1.74933 -17.172,-1.884 -14.004,-0.328 -28.54,0.72934 -41.196,6.78534 -2.628,1.25733 -5.14533,2.75333 -7.47333,4.468 -0.12533,0.38266 -0.21467,0.756 -0.21333,1.09866 0.003,0.496 0.19333,0.97067 0.39066,1.42934 1.26,2.94533 3.36,5.08133 4.78267,7.84666 0.16133,0.312 0.30533,0.64534 0.29733,0.99334 l -0.044,0.29866 c 6.54,-1.19866 13.08,-2.39733 19.62134,-3.596 6.26133,-1.148 12.6,-1.89866 18.95733,-2.35866 22.24933,-1.60934 44.26266,-2.75734 66.57333,-0.67867 -0.53733,-1.66533 -2.34,-2.61867 -4.004,-3.35733"
       style="fill:#07073d;fill-opacity:1;fill-rule:nonzero;stroke:none;stroke-width:0.133333" />
    <path
       id="path29"
       d="m 284.74533,334.80001 c -2.39734,-5.344 -13.89467,-9.164 -19.124,-11.48533 -8.188,-3.636 -16.79334,-6.344 -25.36534,-9.02667 -9.164,-2.86933 -15.22666,-5.49067 -25.10533,-4.73067 -1.66667,0.128 -3.32533,0.308 -4.984,0.504 -4.22933,1.024 -26.78266,4.12534 -31.84,4.484 -3.23733,0.23067 -18.83466,-0.32133 -22.90133,-1.57733 -2.29067,-0.49733 -4.55467,-1.10267 -6.78933,-1.81467 -0.17334,0.628 -0.33334,1.256 -0.47067,1.87467 -0.768,3.42133 -0.96667,6.92667 -0.99733,10.416 -0.0293,3.26133 -0.28934,6.676 0.34933,9.89467 1.01733,5.124 3.17333,10.09866 7.056,13.87733 1.16,1.12933 2.24,2.26133 3.588,3.19066 0.32133,0.22134 0.64667,0.44667 0.90133,0.736 0.136,0.15334 0.228,0.344 0.33067,0.52667 3.54533,0.57333 6.60267,1.08 6.7,1.33333 1.196,3.116 3.988,7.06534 6.96667,9.052 2.22,1.48134 5.07066,1.74 7.776,1.952 8.23066,0.64267 18.98266,-0.12666 27.17599,-1.51333 15.904,-2.69333 25.488,-12.56667 41.93867,-12.22933 6.08133,0.12533 12.284,0.79066 18.164,-0.68934 6.02267,-1.51466 20.05867,-7.13599 16.63067,-14.77466"
       style="fill:#07073d;fill-opacity:1;fill-rule:nonzero;stroke:none;stroke-width:0.133333" />
    <path
       id="path30"
       d="m 272.90533,416.73601 c -8.58934,-2.744 -17.74134,-3.40134 -26.78,-4.03734 -11.17734,-0.788 -25.32667,-0.33466 -36.47467,0.40667 -22.308,1.484 -42.91333,3.55067 -63.71466,8.50667 -0.0787,0.21466 -0.14,0.43333 -0.18,0.65866 -0.2,1.13467 0.16,2.284 0.516,3.38267 0.90533,2.80133 1.812,5.60133 2.71866,8.40133 0.33334,1.032 0.55334,2.068 0.696,3.10534 9.75734,1.232 19.66267,1.248 29.46667,0.51466 9.272,-0.69466 18.428,-1.832 27.66933,-2.54933 23.072,-1.79067 46.40667,-6.55467 66.08267,-18.38933"
       style="fill:#07073d;fill-opacity:1;fill-rule:nonzero;stroke:none;stroke-width:0.133333" />
    <path
       id="path31"
       d="m 240.70933,390.04134 c 1.156,0.29867 2.31333,0.59867 3.47066,0.89733 7.608,1.968 14.57734,4.82667 21.952,7.5 0.80534,0.296 1.75867,0.58 2.488,0.14134 0.35067,-0.212 0.584,-0.56 0.776,-0.91067 7.17734,-13.084 -11.256,-20.76 -21.584,-21.94667 -8.06666,-0.928 -16.57066,-0.63866 -24.456,1.26534 -2.556,0.61866 -6.34533,1.83866 -8.532,3.30266 -0.95333,0.63867 -1.59333,1.84267 -1.172,2.87467 0.392,0.95733 1.50934,1.43733 2.54667,1.732 7.79867,2.21067 16.46533,3.06267 24.51067,5.144"
       style="fill:#8a8aa2;fill-opacity:1;fill-rule:nonzero;stroke:none;stroke-width:0.133333" />
    <path
       id="path32"
       d="m 269.03733,411.58267 c 1.068,-1.4 0.54133,-3.01333 -1.30534,-4.14933 -1.11466,-0.68533 -2.42933,-1.00533 -3.72266,-1.29333 -11.79467,-2.63067 -23.65334,-3.05734 -35.7,-2.44534 -2.76267,0.14134 -5.452,0.112 -8.03067,1.228 -1.37333,0.59467 -2.77733,1.84267 -2.39067,3.228 0.83734,3.004 6.90267,2.144 9.16534,2.18934 4.12533,0.08 8.248,0.232 12.36666,0.45866 8.12267,0.444 16.228,1.172 24.29467,2.18134 1.51067,0.188 3.20133,0.34533 4.412,-0.532 0.37867,-0.27334 0.68133,-0.564 0.91067,-0.86534"
       style="fill:#a5a5bb;fill-opacity:1;fill-rule:nonzero;stroke:none;stroke-width:0.133333" />
    <path
       id="path33"
       d="m 244.52133,383.20001 c 0.54533,0.11333 1.09066,0.236 1.636,0.372 4.70666,1.18266 9.51333,2.40666 13.54133,5.00133 1.90133,1.22533 3.72933,3.024 3.68,5.20267 -0.005,0.24133 -0.04,0.49333 -0.18667,0.68933 -0.37733,0.50533 -1.192,0.356 -1.808,0.15467 -7.42666,-2.44534 -14.75466,-4.51467 -22.30266,-6.516 0,-0.26267 -5.956,-1.57867 -6.55734,-1.73734 -1.38133,-0.36533 -4.16133,-1.23466 -3.94,-3.14266 0.0973,-0.83467 1.09734,-1.26134 1.96134,-1.44534 2.668,-0.56933 5.352,-0.288 7.98933,0.28134 2.012,0.43333 4,0.72666 5.98667,1.14"
       style="fill:#a5a5bb;fill-opacity:1;fill-rule:nonzero;stroke:none;stroke-width:0.133333" />
    <path
       id="path34"
       d="m 203.25199,307.49201 c 7.08134,-1.46533 22.576,-12.12133 9.47734,-16.83333 -9.61334,-3.45734 -20.89867,-1.04267 -30.292,1.904 -5.83733,1.832 -13.98,3.80933 -18.45733,7.98933 -8.61467,8.04667 5.64,9.93733 12.33066,9.45867 7.09467,-0.50667 18.056,-0.684 26.94133,-2.51867"
       style="fill:#a5a5bb;fill-opacity:1;fill-rule:nonzero;stroke:none;stroke-width:0.133333" />
    <path
       id="path35"
       d="m 374.73866,89.722681 c -2.80534,4.354667 -7.748,9.906667 -8.38134,15.129329 -0.052,0.42534 -0.0747,0.86934 0.076,1.272 0.16134,0.43334 0.508,0.772 0.84667,1.09334 3.20667,3.03733 6.67333,5.816 10.352,8.292 0.556,0.37466 1.13467,0.75066 1.79733,0.89066 3.89734,0.82267 9.39467,-7.444 11.43467,-9.92133 3.62933,-4.40533 6.84533,-9.118665 9.91467,-13.905332 10.33333,-16.113333 20,-32.881332 25.432,-51.121332 0.96133,-3.230667 2.156,-6.890667 0.86533,-10.169333 -0.94133,-2.392 -2.964,-4.350667 -5.41867,-5.249333 -1.704,-0.622667 -17.63466,23.061332 -19.68666,25.441332 -6.78134,7.868 -12.54534,16.842667 -18.532,25.34 -2.99067,4.244 -5.89067,8.546666 -8.7,12.907999"
       style="fill:#a5a5bb;fill-opacity:1;fill-rule:nonzero;stroke:none;stroke-width:0.133333" />
    <path
       id="path36"
       d="m 419.51199,568.18534 c -2.084,2.84 -3.48267,5.664 -4.97733,8.804 -4.19467,8.816 -6.82267,18.18533 -9.63734,27.45066 -13.00666,42.81333 -15.884,88.13187 -10.612,132.11467 7.37334,-1.288 14.46134,-4.04427 20.63734,-8.0776 7.67866,-5.0156 14.91333,-10.4396 21.80933,-16.18387 -5.804,-13.47347 -7.92267,-30.53173 -9.88667,-43.8052 -0.676,-4.56667 -1.22666,-9.16 -1.64933,-13.768 -2.98533,-32.592 0.476,-65.97066 11.91467,-96.856 0.89866,-2.42666 1.87333,-4.884 3.58133,-6.88 -3.728,1.42534 -7.52133,2.88934 -10.616,5.31867 -4.25467,3.33733 -7.416,7.59467 -10.564,11.88267"
       style="fill:#8a8aa2;fill-opacity:1;fill-rule:nonzero;stroke:none;stroke-width:0.133333" />
    <path
       id="path37"
       d="m 403.69066,644.41867 c 0.82666,-11.54534 2.56933,-23.02934 5.23066,-34.32267 2.004,-8.5 4.52,-16.888 7.48667,-25.12933 1.49867,-4.16533 3.11067,-8.29467 4.82267,-12.384 2.05866,-4.92133 4.088,-9.68667 6.484,-14.25067 -5.20934,4.09867 -9.30534,8.564 -13.15734,13.83867 -5.55466,7.608 -10.34933,15.58667 -14.704,23.88133 -7.67333,14.616 -12.26266,29.84933 -16.65066,45.548 -4.576,16.37067 -9.00667,31.924 -10.86934,49.10413 -1.75333,16.16774 -2.43466,32.412 -2.95466,48.6532 5.29466,-1.6188 10.47066,-1.77093 17.23333,-2 7.01333,-0.23853 13.964,-1.82666 20.34267,-4.59906 -0.13867,-0.84467 -0.268,-1.6916 -0.396,-2.53854 -4.08534,-26.95306 -5.12534,-52.35573 -3.3,-79.58773 0.13866,-2.072 0.284,-4.144 0.432,-6.21333"
       style="fill:#494968;fill-opacity:1;fill-rule:nonzero;stroke:none;stroke-width:0.133333" />
    <path
       id="path38"
       d="m 1361.21,2025.87 h 1125.74 v 963.219 H 1361.21 Z"
       style="fill:#807f94;fill-opacity:1;fill-rule:nonzero;stroke:none"
       transform="matrix(0.13333333,0,0,-0.13333333,0,813.33333)"
       clip-path="url(#clipPath39)" />
    <path
       id="path40"
       d="m 255.91333,268.58134 c -0.188,0.036 -0.872,-1.58933 -1.036,-1.816 -0.43067,-0.59866 -0.91734,-1.12 -1.44934,-1.556 -0.972,-0.79333 -1.85866,-1.69733 -2.84133,-2.48933 -2.25067,-1.81867 -4.62,-3.416 -7.112,-4.74 -5.06533,-2.692 -10.62533,-4.19467 -16.47333,-4.644 -0.46267,0.0907 -0.28,1.09067 0.096,1.30133 5.208,2.812 10.34,5.808 15.50533,8.716 3.41867,1.924 6.98133,3.484 10.668,4.816 0.83067,0.3 1.688,0.59334 2.64267,0.412"
       style="fill:#494968;fill-opacity:1;fill-rule:nonzero;stroke:none;stroke-width:0.133333" />
    <path
       id="path41"
       d="m 239.37866,265.65068 c 5.02,2.11066 10.55867,2.828 16.20933,2.95333 -4.812,-2.30667 -9.624,-4.612 -14.436,-6.91733 -2.35866,-1.13067 -4.71733,-2.26 -7.076,-3.39067 -2.29333,-1.09867 -4.66933,-2.86 -7.16266,-3.33067 2.972,5.312 7.64666,8.66 12.46533,10.68534"
       style="fill:#a5a5bb;fill-opacity:1;fill-rule:nonzero;stroke:none;stroke-width:0.133333" />
    <path
       id="path42"
       d="m 234.64266,706.8588 c -0.22267,0.0131 -1.12,-1.72813 -1.32667,-1.98173 -0.54666,-0.664 -1.15333,-1.25734 -1.81066,-1.7692 -1.20134,-0.93334 -2.308,-1.96667 -3.52134,-2.9 -2.78133,-2.1412 -5.69466,-4.07294 -8.74133,-5.7428 -6.19467,-3.39427 -12.92267,-5.64374 -19.94533,-6.8572 -0.54933,0.0333 -0.28133,1.07333 0.17733,1.33586 6.372,3.536 12.65867,7.24694 18.984,10.87507 4.184,2.39733 8.52533,4.44627 13.00133,6.27853 1.00934,0.41307 2.04934,0.8224 3.18267,0.76147"
       style="fill:#07073d;fill-opacity:1;fill-rule:nonzero;stroke:none;stroke-width:0.133333" />
    <path
       id="path43"
       d="m 214.70933,701.73747 c 6.11066,2.79586 12.776,4.24373 19.54533,5.10266 -5.872,-2.96826 -11.74267,-5.93746 -17.61467,-8.9068 -2.87866,-1.4536 -5.756,-2.90933 -8.63466,-4.364 -2.79734,-1.41466 -5.72667,-3.5136 -8.73467,-4.31466 3.816,5.78653 9.572,9.7984 15.43867,12.4828"
       style="fill:#797991;fill-opacity:1;fill-rule:nonzero;stroke:none;stroke-width:0.133333" />
    <path
       id="path44"
       d="m 395.14266,486.8 c -0.27467,-0.0107 -1.56534,-1.92133 -1.848,-2.20533 -0.744,-0.75067 -1.556,-1.43333 -2.424,-2.03467 -1.584,-1.1 -3.06,-2.29333 -4.65867,-3.39333 -3.664,-2.52266 -7.47067,-4.84133 -11.416,-6.89866 -8.02,-4.18267 -16.58133,-7.22534 -25.4,-9.216 -0.67867,-0.0227 -0.24,1.09066 0.356,1.41333 8.25467,4.34933 16.42133,8.87333 24.62533,13.31333 5.428,2.93733 11.01334,5.524 16.74534,7.89867 1.292,0.536 2.62133,1.06933 4.02,1.12266"
       style="fill:#494968;fill-opacity:1;fill-rule:nonzero;stroke:none;stroke-width:0.133333" />
    <path
       id="path45"
       d="m 369.93332,479.39734 c 7.85334,3.54933 16.256,5.74933 24.72667,7.34266 -7.576,-3.70533 -15.152,-7.41066 -22.728,-11.11599 -3.71333,-1.816 -7.42667,-3.63334 -11.14133,-5.44934 -3.60934,-1.76533 -7.45334,-4.25866 -11.25867,-5.40666 5.32133,6.43866 12.86133,11.22133 20.40133,14.62933"
       style="fill:#a5a5bb;fill-opacity:1;fill-rule:nonzero;stroke:none;stroke-width:0.133333" />
    <path
       id="path46"
       d="m 224.59066,523.11734 c -0.21067,0.0707 -1.54533,-1.36934 -1.81467,-1.55734 -0.70533,-0.49466 -1.45066,-0.90666 -2.22533,-1.224 -1.412,-0.58133 -2.75867,-1.284 -4.18267,-1.86133 -3.26533,-1.324 -6.6,-2.412 -9.996,-3.212 -6.90133,-1.62533 -14.01199,-2.00533 -21.12933,-1.308 -0.524,0.176 0.0133,1.108 0.52934,1.24 7.11066,1.71333 14.18666,3.62133 21.27599,5.436 4.692,1.20133 9.43867,2.02267 14.26,2.59867 1.08667,0.13066 2.20267,0.248 3.28267,-0.112"
       style="fill:#494968;fill-opacity:1;fill-rule:nonzero;stroke:none;stroke-width:0.133333" />
    <path
       id="path47"
       d="m 203.93599,523.47867 c 6.66,1.07067 13.496,0.696 20.27467,-0.276 -6.476,-1.30133 -12.95067,-2.60267 -19.42533,-3.904 -3.17467,-0.63733 -6.34933,-1.276 -9.52267,-1.91333 -3.08533,-0.62 -6.48133,-1.864 -9.604,-1.83734 5.24,4.56534 11.88267,6.90267 18.27733,7.93067"
       style="fill:#a5a5bb;fill-opacity:1;fill-rule:nonzero;stroke:none;stroke-width:0.133333" />
    <path
       id="path48"
       d="m 355.19066,301.23201 c -0.17867,0.208 -2.476,0.0253 -2.876,0.0693 -1.05067,0.11334 -2.09067,0.32267 -3.10134,0.62667 -1.848,0.55333 -3.70133,0.96267 -5.55866,1.52667 -4.256,1.292 -8.44134,2.82266 -12.51067,4.624 -8.27066,3.66133 -15.988,8.46 -23.04133,14.11333 -0.44133,0.51467 0.70267,0.868 1.32667,0.60133 8.54533,-3.74133 17.17466,-7.30533 25.76133,-10.952 5.68133,-2.412 11.18666,-5.16666 16.616,-8.16666 1.22533,-0.676 2.47066,-1.384 3.384,-2.44267"
       style="fill:#393954;fill-opacity:1;fill-rule:nonzero;stroke:none;stroke-width:0.133333" />
    <path
       id="path49"
       d="m 333.68666,316.32534 c 7.67066,-3.92666 14.62933,-9.12533 21.156,-14.75333 -7.62,3.61333 -15.24,7.22533 -22.86133,10.83867 -3.73467,1.77066 -7.47067,3.54133 -11.20667,5.312 -3.63067,1.72133 -7.976,3.172 -11.24667,5.432 8.352,-0.144 16.792,-3.05867 24.15867,-6.82934"
       style="fill:#a5a5bb;fill-opacity:1;fill-rule:nonzero;stroke:none;stroke-width:0.133333" />
    <path
       id="path50"
       d="m 352.64132,661.556 c -5.364,4.484 -7.564,8.90933 -14.96666,9.49733 -5.89867,0.46934 -12.90667,0.016 -18.47733,-2.15733 3.92,1.53067 8.36533,5.63867 12.08933,7.90267 3.996,2.43066 -5.024,10.944 -6.712,13.28773 -3.28,4.55627 -8.064,10.2896 -9.75067,15.6964 -0.25733,0.82133 1.25334,0.65987 1.84934,0.0369 8.09733,-8.64373 16.38,-17.1224 24.57333,-25.676 5.42,-5.65973 10.464,-11.62906 15.29733,-17.84773 1.08933,-1.404 2.19067,-2.852 2.72533,-4.54533 -0.10533,0.332 -2.87733,1.27066 -3.32133,1.52 -1.16933,0.65866 -2.27733,1.42533 -3.30667,2.28533"
       style="fill:#494968;fill-opacity:1;fill-rule:nonzero;stroke:none;stroke-width:0.133333" />
    <path
       id="path51"
       d="m 341.73599,686.12813 c 6.984,-8.42146 12.5,-17.97213 17.29733,-27.8068 -7.08133,8.03067 -14.164,16.06134 -21.24666,24.09227 -3.47067,3.93693 -6.94267,7.8728 -10.41467,11.8088 -3.37466,3.82707 -7.71866,7.6964 -10.40266,11.96973 9.672,-4.35093 18.05999,-11.976 24.76666,-20.064"
       style="fill:#a5a5bb;fill-opacity:1;fill-rule:nonzero;stroke:none;stroke-width:0.133333" />
    <path
       id="path52"
       d="m 368.54266,341.62401 c 3.99466,-4.31333 11.44266,-6.34933 12.776,1.148 1.34666,7.56666 -7.45067,13.43466 -13.376,8.32933 -3.18267,-2.74933 -2.05067,-6.61466 0.6,-9.47733"
       style="fill:#62627c;fill-opacity:1;fill-rule:nonzero;stroke:none;stroke-width:0.133333" />
    <path
       id="path53"
       d="m 396.49999,564.78934 c -3.384,-3.79867 -4.29733,-10.048 2.604,-10.08267 6.964,-0.036 11.15467,7.82533 5.83733,11.87067 -2.86266,2.172 -6.196,0.732 -8.44133,-1.788"
       style="fill:#62627c;fill-opacity:1;fill-rule:nonzero;stroke:none;stroke-width:0.133333" />
    <path
       id="path54"
       d="m 285.28533,759.06506 c -3.384,-3.7984 -4.296,-10.04786 2.604,-10.08226 6.964,-0.0359 11.15466,7.82506 5.83733,11.87026 -2.86133,2.1724 -6.196,0.7324 -8.44133,-1.788"
       style="fill:#62627c;fill-opacity:1;fill-rule:nonzero;stroke:none;stroke-width:0.133333" />
    <path
       id="path55"
       d="m 435.73866,282.38934 c -2.26267,-5.55333 -1.13467,-10.24933 6.06533,-3.68666 7.26667,6.624 9.02,15.432 2.13467,12.83466 -3.704,-1.40266 -6.69734,-5.464 -8.2,-9.148"
       style="fill:#62627c;fill-opacity:1;fill-rule:nonzero;stroke:none;stroke-width:0.133333" />
    <path
       id="path56"
       d="m 282.34266,466.79734 c -6.288,1.12133 -10.56933,-0.79333 -1.596,-6.37467 9.05733,-5.63466 18.40667,-5.68266 13.48,0.32134 -2.65467,3.23066 -7.71067,5.30933 -11.884,6.05333"
       style="fill:#62627c;fill-opacity:1;fill-rule:nonzero;stroke:none;stroke-width:0.133333" />
    <path
       id="path57"
       d="m 158.04666,758.79066 c -4.38933,0 -6.85866,-2.57186 -1.23466,-8.18133 3.47066,-3.45987 7.62666,-5.23226 10.62,-5.23226 3.02666,0 4.86533,1.81093 3.60933,5.52026 -1.34933,3.96933 -5.71467,6.55053 -9.74667,7.49173 -1.13466,0.2656 -2.24266,0.4016 -3.248,0.4016"
       style="fill:#70708b;fill-opacity:1;fill-rule:nonzero;stroke:none;stroke-width:0.133333" />
    <path
       id="path58"
       d="m 322.66933,85.606682 c -1.984,4.909333 -7.01734,8.147999 -9.66267,0.990666 -2.67067,-7.224 2.50533,-14.459999 8.00133,-10.417333 2.95467,2.177333 2.97867,6.169333 1.66134,9.426667"
       style="fill:#8a8aa2;fill-opacity:1;fill-rule:nonzero;stroke:none;stroke-width:0.133333" />
    <path
       id="path59"
       d="m 274.48133,241.36268 c -4.696,1.28666 -8.67467,-0.24667 -3.13867,-5.66934 5.58667,-5.472 13.03867,-5.92933 10.86,-0.30533 -1.176,3.02533 -4.60667,5.12 -7.72133,5.97467"
       style="fill:#8a8aa2;fill-opacity:1;fill-rule:nonzero;stroke:none;stroke-width:0.133333" />
    <path
       id="path60"
       d="m 457.29999,635.99333 c -1.10133,5.30134 -5.584,9.49334 -9.56533,2.80134 -4.02,-6.75467 -0.128,-14.988 6.15733,-11.95734 3.38,1.636 4.13867,5.64 3.408,9.156"
       style="fill:#8a8aa2;fill-opacity:1;fill-rule:nonzero;stroke:none;stroke-width:0.133333" />
    <path
       id="path61"
       d="m 352.42799,56.392016 c 0.72,0.656 1.63733,1.374666 2.94,1.609333 0.912,0.164 1.78667,0.04267 2.57467,-0.1 9.91866,-1.792 15.90933,-6.508 21.45066,-11.036 -7.108,2.798667 -14.00533,6.336 -23.86133,6.196 -3.196,-2.130667 -6.33867,-4.644 -10.02,-6.522666 -2.16,1.718666 4.608,7.754666 6.916,9.853333"
       style="fill:#a5a5bb;fill-opacity:1;fill-rule:nonzero;stroke:none;stroke-width:0.133333" />
    <path
       id="path62"
       d="m 353.43999,53.337349 c 2.31733,1.508 5.70267,1.472 8.32133,1.138667 3.05334,-0.388 4.52267,-1.328 6.95067,-2.153334 2.80267,-0.950666 4.96133,-2.265333 7.62133,-3.294666 3.788,-1.462667 7.18667,-3.189333 10.69867,-4.824 -5.00133,0.601333 -9.752,1.501333 -14.16267,2.677333 -4.22133,1.125333 -7.79333,3.476 -12.13333,4.334667 -3.50267,0.692 -6.72133,-0.746667 -9.532,-2.278667 -1.18267,-0.644 -2.432,-1.272 -3.564,-1.958667 -0.47467,-0.288 -3.38267,-1.718666 -3.45467,-1.942666 0.49334,1.541333 1.93334,3.201333 4.07734,4.498666 2.004,1.212 3.24933,2.546667 5.17733,3.802667"
       style="fill:#494968;fill-opacity:1;fill-rule:nonzero;stroke:none;stroke-width:0.133333" />
  </g>
</svg>
