<?xml version="1.0" encoding="UTF-8" standalone="no"?>
<!-- Created with Inkscape (http://www.inkscape.org/) -->

<svg
   width="65mm"
   height="50mm"
   viewBox="0 0 65 50"
   version="1.1"
   id="svg1"
   inkscape:version="1.4 (86a8ad7, 2024-10-11)"
   sodipodi:docname="excavator-dark.svg"
   xmlns:inkscape="http://www.inkscape.org/namespaces/inkscape"
   xmlns:sodipodi="http://sodipodi.sourceforge.net/DTD/sodipodi-0.dtd"
   xmlns="http://www.w3.org/2000/svg"
   xmlns:svg="http://www.w3.org/2000/svg">
  <sodipodi:namedview
     id="namedview1"
     pagecolor="#ffffff"
     bordercolor="#000000"
     borderopacity="0.25"
     inkscape:showpageshadow="2"
     inkscape:pageopacity="0.0"
     inkscape:pagecheckerboard="0"
     inkscape:deskcolor="#d1d1d1"
     inkscape:document-units="mm"
     inkscape:zoom="2.2263552"
     inkscape:cx="56.145578"
     inkscape:cy="150.69473"
     inkscape:window-width="1920"
     inkscape:window-height="1051"
     inkscape:window-x="-9"
     inkscape:window-y="-9"
     inkscape:window-maximized="1"
     inkscape:current-layer="layer1" />
  <defs
     id="defs1" />
  <g
     inkscape:label="Capa 1"
     inkscape:groupmode="layer"
     id="layer1">
    <g
       id="g1"
       transform="matrix(-1.9352966,0,0,1.9423968,68.98596,-1.1572843)">
      <path
         id="path253"
         d="m 25.788607,20.930005 h -5.517798 v 0.90452 h 5.517798 v -0.90452"
         style="fill:#000000;fill-opacity:1;fill-rule:nonzero;stroke:none;stroke-width:0.0352777" />
      <path
         id="path254"
         d="m 3.9961142,14.800845 -0.352425,-0.17815 1.458735,-2.882901 0.352425,0.178152 -1.458735,2.882899"
         style="fill:#000000;fill-opacity:1;fill-rule:nonzero;stroke:none;stroke-width:0.0352777" />
      <path
         id="path255"
         d="m 4.3570052,16.202785 h -0.863248 v -1.91029 h 0.863248 v 1.91029"
         style="fill:#000000;fill-opacity:1;fill-rule:nonzero;stroke:none;stroke-width:0.0352777" />
      <path
         id="path256"
         d="m 5.6725142,12.028365 -0.788107,-0.398992 2.712861,-5.3611618 0.788106,0.398637 -2.71286,5.3615168"
         style="fill:#000000;fill-opacity:1;fill-rule:nonzero;stroke:none;stroke-width:0.0352777" />
      <path
         id="path257"
         d="m 13.845316,3.9585735 0.456493,-0.756354 5.076473,3.0638747 -0.456493,0.756002 -5.076473,-3.0635227"
         style="fill:#000000;fill-opacity:1;fill-rule:nonzero;stroke:none;stroke-width:0.0352777" />
      <path
         id="path258"
         d="m 10.845647,1.9368045 0.269521,-0.446968 3.093508,1.867252 -0.269875,0.446616 -3.093154,-1.8669"
         style="fill:#000000;fill-opacity:1;fill-rule:nonzero;stroke:none;stroke-width:0.0352777" />
      <path
         id="path259"
         d="m 21.157692,18.076385 c 0,0 0,-4.4965 0,-5.339289 0,-1.425223 -0.834318,-3.0511748 -2.234493,-4.0146098 -1.400175,-0.963438 -6.435019,-3.01625 -7.246056,-3.452638 -0.877004,-0.471662 -1.103136,-0.7577667 -1.241425,-1.1793347 -0.130527,-0.397227 0.194733,-0.859367 0.553862,-0.7366 0.359479,0.122766 8.26135,2.7760077 9.545812,3.3612657 1.304925,0.594784 2.950988,2.960511 2.950988,5.2588588 0,1.887007 0,6.102347 0,6.102347 h -2.328688"
         style="fill:#000000;fill-opacity:1;fill-rule:nonzero;stroke:none;stroke-width:0.0352777" />
      <path
         id="path260"
         d="m 5.6481722,16.202785 c 0,0 4.8958498,-11.0264218 5.1244498,-11.5485325 0.228246,-0.521758 0.450144,-2.943579 0.450144,-3.365148 0,-0.42192296 -0.704144,-0.31855796 -0.979665,-0.159456 -0.2758708,0.159456 -1.8915938,2.1463 -2.0524598,2.52095 -0.160515,0.37465 -3.264959,11.7012865 -3.264959,12.0194865 0,0.31856 0.588786,0.5327 0.72249,0.5327"
         style="fill:#000000;fill-opacity:1;fill-rule:nonzero;stroke:none;stroke-width:0.0352777" />
      <path
         id="path261"
         d="m 5.8489012,21.582295 h -2.729794 v -6.08824 h 2.729794 v 6.08824"
         style="fill:#000000;fill-opacity:1;fill-rule:nonzero;stroke:none;stroke-width:0.0352777" />
      <path
         id="path262"
         d="m 4.9256822,24.901225 -0.568677,0.77611 -0.569031,-0.77611 v -3.31893 h 1.137708 v 3.31893"
         style="fill:#000000;fill-opacity:1;fill-rule:nonzero;stroke:none;stroke-width:0.0352777" />
      <path
         id="path263"
         d="m 34.192477,17.854485 c -0.14746,-0.66851 -0.739775,-1.14441 -1.424516,-1.14441 h -8.802862 v 4.21993 h 9.8044 c 0.26811,0 0.521758,-0.12171 0.689678,-0.3309 0.167924,-0.20885 0.23213,-0.48296 0.174274,-0.74472 l -0.440974,-1.9999"
         style="fill:#000000;fill-opacity:1;fill-rule:nonzero;stroke:none;stroke-width:0.0352777" />
      <path
         id="path264"
         d="m 16.732449,25.677335 c -1.098198,0 -1.991783,-0.89394 -1.991783,-1.99213 0,-1.09855 0.893585,-1.99214 1.991783,-1.99214 0.03528,-0.003 4.523317,-0.3182 6.017331,-0.3182 1.494367,0 5.982052,0.31538 6.027209,0.31855 h 7.93e-4 c 1.088321,0 1.981552,0.89359 1.981552,1.99179 0,1.09819 -0.893585,1.99213 -1.992135,1.99213 h -12.03466"
         style="fill:#000000;fill-opacity:1;fill-rule:nonzero;stroke:none;stroke-width:0.0352777" />
      <path
         id="path265"
         d="m 28.767109,25.394415 c 0.942271,0 1.709208,-0.76694 1.709208,-1.70921 0,-0.94227 -0.762,-1.70886 -1.699328,-1.70886 l -0.02045,-7.9e-4 c -0.04374,-0.003 -4.523316,-0.31785 -6.006745,-0.31785 -1.491192,0 -5.95348,0.31432 -5.994048,0.31714 l -0.01164,0.001 h -0.01164 c -0.942268,0 -1.708856,0.76694 -1.708856,1.70921 0,0.94227 0.766588,1.70921 1.708856,1.70921 h 12.034661"
         style="fill:#000000;fill-opacity:1;fill-rule:nonzero;stroke:none;stroke-width:0.0352777" />
      <path
         id="path266"
         d="m 18.441657,23.685205 c 0,-0.94404 -0.765175,-1.70921 -1.709208,-1.70921 -0.943682,0 -1.708857,0.76517 -1.708857,1.70921 0,0.94403 0.765175,1.70885 1.708857,1.70885 0.944033,0 1.709208,-0.76482 1.709208,-1.70885"
         style="fill:#000000;fill-opacity:1;fill-rule:nonzero;stroke:none;stroke-width:0.0352777" />
      <path
         id="path267"
         d="m 16.732449,24.666985 c -0.54116,0 -0.981782,-0.44062 -0.981782,-0.98178 0,-0.54152 0.440622,-0.98178 0.981782,-0.98178 0.541515,0 0.982133,0.44026 0.982133,0.98178 0,0.54116 -0.440618,0.98178 -0.982133,0.98178"
         style="fill:#000000;fill-opacity:1;fill-rule:nonzero;stroke:none;stroke-width:0.0352777" />
      <path
         id="path268"
         d="m 25.939949,22.332655 c 0,-0.27517 -0.222957,-0.49813 -0.498123,-0.49813 -0.274812,0 -0.497769,0.22296 -0.497769,0.49813 0,0.27481 0.222957,0.49777 0.497769,0.49777 0.275166,0 0.498123,-0.22296 0.498123,-0.49777"
         style="fill:#000000;fill-opacity:1;fill-rule:nonzero;stroke:none;stroke-width:0.0352777" />
      <path
         id="path269"
         d="m 25.929014,24.895585 c 0,-0.27517 -0.222957,-0.49812 -0.498124,-0.49812 -0.275166,0 -0.498123,0.22295 -0.498123,0.49812 0,0.27481 0.222957,0.49777 0.498123,0.49777 0.275167,0 0.498124,-0.22296 0.498124,-0.49777"
         style="fill:#000000;fill-opacity:1;fill-rule:nonzero;stroke:none;stroke-width:0.0352777" />
      <path
         id="path270"
         d="m 20.555855,24.895585 c 0,-0.27517 -0.222956,-0.49812 -0.498123,-0.49812 -0.274815,0 -0.497768,0.22295 -0.497768,0.49812 0,0.27481 0.222953,0.49777 0.497768,0.49777 0.275167,0 0.498123,-0.22296 0.498123,-0.49777"
         style="fill:#000000;fill-opacity:1;fill-rule:nonzero;stroke:none;stroke-width:0.0352777" />
      <path
         id="path271"
         d="m 19.559964,22.332655 c 0,-0.27517 0.222953,-0.49813 0.497768,-0.49813 0.275167,0 0.498123,0.22296 0.498123,0.49813 0,0.27481 -0.222956,0.49777 -0.498123,0.49777 -0.274815,0 -0.497768,-0.22296 -0.497768,-0.49777"
         style="fill:#000000;fill-opacity:1;fill-rule:nonzero;stroke:none;stroke-width:0.0352777" />
      <path
         id="path272"
         d="m 27.057901,23.685205 c 0,-0.94404 0.765175,-1.70921 1.709208,-1.70921 0.944033,0 1.709208,0.76517 1.709208,1.70921 0,0.94368 -0.765175,1.70885 -1.709208,1.70885 -0.944033,0 -1.709208,-0.76517 -1.709208,-1.70885"
         style="fill:#000000;fill-opacity:1;fill-rule:nonzero;stroke:none;stroke-width:0.0352777" />
      <path
         id="path273"
         d="m 28.767109,24.666985 c -0.541512,0 -0.981779,-0.44062 -0.981779,-0.98178 0,-0.54152 0.440267,-0.98178 0.981779,-0.98178 0.541515,0 0.981781,0.44026 0.981781,0.98178 0,0.54116 -0.440266,0.98178 -0.981781,0.98178"
         style="fill:#000000;fill-opacity:1;fill-rule:nonzero;stroke:none;stroke-width:0.0352777" />
      <path
         id="path274"
         d="M 28.976307,24.397465 H 16.523251 v -1.42488 h 12.453056 v 1.42488"
         style="fill:#000000;fill-opacity:1;fill-rule:nonzero;stroke:none;stroke-width:0.0352777" />
      <path
         id="path275"
         d="m 23.965099,20.930005 h -5.147382 c -0.488595,0 -0.884766,-0.39617 -0.884766,-0.88512 v -1.05939 c 0,-1.04281 -0.166159,-3.81494 1.104548,-5.34423 0.107598,-0.12947 0.267406,-0.20461 0.435681,-0.20461 h 3.763434 c 0.233891,0 0.429683,0.1778 0.451908,0.41063 l 0.276577,2.86279 v 4.21993"
         style="fill:#000000;fill-opacity:1;fill-rule:nonzero;stroke:none;stroke-width:0.0352777" />
      <path
         id="path276"
         d="m 18.86358,20.428355 c -0.245533,0 -0.445206,-0.19967 -0.445206,-0.4452 v -1.03647 c 0,-0.0956 -0.0013,-0.20566 -0.0028,-0.32772 -0.0141,-1.10173 -0.04304,-3.39302 0.986366,-4.63233 0.02506,-0.0303 0.0635,-0.0483 0.103013,-0.0483 h 3.681942 c 0.01236,0 0.02222,0.009 0.02328,0.0212 l 0.208844,2.16146 c 0.03563,0.37042 -0.168982,0.72214 -0.508707,0.87384 l -0.619125,0.27657 c -0.349601,0.15628 -0.615243,0.45473 -0.729895,0.82021 l -0.542221,1.73002 c -0.113242,0.3609 -0.448027,0.60678 -0.826204,0.60678 H 18.8636"
         style="fill:#000000;fill-opacity:1;fill-rule:nonzero;stroke:none;stroke-width:0.0352777" />
      <path
         id="path277"
         d="m 27.979709,17.218075 h -1.93322 c -0.05892,0 -0.10654,0.13406 -0.10654,0.29881 h 0.10654 0.106537 1.720146 0.106537 0.10654 c 0,-0.16475 -0.04798,-0.29881 -0.10654,-0.29881"
         style="fill:#000000;fill-opacity:1;fill-rule:nonzero;stroke:none;stroke-width:0.0352777" />
      <path
         id="path278"
         d="m 27.979709,17.836495 h -1.93322 c -0.05892,0 -0.10654,0.13371 -0.10654,0.29881 h 0.10654 0.106537 1.720146 0.106537 0.10654 c 0,-0.1651 -0.04798,-0.29881 -0.10654,-0.29881"
         style="fill:#000000;fill-opacity:1;fill-rule:nonzero;stroke:none;stroke-width:0.0352777" />
      <path
         id="path279"
         d="m 27.979709,18.454565 h -1.93322 c -0.05892,0 -0.10654,0.1337 -0.10654,0.2988 h 0.10654 0.106537 1.720146 0.106537 0.10654 c 0,-0.1651 -0.04798,-0.2988 -0.10654,-0.2988"
         style="fill:#000000;fill-opacity:1;fill-rule:nonzero;stroke:none;stroke-width:0.0352777" />
      <path
         id="path280"
         d="m 30.435394,17.218075 h -1.932868 c -0.05891,0 -0.106537,0.13406 -0.106537,0.29881 h 0.106537 0.106188 1.720143 0.106537 0.10654 c 0,-0.16475 -0.04762,-0.29881 -0.10654,-0.29881"
         style="fill:#000000;fill-opacity:1;fill-rule:nonzero;stroke:none;stroke-width:0.0352777" />
      <path
         id="path281"
         d="m 30.435394,17.836495 h -1.932868 c -0.05891,0 -0.106537,0.13371 -0.106537,0.29881 h 0.106537 0.106188 1.720143 0.106537 0.10654 c 0,-0.1651 -0.04762,-0.29881 -0.10654,-0.29881"
         style="fill:#000000;fill-opacity:1;fill-rule:nonzero;stroke:none;stroke-width:0.0352777" />
      <path
         id="path282"
         d="m 30.435394,18.454565 h -1.932868 c -0.05891,0 -0.106537,0.1337 -0.106537,0.2988 h 0.106537 0.106188 1.720143 0.106537 0.10654 c 0,-0.1651 -0.04762,-0.2988 -0.10654,-0.2988"
         style="fill:#000000;fill-opacity:1;fill-rule:nonzero;stroke:none;stroke-width:0.0352777" />
      <path
         id="path283"
         d="m 32.891434,17.218075 h -1.933223 c -0.05856,0 -0.106537,0.13406 -0.106537,0.29881 h 0.106537 0.10654 1.720143 0.10654 0.10654 c 0,-0.16475 -0.04763,-0.29881 -0.10654,-0.29881"
         style="fill:#000000;fill-opacity:1;fill-rule:nonzero;stroke:none;stroke-width:0.0352777" />
      <path
         id="path284"
         d="m 32.891434,17.836495 h -1.933223 c -0.05856,0 -0.106537,0.13371 -0.106537,0.29881 h 0.106537 0.10654 1.720143 0.10654 0.10654 c 0,-0.1651 -0.04763,-0.29881 -0.10654,-0.29881"
         style="fill:#000000;fill-opacity:1;fill-rule:nonzero;stroke:none;stroke-width:0.0352777" />
      <path
         id="path285"
         d="m 32.891434,18.454565 h -1.933223 c -0.05856,0 -0.106537,0.1337 -0.106537,0.2988 h 0.106537 0.10654 1.720143 0.10654 0.10654 c 0,-0.1651 -0.04763,-0.2988 -0.10654,-0.2988"
         style="fill:#000000;fill-opacity:1;fill-rule:nonzero;stroke:none;stroke-width:0.0352777" />
      <path
         id="path286"
         d="m 25.439005,15.621765 h 6.091764 c 0.183446,0 0.332317,0.14851 0.332317,0.33196 v 0.75635 h -6.756397 v -0.75635 c 0,-0.18345 0.14887,-0.33196 0.332316,-0.33196"
         style="fill:#000000;fill-opacity:1;fill-rule:nonzero;stroke:none;stroke-width:0.0352777" />
      <path
         id="path287"
         d="m 26.036609,16.312855 h -0.248002 v -0.69109 h 0.248002 v 0.69109"
         style="fill:#000000;fill-opacity:1;fill-rule:nonzero;stroke:none;stroke-width:0.0352777" />
      <path
         id="path288"
         d="m 26.770389,16.312855 h -0.248005 v -0.69109 h 0.248005 v 0.69109"
         style="fill:#000000;fill-opacity:1;fill-rule:nonzero;stroke:none;stroke-width:0.0352777" />
      <path
         id="path289"
         d="m 27.503814,16.312855 h -0.248005 v -0.69109 h 0.248005 v 0.69109"
         style="fill:#000000;fill-opacity:1;fill-rule:nonzero;stroke:none;stroke-width:0.0352777" />
      <path
         id="path290"
         d="m 28.23759,16.312855 h -0.248001 v -0.69109 h 0.248001 v 0.69109"
         style="fill:#000000;fill-opacity:1;fill-rule:nonzero;stroke:none;stroke-width:0.0352777" />
      <path
         id="path291"
         d="m 28.971015,16.312855 h -0.248001 v -0.69109 h 0.248001 v 0.69109"
         style="fill:#000000;fill-opacity:1;fill-rule:nonzero;stroke:none;stroke-width:0.0352777" />
      <path
         id="path292"
         d="M 29.704792,16.312855 H 29.45679 v -0.69109 h 0.248002 v 0.69109"
         style="fill:#000000;fill-opacity:1;fill-rule:nonzero;stroke:none;stroke-width:0.0352777" />
      <path
         id="path293"
         d="m 30.438217,16.312855 h -0.248002 v -0.69109 h 0.248002 v 0.69109"
         style="fill:#000000;fill-opacity:1;fill-rule:nonzero;stroke:none;stroke-width:0.0352777" />
      <path
         id="path294"
         d="m 31.171994,16.312855 h -0.248002 v -0.69109 h 0.248002 v 0.69109"
         style="fill:#000000;fill-opacity:1;fill-rule:nonzero;stroke:none;stroke-width:0.0352777" />
    </g>
  </g>
</svg>
