<?xml version="1.0" encoding="UTF-8" standalone="no"?>
<!-- Created with Inkscape (http://www.inkscape.org/) -->

<svg
   width="34mm"
   height="30mm"
   viewBox="0 0 34 30"
   version="1.1"
   id="svg1"
   inkscape:version="1.4 (86a8ad7, 2024-10-11)"
   sodipodi:docname="fabrica.svg"
   xmlns:inkscape="http://www.inkscape.org/namespaces/inkscape"
   xmlns:sodipodi="http://sodipodi.sourceforge.net/DTD/sodipodi-0.dtd"
   xmlns="http://www.w3.org/2000/svg"
   xmlns:svg="http://www.w3.org/2000/svg">
  <sodipodi:namedview
     id="namedview1"
     pagecolor="#ffffff"
     bordercolor="#000000"
     borderopacity="0.25"
     inkscape:showpageshadow="2"
     inkscape:pageopacity="0.0"
     inkscape:pagecheckerboard="0"
     inkscape:deskcolor="#d1d1d1"
     inkscape:document-units="mm"
     inkscape:zoom="0.74208053"
     inkscape:cx="396.8572"
     inkscape:cy="561.25984"
     inkscape:window-width="1920"
     inkscape:window-height="1051"
     inkscape:window-x="-9"
     inkscape:window-y="-9"
     inkscape:window-maximized="1"
     inkscape:current-layer="layer1" />
  <defs
     id="defs1" />
  <g
     inkscape:label="Capa 1"
     inkscape:groupmode="layer"
     id="layer1">
    <path
       id="path79"
       d="m 29.501291,16.018615 c -0.0328,-0.07655 -0.82621,-1.879248 -2.89595,-1.879248 -1.40124,0 -2.25425,0.912284 -2.64231,1.462264 -0.36724,-0.554566 -1.19098,-1.462264 -2.66136,-1.462264 -1.38571,0 -2.24684,0.911931 -2.64195,1.467203 -0.37218,-0.555272 -1.20509,-1.467203 -2.66135,-1.467203 -1.96074,0 -2.85362,1.791406 -2.89102,1.867606 l -0.0265,0.05503 v 0.06103 c 0,1.112308 1.28129,1.983669 2.91748,1.983669 1.19062,0 2.19392,-0.461786 2.65183,-1.141941 0.45755,0.680155 1.4605,1.141941 2.65147,1.141941 1.1931,0 2.19534,-0.464608 2.65183,-1.147233 0.45615,0.682625 1.45839,1.147233 2.65184,1.147233 1.63583,0 2.91712,-0.871361 2.91712,-1.983669 v -0.05433 l -0.0212,-0.05009"
       style="fill:#535b65;fill-opacity:1;fill-rule:nonzero;stroke:none;stroke-width:0.0352778" />
    <path
       id="path80"
       d="m 21.301671,14.405009 c -1.8161,0 -2.65147,1.717322 -2.65147,1.718028 -3.6e-4,-7.06e-4 -0.73449,-1.718028 -2.65183,-1.718028 -1.81681,0 -2.65184,1.718028 -2.65184,1.718028 0,0.948619 1.1871,1.717675 2.65184,1.717675 1.46438,0 2.65147,-0.768703 2.65183,-1.717322 0,0.948619 1.18709,1.717322 2.65147,1.717322 1.46474,0 2.65148,-0.769056 2.65148,-1.717675 0,0 -0.73342,-1.718028 -2.65148,-1.718028"
       style="fill:#e58126;fill-opacity:1;fill-rule:nonzero;stroke:none;stroke-width:0.0352778" />
    <path
       id="path81"
       d="m 26.604981,14.405009 c -1.8168,0 -2.65183,1.718028 -2.65183,1.718028 0,0.948619 1.18745,1.717675 2.65183,1.717675 1.46474,0 2.65183,-0.769056 2.65183,-1.717675 0,0 -0.73377,-1.718028 -2.65183,-1.718028"
       style="fill:#e58126;fill-opacity:1;fill-rule:nonzero;stroke:none;stroke-width:0.0352778" />
    <path
       id="path82"
       d="M 29.522461,27.024929 H 13.044911 V 16.138912 h 16.47755 v 10.886017"
       style="fill:#535b65;fill-opacity:1;fill-rule:nonzero;stroke:none;stroke-width:0.0352778" />
    <path
       id="path83"
       d="m 17.760841,5.3174533 c -0.95356,0 -1.72684,0.773289 -1.72684,1.726847 0,0.04516 0.004,0.08925 0.007,0.133703 -0.17075,-0.07056 -0.35772,-0.110067 -0.55386,-0.110067 -0.11113,0 -0.21908,0.01376 -0.32279,0.0374 0.0116,-0.0695 0.0212,-0.140053 0.0212,-0.212725 0,-0.702381 -0.56938,-1.271412 -1.27176,-1.271412 -0.70203,0 -1.27141,0.569031 -1.27141,1.271412 0,0.09137 0.0106,0.180269 0.0289,0.266347 -0.0653,0.02893 -0.12842,0.06244 -0.18733,0.1016 -0.19121,-0.320322 -0.53763,-0.536928 -0.93768,-0.536928 -0.45932,0 -0.85161,0.283986 -1.01459,0.685095 -0.15699,-0.121709 -0.35172,-0.197203 -0.5658585,-0.197203 -0.386291,0 -0.717197,0.236361 -0.856897,0.572205 -0.07444,-0.02611 -0.153458,-0.04304 -0.236714,-0.04304 -0.39758,0 -0.720372,0.322438 -0.720372,0.719666 0,0.246945 0.12453,0.464609 0.313619,0.594784 -0.02258,-0.0032 -0.04516,-0.0071 -0.06879,-0.0071 -0.280811,0 -0.508353,0.227542 -0.508353,0.508706 0,0.280458 0.227542,0.5083517 0.508353,0.5083517 0.281164,0 0.508705,-0.2278937 0.508705,-0.5083517 0,-0.159456 -0.07479,-0.300214 -0.189441,-0.393348 0.05045,0.01129 0.102305,0.01799 0.15628,0.01799 0.230717,0 0.433917,-0.110419 0.565503,-0.2794 0.150283,0.104069 0.331611,0.165806 0.528108,0.165806 0.2053175,0 0.3933475,-0.06844 0.5468075,-0.181328 -0.0374,0.110419 -0.0621,0.226483 -0.0621,0.349603 0,0.605014 0.49071,1.0957267 1.09573,1.0957267 0.52034,0 0.95391,-0.3637127 1.06574,-0.8498407 0.17674,0.09066 0.37394,0.146755 0.58596,0.146755 0.39511,0 0.74472,-0.181328 0.98178,-0.460728 0.23778,0.482601 0.73308,0.815623 1.3074,0.815623 0.79198,0 1.43545,-0.632178 1.45591,-1.419225 0.24342,0.131233 0.52211,0.206022 0.81809,0.206022 0.95356,0 1.7265,-0.772231 1.7265,-1.726142 0,-0.953558 -0.77294,-1.726847 -1.7265,-1.726847"
       style="fill:#5d8bc8;fill-opacity:1;fill-rule:nonzero;stroke:none;stroke-width:0.0352778" />
    <path
       id="path84"
       d="M 13.063251,25.52774 H 3.2846065 v 1.497189 H 13.063251 V 25.52774"
       style="fill:#535b65;fill-opacity:1;fill-rule:nonzero;stroke:none;stroke-width:0.0352778" />
    <path
       id="path85"
       d="M 5.0668405,19.420098 H 10.845341 L 10.709521,17.38457 H 5.2037185 l -0.136878,2.035528"
       style="fill:#e58126;fill-opacity:1;fill-rule:nonzero;stroke:none;stroke-width:0.0352778" />
    <path
       id="path86"
       d="m 4.7944955,23.492212 h 6.3238955 l -0.13652,-2.03588 H 4.9310205 l -0.136525,2.03588"
       style="fill:#e58126;fill-opacity:1;fill-rule:nonzero;stroke:none;stroke-width:0.0352778" />
    <path
       id="path87"
       d="m 5.4757095,13.312809 -0.136172,2.036233 h 5.2334635 l -0.13653,-2.036233 H 5.4757095"
       style="fill:#e58126;fill-opacity:1;fill-rule:nonzero;stroke:none;stroke-width:0.0352778" />
    <path
       id="path88"
       d="M 10.300301,11.276928 H 5.6122345 l -0.136525,2.035881 h 4.9607615 l -0.13617,-2.035881"
       style="fill:#fbb03b;fill-opacity:1;fill-rule:nonzero;stroke:none;stroke-width:0.0352778" />
    <path
       id="path89"
       d="m 5.2037185,17.38457 h 5.5058025 l -0.13652,-2.035528 H 5.3395375 l -0.135819,2.035528"
       style="fill:#fbb03b;fill-opacity:1;fill-rule:nonzero;stroke:none;stroke-width:0.0352778" />
    <path
       id="path90"
       d="m 4.9310205,21.456332 h 6.0508505 l -0.13653,-2.036234 H 5.0668405 l -0.13582,2.036234"
       style="fill:#fbb03b;fill-opacity:1;fill-rule:nonzero;stroke:none;stroke-width:0.0352778" />
    <path
       id="path91"
       d="m 4.6579705,25.52774 h 6.5969505 l -0.13653,-2.035528 H 4.7944955 l -0.136525,2.035528"
       style="fill:#fbb03b;fill-opacity:1;fill-rule:nonzero;stroke:none;stroke-width:0.0352778" />
    <path
       id="path92"
       d="m 16.188161,21.456332 h -1.37336 v -3.812117 h 1.37336 v 3.812117"
       style="fill:#fbb03b;fill-opacity:1;fill-rule:nonzero;stroke:none;stroke-width:0.0352778" />
    <path
       id="path93"
       d="m 19.079171,21.456332 h -1.37336 v -3.812117 h 1.37336 v 3.812117"
       style="fill:#fbb03b;fill-opacity:1;fill-rule:nonzero;stroke:none;stroke-width:0.0352778" />
    <path
       id="path94"
       d="m 21.970191,21.456332 h -1.37337 v -3.812117 h 1.37337 v 3.812117"
       style="fill:#fbb03b;fill-opacity:1;fill-rule:nonzero;stroke:none;stroke-width:0.0352778" />
    <path
       id="path95"
       d="m 24.861201,21.456332 h -1.37301 v -3.812117 h 1.37301 v 3.812117"
       style="fill:#fbb03b;fill-opacity:1;fill-rule:nonzero;stroke:none;stroke-width:0.0352778" />
    <path
       id="path96"
       d="m 27.752221,21.456332 h -1.37301 v -3.812117 h 1.37301 v 3.812117"
       style="fill:#fbb03b;fill-opacity:1;fill-rule:nonzero;stroke:none;stroke-width:0.0352778" />
  </g>
</svg>
