<?xml version="1.0" encoding="UTF-8" standalone="no"?>
<!-- Created with Inkscape (http://www.inkscape.org/) -->

<svg
   width="65mm"
   height="70mm"
   viewBox="0 0 65 70"
   version="1.1"
   id="svg1"
   inkscape:version="1.4 (86a8ad7, 2024-10-11)"
   sodipodi:docname="miner.svg"
   xmlns:inkscape="http://www.inkscape.org/namespaces/inkscape"
   xmlns:sodipodi="http://sodipodi.sourceforge.net/DTD/sodipodi-0.dtd"
   xmlns="http://www.w3.org/2000/svg"
   xmlns:svg="http://www.w3.org/2000/svg">
  <sodipodi:namedview
     id="namedview1"
     pagecolor="#ffffff"
     bordercolor="#000000"
     borderopacity="0.25"
     inkscape:showpageshadow="2"
     inkscape:pageopacity="0.0"
     inkscape:pagecheckerboard="0"
     inkscape:deskcolor="#d1d1d1"
     inkscape:document-units="mm"
     inkscape:zoom="2"
     inkscape:cx="77.5"
     inkscape:cy="167.25"
     inkscape:window-width="1920"
     inkscape:window-height="1051"
     inkscape:window-x="-9"
     inkscape:window-y="-9"
     inkscape:window-maximized="1"
     inkscape:current-layer="layer1"
     showguides="true" />
  <defs
     id="defs1" />
  <g
     inkscape:label="Capa 1"
     inkscape:groupmode="layer"
     id="layer1">
    <g
       id="g1"
       transform="matrix(3.074995,0,0,3.074995,-19.308913,-26.247245)">
      <path
         id="path114"
         d="m 15.424031,17.036384 c 1.84947,1.65911 3.86966,3.53801 4.47435,4.16666 l -0.29929,0.3623 -0.22631,0.30198 c -0.73131,-0.4752 -2.87539,-1.91276 -4.93847,-3.52037 -0.701,-0.54645 -0.61196,-1.02482 -0.35249,-1.33879 0.25936,-0.31433 0.68061,-0.56551 1.34221,0.0282"
         style="fill:#0e4a73;fill-opacity:1;fill-rule:nonzero;stroke:none;stroke-width:0.0352777" />
      <path
         id="path115"
         d="m 20.371321,21.609444 c 0.12996,0.115 0.1035,0.35877 -0.0598,0.54433 -0.15131,0.19544 -0.38573,0.26741 -0.52324,0.16158 l -0.48839,-0.38771 0.2992,-0.3623 0.29929,-0.3623 0.47294,0.4064"
         style="fill:#e4b69d;fill-opacity:1;fill-rule:nonzero;stroke:none;stroke-width:0.0352777" />
      <path
         id="path116"
         d="m 13.774231,29.900424 c 0.47861,0 0.89987,0.44909 0.96407,1.03046 0.004,0.0395 -0.008,0.0787 -0.0347,0.1083 -0.0263,0.0293 -0.0641,0.0459 -0.10351,0.0459 h -2.24176 c -0.46249,0 -0.53206,-0.17922 -0.55111,-0.381 -0.0172,-0.18309 0.0447,-0.47449 0.22423,-0.80363 h 1.74279"
         style="fill:#fbbc3c;fill-opacity:1;fill-rule:nonzero;stroke:none;stroke-width:0.0352777" />
      <path
         id="path117"
         d="m 16.837331,23.220924 c 0,0 -0.70912,3.02649 -1.31533,4.20159 -0.67578,1.31092 -1.71302,2.47791 -1.71302,2.47791 h -0.90195 -0.87559 c 0,0 1.38797,-2.72697 1.44872,-3.05647 0.078,-0.42121 0.39923,-2.67899 0.39923,-3.62303 h 2.95794"
         style="fill:#0e4a73;fill-opacity:1;fill-rule:nonzero;stroke:none;stroke-width:0.0352777" />
      <path
         id="path118"
         d="m 19.256641,26.279864 c -0.1585,-0.72496 -2.32283,-2.70969 -2.32283,-3.0226 0,-1.05234 -1.09788,-5.92984 -1.42158,-6.9656 -0.18151,-0.58031 -0.39882,-0.76164 -0.35885,-1.23049 l -0.20479,-0.0801 -0.20475,-0.0804 c -0.46179,0.14887 -0.80546,0.32279 -1.09873,0.66005 -1.52908,1.75965 -0.59393,5.81378 0.16401,7.93503 0.66407,1.85878 3.13115,2.94922 3.2312,3.26531 0.10103,0.31926 0.69426,3.12561 0.69426,3.12561 l 0.98006,0.005 1.10133,0.005 c 0,0 -0.4192,-2.97568 -0.55933,-3.61668"
         style="fill:#5d8bc8;fill-opacity:1;fill-rule:nonzero;stroke:none;stroke-width:0.0352777" />
      <path
         id="path119"
         d="m 19.791311,29.896544 c 0.51869,0.002 0.94478,0.45367 1.00694,1.03575 0.004,0.0392 -0.009,0.0783 -0.0349,0.1076 -0.0265,0.0293 -0.0641,0.0459 -0.10347,0.0459 l -2.38608,-7.9e-4 c -0.46246,-0.002 -0.5417,-0.23389 -0.54046,-0.50624 l 0.001,-0.69215 2.05673,0.01"
         style="fill:#fbbc3c;fill-opacity:1;fill-rule:nonzero;stroke:none;stroke-width:0.0352777" />
      <path
         id="path120"
         d="m 26.974611,30.283534 0.13808,0.80222 -0.73547,-0.34889 -2.39752,-3.15913 0.5974,-0.45332 2.39751,3.15912"
         style="fill:#b9bcba;fill-opacity:1;fill-rule:nonzero;stroke:none;stroke-width:0.0352777" />
      <path
         id="path121"
         d="m 24.548311,27.146284 -0.53964,0.40958 c -0.21442,0.16263 -0.5201,0.12065 -0.6827,-0.0935 l -1.67142,-2.20274 1.31589,-0.99836 1.67143,2.20239 c 0.16259,0.21449 0.12072,0.51999 -0.0936,0.68262"
         style="fill:#34373d;fill-opacity:1;fill-rule:nonzero;stroke:none;stroke-width:0.0352777" />
      <path
         id="path122"
         d="m 23.137061,24.134624 -1.6491,1.25165 c -0.19625,0.14888 -0.47586,0.11043 -0.6248,-0.0857 l -2.69462,-3.55071 2.35948,-1.7907 2.69459,3.55106 c 0.14898,0.19615 0.11052,0.47555 -0.0856,0.62442"
         style="fill:#fbb03b;fill-opacity:1;fill-rule:nonzero;stroke:none;stroke-width:0.0352777" />
      <path
         id="path123"
         d="m 20.528021,19.959144 -2.35948,1.7907 -0.74775,-0.98531 c -0.12623,-0.16651 -0.0937,-0.40357 0.0728,-0.53022 l 1.75658,-1.3328 c 0.16648,-0.12664 0.4039,-0.0938 0.53012,0.0727 l 0.74775,0.98495"
         style="fill:#34373d;fill-opacity:1;fill-rule:nonzero;stroke:none;stroke-width:0.0352777" />
      <path
         id="path124"
         d="m 17.724531,13.876904 c -0.47445,1.21179 -1.84933,1.80622 -3.07125,1.32786 -1.22188,-0.47802 -1.82781,-1.84821 -1.3535,-3.06 0.47445,-1.21214 1.84947,-1.80693 3.07139,-1.32856 1.22188,0.47837 1.82781,1.8482 1.35336,3.0607"
         style="fill:#e4b69d;fill-opacity:1;fill-rule:nonzero;stroke:none;stroke-width:0.0352777" />
      <path
         id="path125"
         d="m 18.811121,22.690354 0.81552,-0.63148 c 0.2165,-0.28998 -0.0748,-0.78951 -0.48176,-0.635 l -0.81555,0.63148 c -0.17526,0.133 -0.20958,0.38311 -0.0766,0.55845 v 0 c 0.13314,0.17532 0.38312,0.20955 0.55841,0.0765"
         style="fill:#34373d;fill-opacity:1;fill-rule:nonzero;stroke:none;stroke-width:0.0352777" />
      <path
         id="path126"
         d="m 21.460941,21.807354 -1.71168,1.29892 -0.20916,-0.27552 1.71164,-1.29893 0.2092,0.27553"
         style="fill:#34373d;fill-opacity:1;fill-rule:nonzero;stroke:none;stroke-width:0.0352777" />
      <path
         id="path127"
         d="m 21.879441,22.358744 -1.71164,1.29892 -0.20934,-0.27551 1.71178,-1.29893 0.2092,0.27552"
         style="fill:#34373d;fill-opacity:1;fill-rule:nonzero;stroke:none;stroke-width:0.0352777" />
      <path
         id="path128"
         d="m 22.297941,22.910134 -1.71164,1.29928 -0.20934,-0.27587 1.71182,-1.29893 0.20916,0.27552"
         style="fill:#34373d;fill-opacity:1;fill-rule:nonzero;stroke:none;stroke-width:0.0352777" />
      <path
         id="path129"
         d="m 24.618301,27.093014 -0.6798,0.51612 0.19981,0.26317 0.6798,-0.51576 -0.19981,-0.26353"
         style="fill:#666666;fill-opacity:1;fill-rule:nonzero;stroke:none;stroke-width:0.0352777" />
      <path
         id="path130"
         d="m 18.882491,22.378854 c 0,0.18379 -0.14884,0.33266 -0.33239,0.33266 -0.18369,0 -0.33253,-0.14887 -0.33253,-0.33266 0,-0.18345 0.14884,-0.33232 0.33253,-0.33232 0.18355,0 0.33239,0.14887 0.33239,0.33232"
         style="fill:#666666;fill-opacity:1;fill-rule:nonzero;stroke:none;stroke-width:0.0352777" />
      <path
         id="path131"
         d="m 17.897321,21.240434 0.6102,0.12841 c 0.16923,0.0385 0.26363,0.26458 0.20987,0.50588 -0.0539,0.24201 -0.23523,0.40711 -0.40485,0.36901 l -0.57852,-0.14393 0.1633,-0.85937"
         style="fill:#e4b69d;fill-opacity:1;fill-rule:nonzero;stroke:none;stroke-width:0.0352777" />
      <path
         id="path132"
         d="m 14.912931,17.041324 c 0.0664,-1.5547 -1.51049,-1.52859 -1.57868,-0.36619 -0.19241,3.27202 1.49433,5.40809 4.39977,5.50651 l 0.32907,-0.9786 c -2.15798,-0.36195 -3.09644,-1.7392 -3.15016,-4.16172"
         style="fill:#0e4a73;fill-opacity:1;fill-rule:nonzero;stroke:none;stroke-width:0.0352777" />
      <path
         id="path133"
         d="m 13.993061,9.6354539 c 0,0 0.0337,-0.14499 0.064,-0.16827 0.0303,-0.0233 0.45804,-0.35596 1.01589,-0.4699 0.52021,-0.10583 1.19049,-0.1009 1.83194,0.16263 0.64135,0.26352 0.96326,0.55562 0.99441,0.65758 0.0156,0.0504 0.15903,1.0128201 0.15903,1.0128201 l -4.06523,-1.1948601"
         style="fill:#e58126;fill-opacity:1;fill-rule:nonzero;stroke:none;stroke-width:0.0352777" />
      <path
         id="path134"
         d="m 18.227771,12.564924 c 0,0 0.0119,-0.27305 -1.1e-4,-0.63112 -0.0152,-0.45261 -0.11906,-1.05798 -0.27686,-1.40476 -0.30882,-0.6783901 -0.99769,-1.2075601 -1.65269,-1.3793601 -0.65483,-0.17145 -1.49391,-0.14323 -2.23958,0.4325 -0.7826,0.6039601 -1.20152,2.1219601 -1.22837,2.3311601 l 5.39761,0.65158"
         style="fill:#fbb03b;fill-opacity:1;fill-rule:nonzero;stroke:none;stroke-width:0.0352777" />
      <path
         id="path135"
         d="m 18.227661,11.933804 c 0.30124,0.33902 0.43656,0.43392 0.86014,0.78564 0.06,0.0497 0.0316,0.16227 -0.17582,0.18062 -0.23012,0.0201 -1.40917,0.0504 -3.33555,-0.19756 -1.8113,-0.23354 -2.94418,-0.65264 -2.9924,-0.71508 0,0 0.21939,-0.28116 0.34505,-0.46037 2.01344,0.5909 3.70678,0.73589 4.71731,0.72037 0.42305,-0.007 0.58127,-0.31362 0.58127,-0.31362"
         style="fill:#e58126;fill-opacity:1;fill-rule:nonzero;stroke:none;stroke-width:0.0352777" />
      <path
         id="path136"
         d="m 16.231151,11.565504 0.91211,0.11747 c 0.0605,0.008 0.10336,0.0632 0.0955,0.12348 l -0.0769,0.59725 -1.13154,-0.1457 0.077,-0.59725 c 0.008,-0.0603 0.0631,-0.10336 0.12375,-0.0953"
         style="fill:#e58126;fill-opacity:1;fill-rule:nonzero;stroke:none;stroke-width:0.0352777" />
      <path
         id="path137"
         d="m 14.108421,11.291754 0.9121,0.11782 c 0.0605,0.008 0.10337,0.0631 0.0955,0.12348 l -0.0769,0.59725 -1.1315,-0.1457 0.0769,-0.59725 c 0.008,-0.0603 0.0632,-0.10337 0.1239,-0.0956"
         style="fill:#e58126;fill-opacity:1;fill-rule:nonzero;stroke:none;stroke-width:0.0352777" />
      <path
         id="path138"
         d="m 17.782951,10.805624 c 0.0615,-0.0318 -0.57877,-1.2809401 -1.83183,-1.4421601 -1.27508,-0.16439 -1.88197,0.49036 -1.89177,0.56586 -0.01,0.0755 0.69758,-0.22084 1.77189,-0.0363 1.15369,0.1979101 1.81914,0.9810801 1.95171,0.9126401"
         style="fill:#e58126;fill-opacity:1;fill-rule:nonzero;stroke:none;stroke-width:0.0352777" />
      <path
         id="path139"
         d="m 18.705961,12.028704 0.34353,0.0441 c 0.027,0.004 0.0515,-0.0155 0.0551,-0.0423 l 0.1965,-1.52611 c 0.003,-0.0268 -0.0156,-0.0515 -0.0424,-0.055 l -0.34353,-0.0441 c -0.027,-0.004 -0.0515,0.0155 -0.0551,0.0423 l -0.1965,1.52611 c -0.003,0.0268 0.0156,0.0515 0.0424,0.055"
         style="fill:#ffffff;fill-opacity:1;fill-rule:nonzero;stroke:none;stroke-width:0.0352777" />
      <path
         id="path140"
         d="m 18.622881,10.455664 0.23234,0.03 -0.18673,1.44991 -0.23234,-0.0296 c -0.19582,-0.0254 -0.3127,-0.37042 -0.26116,-0.77082 0.0517,-0.4004 0.2522,-0.70485 0.44789,-0.67945"
         style="fill:#28292e;fill-opacity:1;fill-rule:nonzero;stroke:none;stroke-width:0.0352777" />
      <path
         id="path141"
         d="m 13.169291,10.723074 5.31385,0.68439 c 0.0365,0.005 0.0699,-0.0212 0.0747,-0.0579 l 0.0419,-0.32526 c 0.005,-0.0367 -0.0211,-0.0699 -0.0576,-0.0748 l -5.17786,-0.66675 -0.19498,0.44027"
         style="fill:#535b65;fill-opacity:1;fill-rule:nonzero;stroke:none;stroke-width:0.0352777" />
    </g>
  </g>
</svg>
