<?xml version="1.0" encoding="UTF-8" standalone="no"?>
<!-- Created with Inkscape (http://www.inkscape.org/) -->

<svg
   width="65mm"
   height="70mm"
   viewBox="0 0 65 70"
   version="1.1"
   id="svg1"
   inkscape:version="1.4 (86a8ad7, 2024-10-11)"
   sodipodi:docname="pickaxe-click - copia.svg"
   xmlns:inkscape="http://www.inkscape.org/namespaces/inkscape"
   xmlns:sodipodi="http://sodipodi.sourceforge.net/DTD/sodipodi-0.dtd"
   xmlns:xlink="http://www.w3.org/1999/xlink"
   xmlns="http://www.w3.org/2000/svg"
   xmlns:svg="http://www.w3.org/2000/svg">
  <sodipodi:namedview
     id="namedview1"
     pagecolor="#ffffff"
     bordercolor="#000000"
     borderopacity="0.25"
     inkscape:showpageshadow="2"
     inkscape:pageopacity="0.0"
     inkscape:pagecheckerboard="0"
     inkscape:deskcolor="#d1d1d1"
     inkscape:document-units="mm"
     inkscape:zoom="0.74208055"
     inkscape:cx="-329.47906"
     inkscape:cy="179.89961"
     inkscape:window-width="1920"
     inkscape:window-height="1051"
     inkscape:window-x="-9"
     inkscape:window-y="-9"
     inkscape:window-maximized="1"
     inkscape:current-layer="g1"
     showguides="true" />
  <defs
     id="defs1">
    <linearGradient
       x1="0"
       y1="0"
       x2="1"
       y2="0"
       gradientUnits="userSpaceOnUse"
       gradientTransform="matrix(-716.795,1964.2,1964.2,716.795,2657.79,1139.76)"
       spreadMethod="pad"
       id="linearGradient16">
      <stop
         style="stop-opacity:1;stop-color:#de611c"
         offset="0"
         id="stop14" />
      <stop
         style="stop-opacity:1;stop-color:#9b1a2d"
         offset="0.994595"
         id="stop15" />
      <stop
         style="stop-opacity:1;stop-color:#9b1a2d"
         offset="1"
         id="stop16" />
    </linearGradient>
    <clipPath
       clipPathUnits="userSpaceOnUse"
       id="clipPath16">
      <path
         d="m 2533.03,1320.62 c -6.37,0 -11.09,0.94 -13.31,3.05 -0.54,0.52 -1.79,3.22 -3.69,7.97 v 0 c -2.39,7.24 -5.89,17.98 -10.37,31.83 2.21,104.51 -7.68,245.02 -59.02,399.54 -51.37,154.61 -127.98,274.28 -178.31,341.43 -17.49,54.76 -34.61,108.39 -50.89,159.44 49.56,-56.77 108.03,-128.79 143.61,-189.79 71.18,-122.02 245.17,-666.59 236.13,-702.74 -5.48,-21.92 -55.73,-48.15 -60.63,-50.65 v 0 c -1.22,-0.05 -2.4,-0.08 -3.52,-0.08 m -20.76,20.77 c -1.91,5.07 -4.15,11.18 -6.7,18.26 0.01,0.17 0.01,0.33 0.01,0.5 l 6.69,-18.76 m 131.29,22.75 c 0.01,25.25 -119.31,332.22 -248.39,666.41 -14.16,36.67 -28.44,73.66 -42.69,110.65 l -0.01,0.01 c -34.63,89.87 -69.1,179.71 -101.33,264.66 32.23,-84.95 66.71,-174.8 101.34,-264.67 14.25,-36.99 28.53,-73.98 42.69,-110.65 129.08,-334.19 248.4,-641.16 248.39,-666.41 m -161.17,71.46 c -46.68,145.08 -129.91,405.32 -207.47,648.18 45.97,-69.46 109.66,-180.44 153.49,-320.77 38.52,-123.3 51.42,-236.35 53.98,-327.41 m -138.21,708.44 c -5.1,1.75 -9.95,3.4 -13.63,4.62 -6.46,2.15 -74.68,80.75 -138.11,193.58 -52.24,163.8 -91.56,287.31 -98.25,308.73 -22.78,72.92 -80.51,224.84 -62.03,237.06 v 0 c 46.77,-95.59 102.36,-208.55 148.35,-335.56 56.88,-157.06 115.55,-298.65 163.67,-408.43"
         transform="translate(0,-2.5e-5)"
         id="path16" />
    </clipPath>
    <linearGradient
       x1="0"
       y1="0"
       x2="1"
       y2="0"
       gradientUnits="userSpaceOnUse"
       gradientTransform="matrix(-287.14,-66.263,-66.263,287.14,2432.67,2280.12)"
       spreadMethod="pad"
       id="linearGradient18">
      <stop
         style="stop-opacity:1;stop-color:#ffffff"
         offset="0"
         id="stop17" />
      <stop
         style="stop-opacity:1;stop-color:#ffffff"
         offset="1"
         id="stop18" />
    </linearGradient>
    <clipPath
       clipPathUnits="userSpaceOnUse"
       id="clipPath18">
      <path
         d="m 2189.66,2295.19 c -4.12,12.3 -67.56,197.64 -72.55,212.43 4.19,-12.2 8.66,-24.25 13.35,-36.16 14.81,-43.97 30.53,-90.78 46.84,-139.39 4.09,-12.18 8.21,-24.48 12.36,-36.88 m 61.48,110.68 c -64.82,170.86 -120.57,321.99 -150.37,414.21 -9.11,28.19 -17.48,54.06 -25.18,77.81 h 0.01 l -1.42,4.34 v 0 l -3.12,9.63 c -1.6,4.95 -3.18,9.81 -4.72,14.58 v 0 c 10.11,-31.17 21.53,-66.44 34.43,-106.35 29.81,-92.22 85.56,-243.36 150.37,-414.22"
         transform="translate(0,-2.5e-5)"
         id="path18" />
    </clipPath>
    <clipPath
       clipPathUnits="userSpaceOnUse"
       id="clipPath19">
      <path
         d="m 2536.55,1320.7 c 4.9,2.5 55.15,28.73 60.63,50.65 9.04,36.15 -164.95,580.72 -236.13,702.74 -35.58,61 -94.05,133.02 -143.61,189.79 -8.6,26.93 -16.95,53.12 -25,78.36 63.43,-112.83 131.65,-191.43 138.11,-193.58 3.68,-1.22 8.53,-2.87 13.63,-4.62 -48.12,109.78 -106.79,251.37 -163.67,408.43 -45.99,127.01 -101.58,239.97 -148.35,335.56 13.35,8.82 30.06,10.04 38.32,10.04 3.05,0 4.95,-0.17 5.11,-0.18 v 0 c 7.7,-23.75 16.07,-49.62 25.18,-77.81 29.8,-92.22 85.55,-243.35 150.37,-414.21 32.23,-84.95 66.7,-174.79 101.33,-264.66 l 0.01,-0.01 c 14.25,-36.99 28.53,-73.98 42.69,-110.65 129.08,-334.19 248.4,-641.16 248.39,-666.41 0,-0.58 -0.06,-1.01 -0.19,-1.29 -8.58,-18.84 -74.22,-40.57 -106.82,-42.15 m -462.37,1581.53 v 0 l -3.12,9.63 -4.73,14.57 c 0,0 0,0 0.01,0.01 1.54,-4.77 3.12,-9.63 4.72,-14.58 l 3.12,-9.63 v 0"
         transform="matrix(0.00159949,0,0,-6.1606702e-4,-3.2388036,1.8082183)"
         id="path19" />
    </clipPath>
    <linearGradient
       x1="0"
       y1="0"
       x2="1"
       y2="0"
       gradientUnits="userSpaceOnUse"
       gradientTransform="matrix(-260.652,-118.69,-118.69,260.652,2602.08,1855.78)"
       spreadMethod="pad"
       id="linearGradient21">
      <stop
         style="stop-opacity:1;stop-color:#ffffff"
         offset="0"
         id="stop20" />
      <stop
         style="stop-opacity:1;stop-color:#ffffff"
         offset="1"
         id="stop21" />
    </linearGradient>
    <clipPath
       clipPathUnits="userSpaceOnUse"
       id="clipPath21">
      <path
         d="m 2504.37,1327 c -7.34,11.4 -14.69,22.79 -22.03,34.18 0.57,19.65 0.75,40.94 0.3,63.69 1.49,-4.3 2.94,-8.48 4.36,-12.55 v 0 c 7.29,-20.98 13.54,-38.71 18.57,-52.67 -0.27,-11.32 -0.69,-22.22 -1.2,-32.65"
         transform="translate(0,-2.5e-5)"
         id="path21" />
    </clipPath>
    <clipPath
       clipPathUnits="userSpaceOnUse"
       id="clipPath22">
      <path
         d="m 2505.57,1359.65 c -5.03,13.96 -11.28,31.69 -18.57,52.67 l 18.58,-52.17 c 0,-0.17 0,-0.33 -0.01,-0.5 m 0.09,3.82 c -6.07,18.73 -13.95,43.15 -23.27,72.13 -2.56,91.06 -15.46,204.11 -53.98,327.41 -43.83,140.33 -107.52,251.31 -153.49,320.77 -2.2,6.89 -4.4,13.8 -6.59,20.66 50.33,-67.15 126.94,-186.82 178.31,-341.43 51.34,-154.52 61.23,-295.03 59.02,-399.54"
         transform="matrix(0.0039032,0,0,-0.00130856,-8.8208431,2.7664225)"
         id="path22" />
    </clipPath>
    <clipPath
       clipPathUnits="userSpaceOnUse"
       id="clipPath24">
      <path
         d="m 2246.86,2124.44 c -18.67,25.93 -30.28,39.96 -29.61,40.39 0.01,0.01 0.02,0.01 0.04,0.01 0.88,0 10.33,-9.56 25.3,-27.64 1.42,-4.25 2.84,-8.5 4.27,-12.76"
         transform="translate(0,-2.5e-5)"
         id="path24" />
    </clipPath>
    <linearGradient
       x1="0"
       y1="0"
       x2="1"
       y2="0"
       gradientUnits="userSpaceOnUse"
       gradientTransform="matrix(-716.795,1964.2,1964.2,716.795,2657.79,1139.76)"
       spreadMethod="pad"
       id="linearGradient28">
      <stop
         style="stop-opacity:1;stop-color:#b32b24"
         offset="0"
         id="stop26" />
      <stop
         style="stop-opacity:1;stop-color:#78162e"
         offset="0.994595"
         id="stop27" />
      <stop
         style="stop-opacity:1;stop-color:#78162e"
         offset="1"
         id="stop28" />
    </linearGradient>
    <clipPath
       clipPathUnits="userSpaceOnUse"
       id="clipPath28">
      <path
         d="m 2516.03,1331.64 c -1.05,2.64 -2.31,5.89 -3.76,9.75 v 0 l -6.69,18.76 c 0.03,1.11 0.05,2.21 0.08,3.32 4.48,-13.85 7.98,-24.59 10.37,-31.83"
         transform="translate(0,-2.5e-5)"
         id="path28" />
    </clipPath>
    <clipPath
       clipPathUnits="userSpaceOnUse"
       id="clipPath31">
      <path
         d="m 2482.64,1424.87 c -50.6,146.16 -145.03,428.51 -235.78,699.57 8.15,-11.33 17.66,-24.93 28.06,-40.66 77.56,-242.86 160.79,-503.1 207.47,-648.18 0.1,-3.61 0.18,-7.18 0.25,-10.73"
         transform="translate(0,-2.5e-5)"
         id="path31" />
    </clipPath>
    <clipPath
       clipPathUnits="userSpaceOnUse"
       id="clipPath34">
      <path
         d="m 2268.33,2104.44 c -9.67,12.9 -18.38,23.86 -25.74,32.76 -17.94,53.58 -35.7,106.62 -52.93,157.99 8.76,-9.73 18.1,-20.23 27.78,-31.31 16.28,-51.05 33.4,-104.68 50.89,-159.44 m -75.89,237.8 c -22.2,39.49 -43.81,83.16 -61.98,129.22 -52.52,155.98 -93.54,276.34 -108.41,315.59 -13,34.29 -27.76,70.07 -42.79,104.81 3.21,0.98 6.58,2.03 10.05,3.15 10.56,3.37 22.15,7.34 33.69,11.77 3.01,-6.17 6.07,-12.42 9.16,-18.75 v 0 c -18.48,-12.22 39.25,-164.14 62.03,-237.06 6.69,-21.42 46.01,-144.93 98.25,-308.73"
         transform="translate(0,-2.5e-5)"
         id="path34" />
    </clipPath>
    <linearGradient
       x1="0"
       y1="0"
       x2="1"
       y2="0"
       gradientUnits="userSpaceOnUse"
       gradientTransform="matrix(-287.14,-66.263,-66.263,287.14,2432.67,2280.12)"
       spreadMethod="pad"
       id="linearGradient36">
      <stop
         style="stop-opacity:1;stop-color:#d39ab9"
         offset="0"
         id="stop35" />
      <stop
         style="stop-opacity:1;stop-color:#d39ab9"
         offset="1"
         id="stop36" />
    </linearGradient>
    <clipPath
       clipPathUnits="userSpaceOnUse"
       id="clipPath36">
      <path
         d="m 2075.6,2897.89 h -0.01 v 0 c -0.47,1.45 -0.94,2.9 -1.41,4.34 l 1.42,-4.34"
         transform="translate(0,-2.5e-5)"
         id="path36" />
    </clipPath>
    <clipPath
       clipPathUnits="userSpaceOnUse"
       id="clipPath37">
      <path
         d="m 2217.44,2263.88 c -9.68,11.08 -19.02,21.58 -27.78,31.31 v 0 c -4.15,12.4 -8.27,24.7 -12.36,36.88 -16.31,48.61 -32.03,95.42 -46.84,139.39 18.17,-46.06 39.78,-89.73 61.98,-129.22 8.05,-25.24 16.4,-51.43 25,-78.36 m -185.28,624.15 c -3.09,6.33 -6.15,12.58 -9.16,18.75 5.42,2.08 10.82,4.27 16.11,6.54 2.13,0.91 4.22,1.85 6.27,2.79 6.53,2.95 12.77,6.03 18.62,9.1 v 0 0 h 0.02 c 0.77,0.41 1.54,0.82 2.31,1.22 l 4.73,-14.57 3.12,-9.63 c 0.47,-1.44 0.94,-2.89 1.41,-4.34 v 0 c -0.16,0.01 -2.06,0.18 -5.11,0.18 -8.26,0 -24.97,-1.22 -38.32,-10.04"
         transform="matrix(0.00482625,0,0,-0.00147449,-9.7292471,4.3277794)"
         id="path37" />
    </clipPath>
    <clipPath
       clipPathUnits="userSpaceOnUse"
       id="clipPath38">
      <path
         d="m 2505.58,1360.15 -18.58,52.17 v 0 c -1.42,4.07 -2.87,8.25 -4.36,12.55 -0.07,3.55 -0.15,7.12 -0.25,10.73 9.32,-28.98 17.2,-53.4 23.27,-72.13 -0.03,-1.11 -0.05,-2.21 -0.08,-3.32"
         transform="matrix(0.0248755,0,0,-0.01146789,-61.589245,16.537844)"
         id="path38" />
    </clipPath>
    <clipPath
       clipPathUnits="userSpaceOnUse"
       id="clipPath39">
      <path
         d="m 2274.92,2083.78 c -10.4,15.73 -19.91,29.33 -28.06,40.66 -1.43,4.26 -2.85,8.51 -4.27,12.76 7.36,-8.9 16.07,-19.86 25.74,-32.76 2.19,-6.86 4.39,-13.77 6.59,-20.66"
         transform="matrix(0.02262433,0,0,-0.01466271,-50.585744,31.423664)"
         id="path39" />
    </clipPath>
    <linearGradient
       x1="0"
       y1="0"
       x2="1"
       y2="0"
       gradientUnits="userSpaceOnUse"
       gradientTransform="matrix(83.7811,-772.648,-772.648,-83.7811,1933.34,3592.2)"
       spreadMethod="pad"
       id="linearGradient66">
      <stop
         style="stop-opacity:1;stop-color:#c0ddd5"
         offset="0"
         id="stop64" />
      <stop
         style="stop-opacity:1;stop-color:#9fc1b9"
         offset="0.995935"
         id="stop65" />
      <stop
         style="stop-opacity:1;stop-color:#9fc1b9"
         offset="1"
         id="stop66" />
    </linearGradient>
    <clipPath
       clipPathUnits="userSpaceOnUse"
       id="clipPath66">
      <path
         d="m 1964,2902.53 c -0.86,0 -1.61,0.04 -2.25,0.13 -14.04,1.83 -65.56,150.13 -76.86,183.11 v 0 l -2.03,6.81 c 12.98,6.19 24.33,11.3 33.75,15.13 22.81,9.29 62.39,19.4 112.06,29.89 v 0 0 l 84.78,-181.63 c 0,0 -2.26,-1.74 -6.41,-4.64 -7.77,-5.46 -22.21,-15.06 -40.7,-24.89 v 0 c -0.01,-0.01 -0.01,-0.01 -0.01,-0.01 -0.77,-0.4 -1.54,-0.81 -2.31,-1.22 H 2064 v 0 c -1.72,-0.5 -79.84,-22.68 -100,-22.68 m 48.91,225.47 -15.19,-42.54 46.22,-159.72 c 28.43,12.89 39.73,20.77 50.25,28.17 L 2012.91,3128"
         transform="translate(0,-2.5e-5)"
         id="path66" />
    </clipPath>
    <linearGradient
       x1="0"
       y1="0"
       x2="1"
       y2="0"
       gradientUnits="userSpaceOnUse"
       gradientTransform="matrix(-1059.58,-343.153,343.153,-1059.58,2552.5,3339.74)"
       spreadMethod="pad"
       id="linearGradient69">
      <stop
         style="stop-opacity:1;stop-color:#c0ddd5"
         offset="0"
         id="stop67" />
      <stop
         style="stop-opacity:1;stop-color:#9fc1b9"
         offset="0.995935"
         id="stop68" />
      <stop
         style="stop-opacity:1;stop-color:#9fc1b9"
         offset="1"
         id="stop69" />
    </linearGradient>
    <clipPath
       clipPathUnits="userSpaceOnUse"
       id="clipPath69">
      <path
         d="m 1281.55,2781.01 c -0.76,0 -1.4,0.08 -1.91,0.24 -5.54,1.7 0.3,14.61 15.34,35.36 65.84,90.73 308.22,331.21 547.31,437.21 0.6,-0.98 1.2,-1.91 1.79,-2.8 l -15.4,-7.27 -13.37,-19.69 c -241.69,-126.32 -533.73,-411.28 -520.72,-419.83 0.21,-0.14 0.48,-0.2 0.82,-0.2 23.83,-0.01 380.99,324.74 618.29,404.41 229.16,76.93 743.82,43.21 748.89,59.11 4.53,14.23 -182.66,43.26 -387.81,43.26 -92.07,0 -187.77,-5.85 -271.38,-21.51 l -1.64,6.56 -28.84,-0.92 -17.71,-5.73 c -0.07,0.57 -0.15,1.16 -0.24,1.76 -0.09,0.58 -0.19,1.17 -0.29,1.78 92.83,23.42 198.88,32.06 301.49,32.06 177.93,0 345.54,-25.99 416.01,-46.04 25.07,-7.13 37.85,-13.51 34.42,-17.71 -5.88,-7.16 -64.6,-18.79 -148,-32.95 v 0 c -49.41,-1.98 -115.87,-4.7 -159.29,-6.63 -76.6,-3.4 -371.77,-26.6 -374.86,-40.18 -3.1,-13.58 4.22,-43.7 4.22,-43.7 -49.67,-10.49 -89.25,-20.6 -112.06,-29.89 -9.42,-3.83 -20.77,-8.94 -33.75,-15.13 -0.13,-0.06 -0.25,-0.12 -0.38,-0.18 v 0 c -4.42,4.4 -30.69,29.96 -45.7,29.96 -1.06,0 -2.07,-0.13 -3.01,-0.4 -15.42,-4.5 -480,-274.96 -484.65,-313.69 v 0 c -34.55,-16.97 -58.9,-27.26 -67.57,-27.26"
         transform="translate(0,-2.5e-5)"
         id="path69" />
    </clipPath>
    <clipPath
       clipPathUnits="userSpaceOnUse"
       id="clipPath70">
      <path
         d="m 1295.41,2804.03 c -0.34,0 -0.61,0.06 -0.82,0.2 -13.01,8.55 279.03,293.51 520.72,419.83 l -2.18,-3.2 22.82,-5.13 102.32,21.57 67.81,41.3 -2.68,10.7 c 83.61,15.66 179.31,21.51 271.38,21.51 205.15,0 392.34,-29.03 387.81,-43.26 -5.07,-15.9 -519.73,17.82 -748.89,-59.11 -237.3,-79.67 -594.46,-404.42 -618.29,-404.41"
         transform="matrix(7.1316503e-4,0,0,-0.00190767,-0.90707461,6.3317436)"
         id="path70" />
    </clipPath>
    <linearGradient
       x1="0"
       y1="0"
       x2="1"
       y2="0"
       gradientUnits="userSpaceOnUse"
       gradientTransform="matrix(-1059.58,-343.153,343.153,-1059.58,2552.5,3339.74)"
       spreadMethod="pad"
       id="linearGradient73">
      <stop
         style="stop-opacity:1;stop-color:#868896"
         offset="0"
         id="stop71" />
      <stop
         style="stop-opacity:1;stop-color:#737988"
         offset="0.995935"
         id="stop72" />
      <stop
         style="stop-opacity:1;stop-color:#737988"
         offset="1"
         id="stop73" />
    </linearGradient>
    <clipPath
       clipPathUnits="userSpaceOnUse"
       id="clipPath73">
      <path
         d="m 1349.12,2808.27 c 4.65,38.73 469.23,309.19 484.65,313.69 0.94,0.27 1.95,0.4 3.01,0.4 15.01,0 41.28,-25.56 45.7,-29.96 -125.81,-60.01 -402.62,-219.9 -533.36,-284.13"
         transform="translate(0,-2.5e-5)"
         id="path73" />
    </clipPath>
    <linearGradient
       x1="0"
       y1="0"
       x2="1"
       y2="0"
       gradientUnits="userSpaceOnUse"
       gradientTransform="matrix(-1059.58,-343.153,343.153,-1059.58,2552.5,3339.74)"
       spreadMethod="pad"
       id="linearGradient76">
      <stop
         style="stop-opacity:1;stop-color:#abbfbe"
         offset="0"
         id="stop74" />
      <stop
         style="stop-opacity:1;stop-color:#8ea6a6"
         offset="0.995935"
         id="stop75" />
      <stop
         style="stop-opacity:1;stop-color:#8ea6a6"
         offset="1"
         id="stop76" />
    </linearGradient>
    <clipPath
       clipPathUnits="userSpaceOnUse"
       id="clipPath76">
      <path
         d="m 2028.67,3137.6 c 0,0 -7.32,30.12 -4.22,43.7 3.09,13.58 298.26,36.78 374.86,40.18 43.42,1.93 109.88,4.65 159.29,6.63 -151.4,-25.7 -384.15,-59.72 -529.93,-90.51 v 0"
         transform="translate(0,-2.5e-5)"
         id="path76" />
    </clipPath>
    <linearGradient
       x1="0"
       y1="0"
       x2="1"
       y2="0"
       gradientUnits="userSpaceOnUse"
       gradientTransform="matrix(83.7811,-772.648,-772.648,-83.7811,1933.34,3592.2)"
       spreadMethod="pad"
       id="linearGradient79">
      <stop
         style="stop-opacity:1;stop-color:#868896"
         offset="0"
         id="stop77" />
      <stop
         style="stop-opacity:1;stop-color:#737988"
         offset="0.995935"
         id="stop78" />
      <stop
         style="stop-opacity:1;stop-color:#737988"
         offset="1"
         id="stop79" />
    </linearGradient>
    <clipPath
       clipPathUnits="userSpaceOnUse"
       id="clipPath79">
      <path
         d="m 1945.59,2882.39 -60.7,203.38 c 11.3,-32.98 62.82,-181.28 76.86,-183.11 0.64,-0.09 1.39,-0.13 2.25,-0.13 20.16,0 98.28,22.18 100,22.68 -5.85,-3.07 -12.09,-6.15 -18.62,-9.1 -2.05,-0.94 -4.14,-1.88 -6.27,-2.79 -5.29,-2.27 -10.69,-4.46 -16.11,-6.54 -11.54,-4.43 -23.13,-8.4 -33.69,-11.77 -3.47,-1.12 -6.84,-2.17 -10.05,-3.15 -19.59,-5.98 -33.67,-9.47 -33.67,-9.47"
         transform="translate(0,-2.5e-5)"
         id="path79" />
    </clipPath>
    <linearGradient
       x1="0"
       y1="0"
       x2="1"
       y2="0"
       gradientUnits="userSpaceOnUse"
       gradientTransform="matrix(83.7811,-772.648,-772.648,-83.7811,1933.34,3592.2)"
       spreadMethod="pad"
       id="linearGradient82">
      <stop
         style="stop-opacity:1;stop-color:#edf9f6"
         offset="0"
         id="stop80" />
      <stop
         style="stop-opacity:1;stop-color:#e5f6f1"
         offset="0.995935"
         id="stop81" />
      <stop
         style="stop-opacity:1;stop-color:#e5f6f1"
         offset="1"
         id="stop82" />
    </linearGradient>
    <clipPath
       clipPathUnits="userSpaceOnUse"
       id="clipPath82">
      <path
         d="m 2043.94,2925.74 -46.22,159.72 15.19,42.54 81.28,-174.09 c -10.52,-7.4 -21.82,-15.28 -50.25,-28.17"
         transform="translate(0,-2.5e-5)"
         id="path82" />
    </clipPath>
    <linearGradient
       x1="0"
       y1="0"
       x2="1"
       y2="0"
       gradientUnits="userSpaceOnUse"
       gradientTransform="matrix(-1059.58,-343.153,343.153,-1059.58,2552.5,3339.74)"
       spreadMethod="pad"
       id="linearGradient149">
      <stop
         style="stop-opacity:1;stop-color:#f4fbf6"
         offset="0"
         id="stop147" />
      <stop
         style="stop-opacity:1;stop-color:#edf9f1"
         offset="0.995935"
         id="stop148" />
      <stop
         style="stop-opacity:1;stop-color:#edf9f1"
         offset="1"
         id="stop149" />
    </linearGradient>
    <clipPath
       clipPathUnits="userSpaceOnUse"
       id="clipPath149">
      <path
         d="m 1815.31,3224.06 13.37,19.69 15.4,7.27 c 1.99,-3.02 3.91,-5.57 5.74,-7.62 -3.12,-2.06 -7.53,-5.03 -9.94,-6.97 -8.13,-3.93 -16.32,-8.05 -24.57,-12.37 m 157.15,58.86 c 1.47,1.56 2.16,2.67 1.71,3.07 -0.51,0.46 -1.51,0.67 -2.92,0.67 -3.27,0 -8.76,-1.15 -15.63,-3.07 -0.02,1.71 -0.16,3.59 -0.41,5.62 l 17.71,5.73 28.84,0.92 1.64,-6.56 c -10.52,-1.96 -20.83,-4.09 -30.94,-6.38"
         transform="translate(0,-2.5e-5)"
         id="path149" />
    </clipPath>
    <clipPath
       clipPathUnits="userSpaceOnUse"
       id="clipPath150">
      <path
         d="m 1835.95,3215.73 -22.82,5.13 2.18,3.2 c 8.25,4.32 16.44,8.44 24.57,12.37 -1.2,-0.97 -1.91,-1.68 -1.72,-1.9 0.03,-0.03 0.16,-0.05 0.37,-0.05 6.03,0 81.62,12.38 99.95,22.64 7.2,4.04 27.71,19.11 33.98,25.8 10.11,2.29 20.42,4.42 30.94,6.38 l 2.68,-10.7 -67.81,-41.3 -102.32,-21.57"
         transform="matrix(0.00480307,0,0,-0.01146786,-8.6642651,37.787761)"
         id="path150" />
    </clipPath>
    <linearGradient
       x1="0"
       y1="0"
       x2="1"
       y2="0"
       gradientUnits="userSpaceOnUse"
       gradientTransform="matrix(-1059.58,-343.153,343.153,-1059.58,2552.5,3339.74)"
       spreadMethod="pad"
       id="linearGradient240">
      <stop
         style="stop-opacity:1;stop-color:#978c9b"
         offset="0"
         id="stop238" />
      <stop
         style="stop-opacity:1;stop-color:#958c9a"
         offset="0.995935"
         id="stop239" />
      <stop
         style="stop-opacity:1;stop-color:#958c9a"
         offset="1"
         id="stop240" />
    </linearGradient>
    <clipPath
       clipPathUnits="userSpaceOnUse"
       id="clipPath240">
      <path
         d="m 1839.88,3236.43 c 2.41,1.94 6.82,4.91 9.94,6.97 0.51,-0.56 1.01,-1.08 1.5,-1.55 -3.79,-1.76 -7.62,-3.57 -11.44,-5.42 m 115.35,42.37 c 0.26,1.31 0.39,2.8 0.39,4.47 0,0.11 0,0.21 0,0.32 6.87,1.92 12.36,3.07 15.63,3.07 1.41,0 2.41,-0.21 2.92,-0.67 0.45,-0.4 -0.24,-1.51 -1.71,-3.07 -5.82,-1.31 -11.57,-2.69 -17.23,-4.12"
         transform="translate(0,-2.5e-5)"
         id="path240" />
    </clipPath>
    <clipPath
       clipPathUnits="userSpaceOnUse"
       id="clipPath241">
      <path
         d="m 1838.53,3234.48 c -0.21,0 -0.34,0.02 -0.37,0.05 -0.19,0.22 0.52,0.93 1.72,1.9 3.82,1.85 7.65,3.66 11.44,5.42 0.12,-0.12 0.24,-0.24 0.36,-0.35 0.58,-0.54 1.76,-0.79 3.45,-0.79 17.91,0 92.75,27.9 98.24,33.95 0.9,1 1.5,2.39 1.86,4.14 5.66,1.43 11.41,2.81 17.23,4.12 -6.27,-6.69 -26.78,-21.76 -33.98,-25.8 -18.33,-10.26 -93.92,-22.64 -99.95,-22.64"
         transform="matrix(0.00665779,0,0,-0.01582273,-12.169773,52.058383)"
         id="path241" />
    </clipPath>
    <linearGradient
       x1="0"
       y1="0"
       x2="1"
       y2="0"
       gradientUnits="userSpaceOnUse"
       gradientTransform="matrix(283.491,-275.225,-275.225,-283.491,1730.43,3455.1)"
       spreadMethod="pad"
       id="linearGradient244">
      <stop
         style="stop-opacity:1;stop-color:#de611c"
         offset="0"
         id="stop242" />
      <stop
         style="stop-opacity:1;stop-color:#9b1a2d"
         offset="0.994595"
         id="stop243" />
      <stop
         style="stop-opacity:1;stop-color:#9b1a2d"
         offset="1"
         id="stop244" />
    </linearGradient>
    <clipPath
       clipPathUnits="userSpaceOnUse"
       id="clipPath244">
      <path
         d="m 1874.86,3273.59 c -6.76,0 -11.73,0.36 -13.57,1.02 -8.42,3 -14.65,29.57 -14.65,29.57 l -9.37,2.43 11.37,-1.92 77.61,27.13 6.5,22.55 -0.01,0.05 -2.34,2.41 v 0 0 l 2.34,-2.41 c 4.5,-5.19 8.04,-12.77 10.82,-21.31 4.92,-15.08 9.27,-29.45 11.12,-40.36 0.1,-0.61 0.2,-1.2 0.29,-1.78 0.09,-0.6 0.17,-1.19 0.24,-1.76 0.25,-2.03 0.39,-3.91 0.41,-5.62 0,-0.11 0,-0.21 0,-0.32 0,2.26 -0.23,4.85 -0.65,7.7 l -0.4,-0.66 c -8.44,-12.11 -55.52,-16.72 -79.71,-16.72"
         transform="translate(0,-2.5e-5)"
         id="path244" />
    </clipPath>
    <linearGradient
       x1="0"
       y1="0"
       x2="1"
       y2="0"
       gradientUnits="userSpaceOnUse"
       gradientTransform="matrix(-49.6481,-211.004,-211.004,49.6481,1900.37,3432.27)"
       spreadMethod="pad"
       id="linearGradient246">
      <stop
         style="stop-opacity:1;stop-color:#ffffff"
         offset="0"
         id="stop245" />
      <stop
         style="stop-opacity:1;stop-color:#ffffff"
         offset="1"
         id="stop246" />
    </linearGradient>
    <clipPath
       clipPathUnits="userSpaceOnUse"
       id="clipPath246">
      <path
         d="m 1820.75,3309.41 c 8.44,17.28 66.48,51.42 96.29,51.42 5.64,0 10.26,-1.22 13.36,-4 -3.1,2.78 -7.72,3.99 -13.35,3.99 -29.02,0 -84.79,-32.34 -95.53,-50.02 l -0.77,-1.39"
         transform="translate(0,-2.5e-5)"
         id="path246" />
    </clipPath>
    <clipPath
       clipPathUnits="userSpaceOnUse"
       id="clipPath247">
      <path
         d="m 1848.64,3304.69 -11.37,1.92 -15.72,4.07 -0.03,0.12 -0.77,-1.39 v 0 l 0.77,1.39 c 10.74,17.68 66.51,50.02 95.53,50.02 5.63,0 10.25,-1.21 13.35,-3.99 v 0 l 2.34,-2.41 0.01,-0.05 -6.5,-22.55 -77.61,-27.13"
         transform="matrix(0.00792393,0,0,-0.01466271,-14.373217,49.370826)"
         id="path247" />
    </clipPath>
    <linearGradient
       x1="0"
       y1="0"
       x2="1"
       y2="0"
       gradientUnits="userSpaceOnUse"
       gradientTransform="matrix(283.491,-275.225,-275.225,-283.491,1730.43,3455.1)"
       spreadMethod="pad"
       id="linearGradient250">
      <stop
         style="stop-opacity:1;stop-color:#a63421"
         offset="0"
         id="stop248" />
      <stop
         style="stop-opacity:1;stop-color:#821c2c"
         offset="0.994595"
         id="stop249" />
      <stop
         style="stop-opacity:1;stop-color:#821c2c"
         offset="1"
         id="stop250" />
    </linearGradient>
    <clipPath
       clipPathUnits="userSpaceOnUse"
       id="clipPath250">
      <path
         d="m 1855.13,3240.71 c -1.69,0 -2.87,0.25 -3.45,0.79 -6.18,5.81 -13.31,18.09 -21.14,34.16 l -0.12,0.28 c -0.53,1.07 -1.06,2.17 -1.6,3.29 -4.73,9.89 -8.57,19.62 -9.11,25.93 -0.01,0.14 -0.02,0.28 -0.02,0.42 0,1.14 0.36,2.42 1.06,3.83 v 0 l 16.52,-2.8 9.37,-2.43 c 0,0 6.23,-26.57 14.65,-29.57 1.84,-0.66 6.81,-1.02 13.57,-1.02 24.19,0 71.27,4.61 79.71,16.72 l 0.4,0.66 c 0.42,-2.85 0.65,-5.44 0.65,-7.7 0,-3.91 -0.69,-6.87 -2.25,-8.61 -5.49,-6.05 -80.33,-33.95 -98.24,-33.95"
         transform="translate(0,-2.5e-5)"
         id="path250" />
    </clipPath>
    <clipPath
       clipPathUnits="userSpaceOnUse"
       id="clipPath251">
      <path
         d="m 1837.27,3306.61 -16.52,2.8 0.77,1.39 0.03,-0.12 15.72,-4.07"
         transform="matrix(0.03311258,0,0,-0.04950446,-60.062913,164.31026)"
         id="path251" />
    </clipPath>
  </defs>
  <g
     inkscape:label="Capa 1"
     inkscape:groupmode="layer"
     id="layer1">
    <g
       id="g1"
       transform="rotate(60,32.40545,30.545103)"
       style="fill:#000000">
      <path
         id="path14"
         d="m 2533.03,1320.62 c -6.37,0 -11.09,0.94 -13.31,3.05 -0.54,0.52 -1.79,3.22 -3.69,7.97 v 0 c -2.39,7.24 -5.89,17.98 -10.37,31.83 2.21,104.51 -7.68,245.02 -59.02,399.54 -51.37,154.61 -127.98,274.28 -178.31,341.43 -17.49,54.76 -34.61,108.39 -50.89,159.44 49.56,-56.77 108.03,-128.79 143.61,-189.79 39.3992,-67.5399 110.2971,-264.5399 164.2196,-433.1217 43.496,-135.9843 75.9466,-253.4779 71.9104,-269.6183 -5.48,-21.92 -55.73,-48.15 -60.63,-50.65 v 0 c -1.22,-0.05 -2.4,-0.08 -3.52,-0.08 m -20.76,20.77 c -1.91,5.07 -4.15,11.18 -6.7,18.26 0.01,0.17 0.01,0.33 0.01,0.5 l 6.69,-18.76 m 131.29,22.75 c 0.01,25.25 -119.31,332.22 -248.39,666.41 -14.16,36.67 -28.44,73.66 -42.69,110.65 l -0.01,0.01 c -34.63,89.87 -69.1,179.71 -101.33,264.66 32.23,-84.95 66.71,-174.8 101.34,-264.67 14.25,-36.99 28.53,-73.98 42.69,-110.65 129.08,-334.19 248.4,-641.16 248.39,-666.41 m -161.17,71.46 c -46.68,145.08 -129.91,405.32 -207.47,648.18 45.97,-69.46 109.66,-180.44 153.49,-320.77 38.52,-123.3 51.42,-236.35 53.98,-327.41 m -138.21,708.44 c -5.1,1.75 -9.95,3.4 -13.63,4.62 -6.46,2.15 -74.68,80.75 -138.11,193.58 -52.24,163.8 -91.56,287.31 -98.25,308.73 -22.78,72.92 -80.51,224.84 -62.03,237.06 v 0 c 46.77,-95.59 102.36,-208.55 148.35,-335.56 56.88,-157.06 115.55,-298.65 163.67,-408.43"
         style="fill:#000000;fill-opacity:1;fill-rule:nonzero;stroke:none"
         transform="matrix(0.03527778,0,0,-0.03527778,-42.973902,121.41327)"
         clip-path="url(#clipPath16)"
         sodipodi:nodetypes="ccsscscccscsscccccccccccccccccccccsscc" />
      <path
         id="path17"
         d="m 2189.66,2295.19 c -4.12,12.3 -67.56,197.64 -72.55,212.43 4.19,-12.2 8.66,-24.25 13.35,-36.16 14.81,-43.97 30.53,-90.78 46.84,-139.39 4.09,-12.18 8.21,-24.48 12.36,-36.88 m 61.48,110.68 c -64.82,170.86 -120.57,321.99 -150.37,414.21 -9.11,28.19 -17.48,54.06 -25.18,77.81 h 0.01 l -1.42,4.34 v 0 l -3.12,9.63 c -1.6,4.95 -3.18,9.81 -4.72,14.58 v 0 c 10.11,-31.17 21.53,-66.44 34.43,-106.35 29.81,-92.22 85.56,-243.36 150.37,-414.22"
         style="fill:#000000;fill-opacity:1;fill-rule:nonzero;stroke:none"
         transform="matrix(0.03527778,0,0,-0.03527778,-42.973902,121.41327)"
         clip-path="url(#clipPath18)" />
      <image
         width="1"
         height="0.79012346"
         style="display:inline;fill:#000000;image-rendering:optimizeSpeed"
         preserveAspectRatio="none"
         xlink:href="../../../../../Pictures/black.png"
         transform="matrix(22.055666,0,0,57.262889,28.460072,17.86947)"
         id="image18"
         clip-path="url(#clipPath19)" />
      <path
         id="path20"
         d="m 2504.37,1327 c -7.34,11.4 -14.69,22.79 -22.03,34.18 0.57,19.65 0.75,40.94 0.3,63.69 1.49,-4.3 2.94,-8.48 4.36,-12.55 v 0 c 7.29,-20.98 13.54,-38.71 18.57,-52.67 -0.27,-11.32 -0.69,-22.22 -1.2,-32.65"
         style="fill:#000000;fill-opacity:1;fill-rule:nonzero;stroke:none"
         transform="matrix(0.03527778,0,0,-0.03527778,-42.973902,121.41327)"
         clip-path="url(#clipPath21)" />
      <image
         width="1.265625"
         height="1"
         style="display:inline;fill:#000000;image-rendering:optimizeSpeed"
         preserveAspectRatio="none"
         xlink:href="../../../../../Pictures/black.png"
         transform="matrix(9.0381666,0,0,26.959277,36.750348,46.832524)"
         id="image21"
         clip-path="url(#clipPath22)"
         inkscape:svg-dpi="96" />
      <path
         id="path23"
         d="m 2246.86,2124.44 c -18.67,25.93 -30.28,39.96 -29.61,40.39 0.01,0.01 0.02,0.01 0.04,0.01 0.88,0 10.33,-9.56 25.3,-27.64 1.42,-4.25 2.84,-8.5 4.27,-12.76"
         style="fill:#000000;fill-opacity:1;fill-rule:nonzero;stroke:none"
         transform="matrix(0.03527778,0,0,-0.03527778,-42.973902,121.41327)"
         clip-path="url(#clipPath24)" />
      <path
         id="path25"
         d="m 45.909162,74.809562 -0.255764,-0.71755 v 0 c 0.05115,0.13618 0.0956,0.25083 0.132646,0.34396 v 0 c 0.07267,0.22084 0.115004,0.34855 0.123118,0.37359"
         style="fill:#000000;fill-opacity:1;fill-rule:nonzero;stroke:none;stroke-width:0.0352777" />
      <path
         id="path26"
         d="m 2516.03,1331.64 c -1.05,2.64 -2.31,5.89 -3.76,9.75 v 0 l -6.69,18.76 c 0.03,1.11 0.05,2.21 0.08,3.32 4.48,-13.85 7.98,-24.59 10.37,-31.83"
         style="fill:#000000;fill-opacity:1;fill-rule:nonzero;stroke:none"
         transform="matrix(0.03527778,0,0,-0.03527778,-42.973902,121.41327)"
         clip-path="url(#clipPath28)" />
      <path
         id="path29"
         d="m 2482.64,1424.87 c -50.6,146.16 -145.03,428.51 -235.78,699.57 8.15,-11.33 17.66,-24.93 28.06,-40.66 77.56,-242.86 160.79,-503.1 207.47,-648.18 0.1,-3.61 0.18,-7.18 0.25,-10.73"
         style="fill:#000000;fill-opacity:1;fill-rule:nonzero;stroke:none"
         transform="matrix(0.03527778,0,0,-0.03527778,-42.973902,121.41327)"
         clip-path="url(#clipPath31)" />
      <path
         id="path32"
         d="m 2268.33,2104.44 c -9.67,12.9 -18.38,23.86 -25.74,32.76 -17.94,53.58 -35.7,106.62 -52.93,157.99 8.76,-9.73 18.1,-20.23 27.78,-31.31 16.28,-51.05 33.4,-104.68 50.89,-159.44 m -75.89,237.8 c -22.2,39.49 -43.81,83.16 -61.98,129.22 -52.52,155.98 -93.54,276.34 -108.41,315.59 -13,34.29 -27.76,70.07 -42.79,104.81 3.21,0.98 6.58,2.03 10.05,3.15 10.56,3.37 22.15,7.34 33.69,11.77 3.01,-6.17 6.07,-12.42 9.16,-18.75 v 0 c -18.48,-12.22 39.25,-164.14 62.03,-237.06 6.69,-21.42 46.01,-144.93 98.25,-308.73"
         style="fill:#000000;fill-opacity:1;fill-rule:nonzero;stroke:none"
         transform="matrix(0.03527778,0,0,-0.03527778,-42.973902,121.41327)"
         clip-path="url(#clipPath34)" />
      <path
         id="path35"
         d="m 2075.6,2897.89 h -0.01 v 0 c -0.47,1.45 -0.94,2.9 -1.41,4.34 l 1.42,-4.34"
         style="fill:#000000;fill-opacity:1;fill-rule:nonzero;stroke:none"
         transform="matrix(0.03527778,0,0,-0.03527778,-42.973902,121.41327)"
         clip-path="url(#clipPath36)" />
      <image
         width="1.265625"
         height="1"
         style="display:inline;fill:#000000;image-rendering:optimizeSpeed"
         preserveAspectRatio="none"
         xlink:href="../../../../../Pictures/black.png"
         transform="matrix(7.3095556,0,0,23.925389,28.142572,17.86947)"
         id="image36"
         clip-path="url(#clipPath37)"
         inkscape:svg-dpi="96" />
      <image
         width="1.265625"
         height="1"
         style="display:inline;fill:#000000;image-rendering:optimizeSpeed"
         preserveAspectRatio="none"
         xlink:href="../../../../../Pictures/black.png"
         transform="matrix(1.5592848,0,0,2.4059515,35.903682,45.809462)"
         id="image38"
         clip-path="url(#clipPath39)" />
      <path
         id="path64"
         d="m 1964,2902.53 c -0.86,0 -1.61,0.04 -2.25,0.13 -14.04,1.83 -65.56,150.13 -76.86,183.11 v 0 l -2.03,6.81 c 12.98,6.19 24.33,11.3 33.75,15.13 22.81,9.29 62.39,19.4 112.06,29.89 v 0 0 l 84.78,-181.63 c 0,0 -2.26,-1.74 -6.41,-4.64 -7.77,-5.46 -22.21,-15.06 -40.7,-24.89 v 0 c -0.01,-0.01 -0.01,-0.01 -0.01,-0.01 -0.77,-0.4 -1.54,-0.81 -2.31,-1.22 H 2064 v 0 c -1.72,-0.5 -79.84,-22.68 -100,-22.68 m 48.91,225.47 -15.19,-42.54 46.22,-159.72 c 28.43,12.89 39.73,20.77 50.25,28.17 L 2012.91,3128"
         style="fill:#000000;fill-opacity:1;fill-rule:nonzero;stroke:none"
         transform="matrix(0.03527778,0,0,-0.03527778,-42.973902,121.41327)"
         clip-path="url(#clipPath66)" />
      <path
         id="path67"
         d="m 1281.55,2781.01 c -0.76,0 -1.4,0.08 -1.91,0.24 -5.54,1.7 0.3,14.61 15.34,35.36 65.84,90.73 308.22,331.21 547.31,437.21 0.6,-0.98 1.2,-1.91 1.79,-2.8 l -15.4,-7.27 -13.37,-19.69 c -175.2143,-91.5763 -376.8905,-266.5272 -469.6188,-359.096 -35.1809,-35.1203 -54.6795,-58.3824 -51.1012,-60.734 0.21,-0.14 0.48,-0.2 0.82,-0.2 23.83,-0.01 380.99,324.74 618.29,404.41 229.16,76.93 743.82,43.21 748.89,59.11 4.53,14.23 -182.66,43.26 -387.81,43.26 -92.07,0 -187.77,-5.85 -271.38,-21.51 l -1.64,6.56 -28.84,-0.92 -17.71,-5.73 c -0.07,0.57 -0.15,1.16 -0.24,1.76 -0.09,0.58 -0.19,1.17 -0.29,1.78 92.83,23.42 198.88,32.06 301.49,32.06 177.93,0 345.54,-25.99 416.01,-46.04 25.07,-7.13 37.85,-13.51 34.42,-17.71 -5.88,-7.16 -64.6,-18.79 -148,-32.95 v 0 c -49.41,-1.98 -115.87,-4.7 -159.29,-6.63 -76.6,-3.4 -371.77,-26.6 -374.86,-40.18 -3.1,-13.58 4.22,-43.7 4.22,-43.7 -49.67,-10.49 -89.25,-20.6 -112.06,-29.89 -9.42,-3.83 -20.77,-8.94 -33.75,-15.13 -0.13,-0.06 -0.25,-0.12 -0.38,-0.18 v 0 c -4.42,4.4 -30.69,29.96 -45.7,29.96 -1.06,0 -2.07,-0.13 -3.01,-0.4 -15.42,-4.5 -480,-274.96 -484.65,-313.69 v 0 c -34.55,-16.97 -58.9,-27.26 -67.57,-27.26"
         style="fill:#000000;fill-opacity:1;fill-rule:nonzero;stroke:none"
         transform="matrix(0.03527778,0,0,-0.03527778,-42.973902,121.41327)"
         clip-path="url(#clipPath69)"
         sodipodi:nodetypes="cccccccsccccsccccccsccsscccccssscssc" />
      <image
         width="1"
         height="0.79012346"
         style="opacity:1;mix-blend-mode:darken;fill:#000000;image-rendering:optimizeSpeed;stroke-width:1.36369298;stroke-dasharray:none"
         preserveAspectRatio="none"
         xlink:href="../../../../../Pictures/black.png"
         transform="matrix(49.466499,0,0,18.492611,1.8959044,4.3228029)"
         id="image69"
         clip-path="url(#clipPath70)"
         inkscape:highlight-color="#000000" />
      <path
         id="path71"
         d="m 1349.12,2808.27 c 4.65,38.73 469.23,309.19 484.65,313.69 0.94,0.27 1.95,0.4 3.01,0.4 15.01,0 41.28,-25.56 45.7,-29.96 -125.81,-60.01 -402.62,-219.9 -533.36,-284.13"
         style="fill:#000000;fill-opacity:1;fill-rule:nonzero;stroke:none"
         transform="matrix(0.03527778,0,0,-0.03527778,-42.973902,121.41327)"
         clip-path="url(#clipPath73)" />
      <path
         id="path74"
         d="m 2028.67,3137.6 c 0,0 -7.32,30.12 -4.22,43.7 3.09,13.58 298.26,36.78 374.86,40.18 43.42,1.93 109.88,4.65 159.29,6.63 -151.4,-25.7 -384.15,-59.72 -529.93,-90.51 v 0"
         style="fill:#000000;fill-opacity:1;fill-rule:nonzero;stroke:none"
         transform="matrix(0.03527778,0,0,-0.03527778,-42.973902,121.41327)"
         clip-path="url(#clipPath76)" />
      <path
         id="path77"
         d="m 1945.59,2882.39 -60.7,203.38 c 11.3,-32.98 62.82,-181.28 76.86,-183.11 0.64,-0.09 1.39,-0.13 2.25,-0.13 20.16,0 98.28,22.18 100,22.68 -5.85,-3.07 -12.09,-6.15 -18.62,-9.1 -2.05,-0.94 -4.14,-1.88 -6.27,-2.79 -5.29,-2.27 -10.69,-4.46 -16.11,-6.54 -11.54,-4.43 -23.13,-8.4 -33.69,-11.77 -3.47,-1.12 -6.84,-2.17 -10.05,-3.15 -19.59,-5.98 -33.67,-9.47 -33.67,-9.47"
         style="fill:#000000;fill-opacity:1;fill-rule:nonzero;stroke:none"
         transform="matrix(0.03527778,0,0,-0.03527778,-42.973902,121.41327)"
         clip-path="url(#clipPath79)" />
      <path
         id="path80"
         d="m 2043.94,2925.74 -46.22,159.72 15.19,42.54 81.28,-174.09 c -10.52,-7.4 -21.82,-15.28 -50.25,-28.17"
         style="fill:#000000;fill-opacity:1;fill-rule:nonzero;stroke:none"
         transform="matrix(0.03527778,0,0,-0.03527778,-42.973902,121.41327)"
         clip-path="url(#clipPath82)" />
      <path
         id="path147"
         d="m 1815.31,3224.06 13.37,19.69 15.4,7.27 c 1.99,-3.02 3.91,-5.57 5.74,-7.62 -3.12,-2.06 -7.53,-5.03 -9.94,-6.97 -8.13,-3.93 -16.32,-8.05 -24.57,-12.37 m 157.15,58.86 c 1.47,1.56 2.16,2.67 1.71,3.07 -0.51,0.46 -1.51,0.67 -2.92,0.67 -3.27,0 -8.76,-1.15 -15.63,-3.07 -0.02,1.71 -0.16,3.59 -0.41,5.62 l 17.71,5.73 28.84,0.92 1.64,-6.56 c -10.52,-1.96 -20.83,-4.09 -30.94,-6.38"
         style="fill:#000000;fill-opacity:1;fill-rule:nonzero;stroke:none"
         transform="matrix(0.03527778,0,0,-0.03527778,-42.973902,121.41327)"
         clip-path="url(#clipPath149)" />
      <path
         id="path151"
         d="m 28.417029,7.3062449 c 0,0 6.88199,-0.716491 11.250083,-0.743301 4.367742,-0.02681 9.86014,-0.261409 9.86014,-0.261409 0,0 -5.947127,-0.306565 -9.270648,-0.22084 -7.288741,0.187325 -11.839575,1.22555 -11.839575,1.22555"
         style="fill:#000000;fill-opacity:1;fill-rule:nonzero;stroke:none;stroke-width:0.0352777" />
      <path
         id="path237"
         d="m 29.945617,5.0273019 c 0.04763,0.0085 5.252154,-0.42051 7.8994,-0.3937 2.679345,0.02681 8.458904,0.509058 8.458904,0.509058 0,0 -4.546246,-0.750358 -8.458904,-0.750358 -5.091642,0 -7.8994,0.635 -7.8994,0.635"
         style="fill:#000000;fill-opacity:1;fill-rule:nonzero;stroke:none;stroke-width:0.0352777" />
      <path
         id="path238"
         d="m 1839.88,3236.43 c 2.41,1.94 6.82,4.91 9.94,6.97 0.51,-0.56 1.01,-1.08 1.5,-1.55 -3.79,-1.76 -7.62,-3.57 -11.44,-5.42 m 115.35,42.37 c 0.26,1.31 0.39,2.8 0.39,4.47 0,0.11 0,0.21 0,0.32 6.87,1.92 12.36,3.07 15.63,3.07 1.41,0 2.41,-0.21 2.92,-0.67 0.45,-0.4 -0.24,-1.51 -1.71,-3.07 -5.82,-1.31 -11.57,-2.69 -17.23,-4.12"
         style="fill:#000000;fill-opacity:1;fill-rule:nonzero;stroke:none"
         transform="matrix(0.03527778,0,0,-0.03527778,-42.973902,121.41327)"
         clip-path="url(#clipPath240)" />
      <image
         width="1.265625"
         height="1"
         style="display:inline;fill:#000000;image-rendering:optimizeSpeed"
         preserveAspectRatio="none"
         xlink:href="../../../../../Pictures/black.png"
         transform="matrix(5.2987222,0,0,2.2295626,21.510349,5.3458519)"
         id="image240"
         clip-path="url(#clipPath241)"
         inkscape:svg-dpi="96" />
      <path
         id="path242"
         d="m 1874.86,3273.59 c -6.76,0 -11.73,0.36 -13.57,1.02 -8.42,3 -14.65,29.57 -14.65,29.57 l -9.37,2.43 11.37,-1.92 77.61,27.13 6.5,22.55 -0.01,0.05 -2.34,2.41 v 0 0 l 2.34,-2.41 c 4.5,-5.19 8.04,-12.77 10.82,-21.31 4.92,-15.08 9.27,-29.45 11.12,-40.36 0.1,-0.61 0.2,-1.2 0.29,-1.78 0.09,-0.6 0.17,-1.19 0.24,-1.76 0.25,-2.03 0.39,-3.91 0.41,-5.62 0,-0.11 0,-0.21 0,-0.32 0,2.26 -0.23,4.85 -0.65,7.7 l -0.4,-0.66 c -8.44,-12.11 -55.52,-16.72 -79.71,-16.72"
         style="fill:#000000;fill-opacity:1;fill-rule:nonzero;stroke:none"
         transform="matrix(0.03527778,0,0,-0.03527778,-42.973902,121.41327)"
         clip-path="url(#clipPath244)" />
      <path
         id="path245"
         d="m 1820.75,3309.41 c 8.44,17.28 66.48,51.42 96.29,51.42 5.64,0 10.26,-1.22 13.36,-4 -3.1,2.78 -7.72,3.99 -13.35,3.99 -29.02,0 -84.79,-32.34 -95.53,-50.02 l -0.77,-1.39"
         style="fill:#000000;fill-opacity:1;fill-rule:nonzero;stroke:none"
         transform="matrix(0.03527778,0,0,-0.03527778,-42.973902,121.41327)"
         clip-path="url(#clipPath246)" />
      <image
         width="1.265625"
         height="1"
         style="display:none;fill:#000000;image-rendering:optimizeSpeed"
         preserveAspectRatio="none"
         xlink:href="../../../../../Pictures/black.png"
         transform="matrix(4.4520556,0,0,2.4059515,21.016459,2.6294619)"
         id="image246"
         clip-path="url(#clipPath247)"
         inkscape:highlight-color="#000000" />
      <path
         id="path248"
         d="m 1855.13,3240.71 c -1.69,0 -2.87,0.25 -3.45,0.79 -6.18,5.81 -13.31,18.09 -21.14,34.16 l -0.12,0.28 c -0.53,1.07 -1.06,2.17 -1.6,3.29 -4.73,9.89 -8.57,19.62 -9.11,25.93 -0.01,0.14 -0.02,0.28 -0.02,0.42 0,1.14 0.36,2.42 1.06,3.83 v 0 l 16.52,-2.8 9.37,-2.43 c 0,0 6.23,-26.57 14.65,-29.57 1.84,-0.66 6.81,-1.02 13.57,-1.02 24.19,0 71.27,4.61 79.71,16.72 l 0.4,0.66 c 0.42,-2.85 0.65,-5.44 0.65,-7.7 0,-3.91 -0.69,-6.87 -2.25,-8.61 -5.49,-6.05 -80.33,-33.95 -98.24,-33.95"
         style="fill:#000000;fill-opacity:1;fill-rule:nonzero;stroke:none"
         transform="matrix(0.03527778,0,0,-0.03527778,-42.973902,121.41327)"
         clip-path="url(#clipPath250)" />
    </g>
  </g>
</svg>
