<svg width="32" height="32" viewBox="0 0 32 32" fill="none" xmlns="http://www.w3.org/2000/svg">
    <path d="M21.8433 22.8514L23.6211 24.2422L26.708 20.8738L23.0698 18.0157L21.5539 19.6617L21.8433 22.8514Z"
          fill="black"/>
    <path d="M32 24.9949L25.1508 24.9822L25.137 31.451H29.8088L32 29.2565V24.9949Z" fill="black"/>
    <path d="M19.6245 31.7955L21.9398 31.1575L19.8588 24.7015L14.9114 26.0667L13.9467 29.9199L19.6245 31.7955Z"
          fill="black"/>
    <path d="M14.8562 3.52149C9.49537 0.612434 6.68402 0.523121 1.81927 0L1.64012 0.842097C7.69004 2.14352 9.21975 3.4577 13.3679 5.7926L13.9467 8.33165L0.220658 29.2692C0.0828463 29.5244 0.000159316 29.7924 0.000159316 30.0986C-0.0136218 31.1321 0.868372 31.9869 1.98465 31.9997C2.71505 32.0124 3.36276 31.6552 3.73485 31.1193L17.2404 10.6666L22.7391 13.9201L25.5642 9.60756L14.8562 3.52149Z"
          fill="black"/>
</svg>
