<svg width="666" height="669" viewBox="0 0 666 669" fill="none" xmlns="http://www.w3.org/2000/svg">
<path d="M144.813 567.125C141.5 559.312 138.313 551.5 135.188 543.688C111.625 484.25 141.188 430.625 167.563 378.125L205.813 302.125C213.5 286.812 225.313 273.938 239.813 264.938L349.813 196.688L458.5 84.3125C465.247 77.3114 473.857 72.3882 483.313 70.125L557.313 52.25C593.125 43.6875 608.5 45.0625 620.063 61.5C660.125 118.375 686.938 165.188 722.625 221.875C742.063 252.75 786.938 323.688 789.75 328.375C798.375 342.875 794.875 355 794.563 371.625C793.813 409.938 800.563 448.438 814.563 484.125C818.75 494.75 823.563 505.25 825.75 516.437C827.75 526.5 825.063 590.438 823 612.062C821.313 629.625 779.813 695.188 764.938 703.125C748.563 711.875 627.188 756.5 600.375 764.125C573.563 771.75 457.313 745.188 396.938 735.938C359.625 730.25 322.25 724.5 284.938 718.812C252.563 713.875 220.375 717.625 202.25 684.938C180.938 646.688 161.813 607.375 144.813 567.125Z" fill="url(#paint0_linear_29_356)"/>
<path d="M284.875 718.75C322.187 724.438 359.562 730.187 396.875 735.875C416.312 738.875 441.562 743.625 467.75 748.5C450.125 727.625 423.812 702.875 406.187 682C402.375 677.5 398.5 672.813 397.125 667.063C395.687 660.938 397.312 654.625 399 648.562C404.375 628.687 405.75 607.125 411.125 587.25C377.812 595 301.062 609.75 294.75 607.937C287.75 605.937 282.062 600.875 276.625 595.937C237.062 559.812 206.125 523.375 175.875 479.313C172.312 474.125 168.687 468.75 167.375 462.563C166.125 456.75 167.062 450.75 168 444.938C170.25 430.438 175.25 390.25 179.25 354.812L167.5 378.125C141.187 430.625 111.625 484.25 135.25 543.687C138.375 551.562 141.562 559.375 144.875 567.125C161.829 607.365 180.962 646.653 202.187 684.812C220.25 717.562 252.5 713.812 284.875 718.75Z" fill="url(#paint1_linear_29_356)"/>
<path d="M620.563 62.1875C612.875 53.125 597.875 54.875 582.125 69.25L525.5 125.875C522 129.375 520.125 134.188 520.437 139.125L526.5 254.75C526.688 258.625 528.125 262.25 530.625 265.187C550.75 288.687 621.875 401.625 642.5 401.625C663.062 401.625 699 321.5 717.312 321.937C720.438 322 736.75 323 752.688 327.875C767.563 332.375 773.375 311.937 770.313 297.437C754.938 273.062 734.25 240.375 722.625 221.875C687.062 165.437 660.313 118.75 620.563 62.1875Z" fill="url(#paint2_linear_29_356)"/>
<path d="M357.063 289.812C377.875 286.687 447.313 274.875 460.375 269.75C485.875 259.688 508.375 216.812 523.25 193.75C523.25 193.75 528.375 268.938 523.25 298.312C519.688 318.75 506.25 425.625 492.75 451.25L411.125 587.25L291.188 467.312C281 457.125 274.5 451.75 270.813 437.312C262.375 404.312 247.063 355.625 247 326.938C246.938 298.25 324.25 294.687 357.063 289.812Z" fill="url(#paint3_linear_29_356)"/>
<path d="M508.75 129.625C500.75 120.062 498.5 106.5 501.25 94.375C503.562 84.25 524.562 64.6875 531.375 58.5L483.312 70.125C473.867 72.4139 465.264 77.3331 458.5 84.3125L349.812 196.688C349.812 196.688 455.063 152.812 508.75 129.625Z" fill="url(#paint4_linear_29_356)"/>
<path d="M814.5 484.125C804.007 457.333 797.561 429.128 795.375 400.438C759.5 425 739.437 456.875 681.687 464.687C666.375 466.75 642.687 469.625 627.75 473.562C609.25 478.437 592.125 492.125 564.375 494.688C544.625 496.563 494.812 495.125 502.312 506.25C509.812 517.375 554.5 539.812 565.625 548.875C581.437 561.562 595.187 576.5 608.375 591.875C615.25 599.937 625.562 619.5 637.562 624.813C640.625 626.188 643.875 626.562 647.125 625.562C652.812 623.875 657.375 619.75 661.812 615.812C704.838 577.695 753.203 546.069 805.375 521.938C810.937 519.375 816.937 516.5 819.687 511C820.875 508.563 821.375 505.25 821.437 501.687C819.25 495.812 816.812 490 814.5 484.125Z" fill="url(#paint5_linear_29_356)"/>
<path d="M825.688 516.437C824.875 512.375 823.688 508.375 822.312 504.438C821.25 508.125 818.937 512.187 813.937 516C799.562 527 744.125 543.938 683.125 597.375C643.312 632.25 643.25 636.937 634.687 675.375C620.687 738.312 598.438 761.188 594.188 765.063C596.5 764.813 598.563 764.5 600.25 764C627.125 756.437 748.437 711.75 764.812 703C779.687 695.063 821.187 629.5 822.875 611.938C825 590.438 827.688 526.5 825.688 516.437Z" fill="url(#paint6_linear_29_356)"/>
<path d="M16.674 676.733C15.6844 674.175 14.7321 671.616 13.7985 669.058C6.75923 649.592 15.591 632.03 23.4706 614.836L34.8978 589.946C37.1944 584.931 40.7234 580.715 45.0552 577.767L77.9177 555.415L110.388 518.612C112.404 516.319 114.976 514.707 117.801 513.966L139.908 508.112C150.607 505.308 155.201 505.758 158.655 511.141C170.624 529.768 178.634 545.099 189.295 563.664C195.102 573.776 208.509 597.008 209.349 598.543C211.926 603.292 210.88 607.262 210.787 612.707C210.563 625.255 212.579 637.863 216.762 649.551C218.013 653.031 219.451 656.469 220.104 660.133C220.702 663.429 219.899 684.368 219.283 691.45C218.778 697.202 206.38 718.674 201.936 721.273C197.044 724.139 160.784 738.754 152.773 741.251C144.763 743.748 110.033 735.049 91.9963 732.02C80.8492 730.157 69.6835 728.274 58.5363 726.411C48.8643 724.794 39.2483 726.022 33.8335 715.317C27.4663 702.79 21.7527 689.915 16.674 676.733Z" fill="url(#paint7_linear_29_356)"/>
<path d="M58.5177 726.391C69.6648 728.253 80.8305 730.136 91.9777 731.999C97.7846 732.982 105.328 734.537 113.152 736.134C107.886 729.297 100.025 721.192 94.7598 714.355C93.6208 712.881 92.4631 711.346 92.0523 709.463C91.6229 707.457 92.1084 705.39 92.6125 703.404C94.2183 696.895 94.6291 689.833 96.2348 683.324C86.2827 685.863 63.3537 690.693 61.4678 690.1C59.3766 689.445 57.6774 687.787 56.053 686.17C44.2337 674.339 34.9911 662.405 25.9539 647.975C24.8896 646.276 23.8066 644.516 23.4145 642.489C23.0411 640.586 23.3212 638.621 23.6012 636.717C24.2734 631.968 25.7672 618.807 26.9622 607.201L23.4519 614.836C15.591 632.03 6.75921 649.592 13.8172 669.058C14.7508 671.637 15.703 674.195 16.6927 676.733C21.7577 689.912 27.4735 702.779 33.8148 715.276C39.2109 726.002 48.8456 724.774 58.5177 726.391Z" fill="url(#paint8_linear_29_356)"/>
<path d="M158.804 511.366C156.508 508.398 152.026 508.972 147.321 513.679L130.404 532.224C129.359 533.37 128.799 534.946 128.892 536.563L130.703 574.431C130.759 575.7 131.189 576.887 131.935 577.849C137.948 585.545 159.196 622.532 165.358 622.532C171.501 622.532 182.237 596.291 187.708 596.435C188.642 596.455 193.515 596.782 198.277 598.379C202.72 599.853 204.457 593.16 203.542 588.411C198.949 580.428 192.768 569.723 189.295 563.664C178.671 545.181 170.68 529.891 158.804 511.366Z" fill="url(#paint9_linear_29_356)"/>
<path d="M80.0836 585.914C86.3013 584.89 107.046 581.022 110.948 579.343C118.566 576.048 125.288 562.006 129.732 554.453C129.732 554.453 131.263 579.077 129.732 588.697C128.668 595.391 124.653 630.392 120.62 638.784L96.2347 683.324L60.4034 644.045C57.3599 640.708 55.418 638.948 54.3164 634.22C51.7957 623.412 47.2211 607.467 47.2024 598.072C47.1837 588.677 70.2808 587.51 80.0836 585.914Z" fill="url(#paint10_linear_29_356)"/>
<path d="M125.4 533.452C123.01 530.32 122.338 525.879 123.16 521.908C123.851 518.592 130.124 512.185 132.16 510.159L117.801 513.966C114.979 514.716 112.409 516.327 110.388 518.612L77.9177 555.415C77.9177 555.415 109.361 541.046 125.4 533.452Z" fill="url(#paint11_linear_29_356)"/>
<path d="M216.743 649.551C213.608 640.777 211.683 631.539 211.03 622.143C200.312 630.188 194.318 640.627 177.065 643.185C172.491 643.861 165.414 644.802 160.952 646.092C155.425 647.688 150.309 652.171 142.018 653.01C136.118 653.624 121.236 653.153 123.477 656.797C125.718 660.44 139.068 667.789 142.392 670.757C147.116 674.912 151.224 679.804 155.163 684.839C157.217 687.48 160.298 693.886 163.883 695.626C164.798 696.076 165.769 696.199 166.74 695.872C168.439 695.319 169.802 693.968 171.128 692.679C183.982 680.195 198.431 669.838 214.017 661.935C215.679 661.095 217.471 660.154 218.293 658.353C218.648 657.554 218.797 656.469 218.816 655.303C218.162 653.379 217.434 651.475 216.743 649.551Z" fill="url(#paint12_linear_29_356)"/>
<path d="M220.085 660.133C219.843 658.803 219.488 657.493 219.077 656.203C218.76 657.411 218.069 658.741 216.575 659.99C212.281 663.592 195.719 669.14 177.495 686.64C165.601 698.062 165.582 699.597 163.024 712.185C158.842 732.797 152.194 740.289 150.925 741.558C151.616 741.476 152.232 741.374 152.736 741.21C160.765 738.733 197.007 724.098 201.899 721.232C206.343 718.633 218.741 697.161 219.245 691.41C219.88 684.368 220.683 663.429 220.085 660.133Z" fill="url(#paint13_linear_29_356)"/>
<defs>
<linearGradient id="paint0_linear_29_356" x1="636.6" y1="131.5" x2="348.675" y2="863.025" gradientUnits="userSpaceOnUse">
<stop stop-color="#9E958E"/>
<stop offset="0.46" stop-color="#8E8884"/>
<stop offset="1" stop-color="#757575"/>
</linearGradient>
<linearGradient id="paint1_linear_29_356" x1="144.369" y1="750.856" x2="383.819" y2="484.6" gradientUnits="userSpaceOnUse">
<stop stop-color="#37474F"/>
<stop offset="0.612" stop-color="#42565F" stop-opacity="0.192"/>
<stop offset="0.757" stop-color="#455A64" stop-opacity="0"/>
</linearGradient>
<linearGradient id="paint2_linear_29_356" x1="711.206" y1="416.887" x2="556.363" y2="73.4062" gradientUnits="userSpaceOnUse">
<stop stop-color="#9E958E"/>
<stop offset="0.442" stop-color="#AEA298"/>
<stop offset="1" stop-color="#C9B8A9"/>
</linearGradient>
<linearGradient id="paint3_linear_29_356" x1="323.388" y1="653.406" x2="385.888" y2="314.344" gradientUnits="userSpaceOnUse">
<stop stop-color="#4C5C64"/>
<stop offset="1" stop-color="#455A64" stop-opacity="0"/>
</linearGradient>
<linearGradient id="paint4_linear_29_356" x1="349.825" y1="127.6" x2="531.387" y2="127.6" gradientUnits="userSpaceOnUse">
<stop stop-color="#4C5C64"/>
<stop offset="1" stop-color="#455A64" stop-opacity="0"/>
</linearGradient>
<linearGradient id="paint5_linear_29_356" x1="634.381" y1="478.794" x2="849.1" y2="567.294" gradientUnits="userSpaceOnUse">
<stop stop-color="#9E958E"/>
<stop offset="0.25" stop-color="#AEA298"/>
<stop offset="0.566" stop-color="#C9B8A9"/>
</linearGradient>
<linearGradient id="paint6_linear_29_356" x1="743.037" y1="770.981" x2="699.037" y2="597.419" gradientUnits="userSpaceOnUse">
<stop stop-color="#37474F"/>
<stop offset="0.808" stop-color="#42565F" stop-opacity="0.192"/>
<stop offset="1" stop-color="#455A64" stop-opacity="0"/>
</linearGradient>
<linearGradient id="paint7_linear_29_356" x1="163.596" y1="534.066" x2="62.949" y2="767.329" gradientUnits="userSpaceOnUse">
<stop stop-color="#9E958E"/>
<stop offset="0.46" stop-color="#8E8884"/>
<stop offset="1" stop-color="#757575"/>
</linearGradient>
<linearGradient id="paint8_linear_29_356" x1="16.5414" y1="736.905" x2="95.3952" y2="656.921" gradientUnits="userSpaceOnUse">
<stop stop-color="#37474F"/>
<stop offset="0.612" stop-color="#42565F" stop-opacity="0.192"/>
<stop offset="0.757" stop-color="#455A64" stop-opacity="0"/>
</linearGradient>
<linearGradient id="paint9_linear_29_356" x1="185.884" y1="627.531" x2="132.124" y2="518.747" gradientUnits="userSpaceOnUse">
<stop stop-color="#9E958E"/>
<stop offset="0.442" stop-color="#AEA298"/>
<stop offset="1" stop-color="#C9B8A9"/>
</linearGradient>
<linearGradient id="paint10_linear_29_356" x1="70.0232" y1="704.991" x2="92.3139" y2="594.679" gradientUnits="userSpaceOnUse">
<stop stop-color="#4C5C64"/>
<stop offset="1" stop-color="#455A64" stop-opacity="0"/>
</linearGradient>
<linearGradient id="paint11_linear_29_356" x1="77.9215" y1="532.789" x2="132.163" y2="532.789" gradientUnits="userSpaceOnUse">
<stop stop-color="#4C5C64"/>
<stop offset="1" stop-color="#455A64" stop-opacity="0"/>
</linearGradient>
<linearGradient id="paint12_linear_29_356" x1="162.933" y1="647.805" x2="228.683" y2="672.526" gradientUnits="userSpaceOnUse">
<stop stop-color="#9E958E"/>
<stop offset="0.25" stop-color="#AEA298"/>
<stop offset="0.566" stop-color="#C9B8A9"/>
</linearGradient>
<linearGradient id="paint13_linear_29_356" x1="195.394" y1="743.496" x2="179.787" y2="687.339" gradientUnits="userSpaceOnUse">
<stop stop-color="#37474F"/>
<stop offset="0.808" stop-color="#42565F" stop-opacity="0.192"/>
<stop offset="1" stop-color="#455A64" stop-opacity="0"/>
</linearGradient>
</defs>
</svg>
