<svg width="578" height="389" viewBox="0 0 578 389" fill="none" xmlns="http://www.w3.org/2000/svg">
<path d="M151.022 409.84C149.122 406.178 147.293 402.516 145.5 398.854C131.981 370.992 148.943 345.855 164.075 321.246L186.021 285.621C190.432 278.443 197.209 272.408 205.529 268.189L268.641 236.197L331.001 183.521C334.872 180.24 339.812 177.932 345.237 176.871L387.694 168.492C408.242 164.479 417.063 165.123 423.697 172.828C446.683 199.488 462.067 221.432 482.542 248.004C493.695 262.477 519.442 295.729 521.055 297.926C526.004 304.723 523.996 310.406 523.816 318.199C523.386 336.158 527.259 354.205 535.291 370.934C537.694 375.914 540.455 380.836 541.71 386.08C542.858 390.797 541.316 420.768 540.133 430.904C539.164 439.137 515.354 469.869 506.819 473.59C497.424 477.691 427.785 498.609 412.401 502.184C397.018 505.758 330.319 493.307 295.679 488.971C274.271 486.305 252.827 483.609 231.419 480.943C212.844 478.629 194.376 480.387 183.977 465.064C171.749 447.135 160.776 428.707 151.022 409.84Z" fill="url(#paint0_linear_29_355)"/>
<path d="M231.383 480.914C252.791 483.58 274.235 486.275 295.643 488.941C306.796 490.348 321.283 492.574 336.308 494.859C326.196 485.074 311.099 473.473 300.986 463.688C298.799 461.578 296.576 459.381 295.787 456.686C294.962 453.814 295.894 450.855 296.863 448.014C299.946 438.697 300.735 428.59 303.819 419.273C284.706 422.906 240.671 429.82 237.049 428.971C233.033 428.033 229.77 425.66 226.65 423.346C203.951 406.412 186.201 389.332 168.845 368.678C166.801 366.246 164.721 363.727 163.968 360.826C163.251 358.102 163.788 355.289 164.326 352.564C165.617 345.768 168.486 326.93 170.781 310.318L164.039 321.246C148.943 345.855 131.981 370.992 145.536 398.854C147.329 402.545 149.158 406.207 151.058 409.84C160.786 428.702 171.763 447.118 183.941 465.006C194.305 480.357 212.808 478.6 231.383 480.914Z" fill="url(#paint1_linear_29_355)"/>
<path d="M423.984 173.15C419.573 168.902 410.967 169.723 401.93 176.461L369.442 203.004C367.434 204.645 366.358 206.9 366.537 209.215L370.016 263.414C370.123 265.23 370.948 266.93 372.382 268.307C383.929 279.322 424.737 332.262 436.571 332.262C448.368 332.262 468.988 294.703 479.494 294.908C481.287 294.938 490.647 295.406 499.791 297.691C508.325 299.801 511.66 290.221 509.903 283.424C501.082 271.998 489.212 256.676 482.542 248.004C462.138 221.549 446.791 199.664 423.984 173.15Z" fill="url(#paint2_linear_29_355)"/>
<path d="M272.801 279.85C284.742 278.385 324.582 272.848 332.076 270.445C346.707 265.729 359.616 245.631 368.151 234.82C368.151 234.82 371.091 270.064 368.151 283.834C366.107 293.414 358.397 343.512 350.652 355.523L303.819 419.273L235.005 363.053C229.16 358.277 225.431 355.758 223.315 348.99C218.474 333.521 209.688 310.699 209.652 297.252C209.617 283.805 253.975 282.135 272.801 279.85Z" fill="url(#paint3_linear_29_355)"/>
<path d="M359.832 204.762C355.242 200.279 353.951 193.922 355.528 188.238C356.855 183.492 368.904 174.322 372.813 171.422L345.237 176.871C339.817 177.944 334.881 180.25 331.001 183.521L268.641 236.197C268.641 236.197 329.028 215.631 359.832 204.762Z" fill="url(#paint4_linear_29_355)"/>
<path d="M535.256 370.934C529.235 358.375 525.537 345.154 524.283 331.705C503.699 343.219 492.188 358.16 459.054 361.822C450.269 362.789 436.678 364.137 428.108 365.982C417.493 368.268 407.668 374.684 391.746 375.885C380.415 376.764 351.835 376.09 356.138 381.305C360.441 386.52 386.081 397.037 392.464 401.285C401.536 407.232 409.425 414.234 416.991 421.441C420.936 425.221 426.853 434.391 433.738 436.881C435.495 437.525 437.359 437.701 439.224 437.232C442.487 436.441 445.105 434.508 447.651 432.662C472.337 414.794 500.087 399.97 530.02 388.658C533.212 387.457 536.654 386.109 538.232 383.531C538.913 382.389 539.2 380.836 539.236 379.166C537.981 376.412 536.582 373.688 535.256 370.934Z" fill="url(#paint5_linear_29_355)"/>
<path d="M541.674 386.08C541.208 384.176 540.527 382.301 539.738 380.455C539.128 382.184 537.802 384.088 534.933 385.875C526.685 391.031 494.878 398.971 459.879 424.02C437.037 440.367 437.001 442.564 432.088 460.582C424.056 490.084 411.29 500.807 408.851 502.623C410.178 502.506 411.361 502.359 412.33 502.125C427.749 498.58 497.352 477.633 506.747 473.531C515.282 469.811 539.093 439.078 540.061 430.846C541.28 420.768 542.822 390.797 541.674 386.08Z" fill="url(#paint6_linear_29_355)"/>
<path d="M-146.164 349.491C-147.994 344.676 -149.755 339.862 -151.481 335.047C-164.5 298.419 -148.166 265.373 -133.594 233.02L-112.461 186.185C-108.214 176.748 -101.687 168.814 -93.6761 163.268L-32.9011 121.209L27.1487 51.9576C30.8763 47.6431 35.6334 44.6093 40.8577 43.2145L81.7427 32.1991C101.529 26.9224 110.024 27.7698 116.412 37.8994C138.547 72.9486 153.36 101.797 173.078 136.73C183.817 155.757 208.61 199.472 210.164 202.361C214.93 211.297 212.996 218.769 212.823 229.014C212.409 252.624 216.138 276.35 223.873 298.342C226.187 304.89 228.846 311.36 230.054 318.255C231.159 324.456 229.675 363.857 228.535 377.184C227.603 388.006 204.674 428.409 196.455 433.301C187.408 438.693 120.349 466.193 105.535 470.892C90.7208 475.591 26.4926 459.222 -6.86453 453.521C-27.4797 450.017 -48.1294 446.473 -68.7445 442.968C-86.6317 439.925 -104.415 442.236 -114.429 422.093C-126.205 398.521 -136.771 374.295 -146.164 349.491Z" fill="url(#paint7_linear_29_355)"/>
<path d="M-68.7791 442.93C-48.1639 446.435 -27.5143 449.978 -6.89911 453.483C3.84012 455.332 17.7907 458.259 32.2593 461.263C22.5215 448.399 7.98387 433.147 -1.75394 420.283C-3.86035 417.509 -6.0013 414.621 -6.76097 411.077C-7.55519 407.303 -6.65738 403.413 -5.72504 399.677C-2.75536 387.429 -1.99567 374.141 0.97403 361.893C-17.4311 366.669 -59.8355 375.758 -63.3232 374.641C-67.1907 373.409 -70.333 370.289 -73.3372 367.246C-95.1955 344.984 -112.288 322.53 -129.002 295.376C-130.97 292.18 -132.973 288.867 -133.698 285.054C-134.388 281.472 -133.871 277.775 -133.353 274.193C-132.109 265.257 -129.347 240.492 -127.137 218.653L-133.629 233.02C-148.166 265.373 -164.5 298.419 -151.447 335.047C-149.72 339.9 -147.959 344.715 -146.129 349.491C-136.762 374.289 -126.191 398.5 -114.464 422.016C-104.484 442.198 -86.6663 439.887 -68.7791 442.93Z" fill="url(#paint8_linear_29_355)"/>
<path d="M116.688 38.3231C112.441 32.7383 104.153 33.8167 95.4516 42.6753L64.1662 77.5705C62.2325 79.7274 61.1965 82.6931 61.3692 85.7358L64.7187 156.99C64.8223 159.378 65.6166 161.612 66.9978 163.422C78.1169 177.904 117.413 247.501 128.809 247.501C140.17 247.501 160.025 198.124 170.143 198.394C171.869 198.432 180.882 199.049 189.687 202.053C197.906 204.826 201.117 192.231 199.425 183.296C190.93 168.275 179.501 148.131 173.078 136.73C153.43 101.951 138.65 73.1797 116.688 38.3231Z" fill="url(#paint9_linear_29_355)"/>
<path d="M-28.8955 178.597C-17.3966 176.671 20.9676 169.392 28.1846 166.233C42.2734 160.032 54.7046 133.611 62.9231 119.398C62.9231 119.398 65.7546 165.733 62.9231 183.835C60.9548 196.43 53.5306 262.291 46.0718 278.083L0.974007 361.893L-65.2915 287.981C-70.9201 281.703 -74.5113 278.391 -76.5487 269.494C-81.2104 249.158 -89.6705 219.154 -89.7051 201.475C-89.7396 183.797 -47.0244 181.601 -28.8955 178.597Z" fill="url(#paint10_linear_29_355)"/>
<path d="M54.9119 79.8814C50.4919 73.9885 49.2487 65.6306 50.7681 58.1586C52.0458 51.919 63.6482 39.8636 67.4122 36.0506L40.8576 43.2145C35.639 44.625 30.8856 47.6565 27.1487 51.9576L-32.9011 121.209C-32.9011 121.209 25.2495 94.1707 54.9119 79.8814Z" fill="url(#paint11_linear_29_355)"/>
<path d="M223.839 298.342C218.041 281.831 214.48 264.45 213.272 246.77C193.451 261.906 182.367 281.549 150.46 286.364C142 287.635 128.912 289.406 120.659 291.833C110.438 294.837 100.977 303.272 85.6447 304.851C74.7328 306.007 47.2114 305.121 51.3552 311.977C55.4989 318.832 80.1888 332.659 86.3354 338.244C95.0718 346.063 102.669 355.268 109.955 364.743C113.753 369.711 119.451 381.767 126.081 385.041C127.773 385.888 129.568 386.119 131.364 385.503C134.506 384.463 137.027 381.921 139.479 379.494C163.251 356.004 189.972 336.515 218.797 321.644C221.871 320.065 225.186 318.293 226.705 314.904C227.361 313.402 227.637 311.36 227.672 309.165C226.463 305.544 225.116 301.962 223.839 298.342Z" fill="url(#paint12_linear_29_355)"/>
<path d="M230.02 318.255C229.571 315.751 228.915 313.286 228.155 310.86C227.568 313.132 226.29 315.636 223.528 317.985C215.586 324.764 184.957 335.202 151.254 368.132C129.258 389.624 129.223 392.513 124.492 416.2C116.757 454.985 104.464 469.082 102.116 471.47C103.394 471.316 104.533 471.123 105.466 470.815C120.314 466.155 187.339 438.616 196.386 433.224C204.605 428.332 227.534 387.929 228.466 377.107C229.64 363.857 231.125 324.456 230.02 318.255Z" fill="url(#paint13_linear_29_355)"/>
<path d="M124.255 427.504C123.291 425.307 122.362 423.109 121.452 420.912C114.589 404.195 123.2 389.113 130.881 374.348L142.022 352.973C144.261 348.666 147.701 345.045 151.924 342.514L183.962 323.318L215.617 291.713C217.582 289.744 220.09 288.359 222.843 287.723L244.396 282.695C254.826 280.287 259.304 280.674 262.672 285.297C274.34 301.293 282.149 314.459 292.543 330.402C298.204 339.086 311.274 359.037 312.093 360.355C314.605 364.434 313.586 367.844 313.495 372.52C313.277 383.295 315.243 394.123 319.32 404.16C320.54 407.148 321.941 410.102 322.578 413.248C323.161 416.078 322.378 434.061 321.777 440.143C321.286 445.082 309.199 463.521 304.867 465.754C300.098 468.215 264.747 480.766 256.938 482.91C249.129 485.055 215.271 477.584 197.687 474.982C186.819 473.383 175.934 471.766 165.067 470.166C155.638 468.777 146.263 469.832 140.984 460.639C134.777 449.881 129.207 438.824 124.255 427.504Z" fill="url(#paint14_linear_29_355)"/>
<path d="M165.049 470.148C175.916 471.748 186.801 473.365 197.669 474.965C203.33 475.809 210.684 477.145 218.311 478.516C213.178 472.645 205.514 465.684 200.381 459.813C199.27 458.547 198.142 457.229 197.741 455.611C197.323 453.889 197.796 452.113 198.288 450.408C199.853 444.818 200.253 438.754 201.819 433.164C192.117 435.344 169.763 439.492 167.925 438.982C165.886 438.42 164.229 436.996 162.646 435.607C151.123 425.447 142.113 415.199 133.302 402.807C132.265 401.348 131.209 399.836 130.827 398.096C130.463 396.461 130.736 394.773 131.009 393.139C131.664 389.061 133.12 377.758 134.285 367.791L130.863 374.348C123.2 389.113 114.59 404.195 121.47 420.912C122.38 423.127 123.309 425.324 124.274 427.504C129.211 438.821 134.784 449.871 140.966 460.604C146.227 469.814 155.619 468.76 165.049 470.148Z" fill="url(#paint15_linear_29_355)"/>
<path d="M262.818 285.49C260.579 282.941 256.21 283.434 251.623 287.477L235.131 303.402C234.111 304.387 233.565 305.74 233.656 307.129L235.422 339.648C235.476 340.738 235.895 341.758 236.623 342.584C242.485 349.193 263.2 380.957 269.207 380.957C275.196 380.957 285.663 358.422 290.996 358.545C291.906 358.563 296.657 358.844 301.299 360.215C305.631 361.48 307.324 355.732 306.432 351.654C301.954 344.799 295.929 335.605 292.543 330.402C282.186 314.529 274.395 301.398 262.818 285.49Z" fill="url(#paint16_linear_29_355)"/>
<path d="M186.073 349.51C192.135 348.631 212.358 345.309 216.163 343.867C223.59 341.037 230.143 328.979 234.475 322.492C234.475 322.492 235.968 343.639 234.475 351.9C233.438 357.648 229.524 387.707 225.592 394.914L201.819 433.164L166.887 399.432C163.92 396.566 162.027 395.055 160.953 390.994C158.495 381.713 154.036 368.02 154.017 359.951C153.999 351.883 176.517 350.881 186.073 349.51Z" fill="url(#paint17_linear_29_355)"/>
<path d="M230.252 304.457C227.922 301.768 227.267 297.953 228.068 294.543C228.741 291.695 234.858 286.193 236.842 284.453L222.844 287.723C220.093 288.366 217.587 289.75 215.617 291.713L183.962 323.318C183.962 323.318 214.616 310.979 230.252 304.457Z" fill="url(#paint18_linear_29_355)"/>
<path d="M319.302 404.16C316.246 396.625 314.368 388.692 313.732 380.623C303.283 387.531 297.44 396.496 280.62 398.693C276.16 399.273 269.261 400.082 264.911 401.189C259.523 402.561 254.535 406.41 246.453 407.131C240.701 407.658 226.193 407.254 228.377 410.383C230.562 413.512 243.577 419.822 246.817 422.371C251.422 425.939 255.427 430.141 259.268 434.465C261.27 436.732 264.274 442.234 267.769 443.729C268.661 444.115 269.607 444.221 270.554 443.939C272.21 443.465 273.539 442.305 274.832 441.197C287.363 430.477 301.449 421.582 316.644 414.795C318.264 414.074 320.012 413.266 320.813 411.719C321.159 411.033 321.304 410.102 321.322 409.1C320.685 407.447 319.975 405.812 319.302 404.16Z" fill="url(#paint19_linear_29_355)"/>
<defs>
<linearGradient id="paint0_linear_29_355" x1="433.186" y1="205.641" x2="317.772" y2="564.552" gradientUnits="userSpaceOnUse">
<stop stop-color="#9E958E"/>
<stop offset="0.46" stop-color="#8E8884"/>
<stop offset="1" stop-color="#757575"/>
</linearGradient>
<linearGradient id="paint1_linear_29_355" x1="150.768" y1="495.964" x2="258.485" y2="349.358" gradientUnits="userSpaceOnUse">
<stop stop-color="#37474F"/>
<stop offset="0.612" stop-color="#42565F" stop-opacity="0.192"/>
<stop offset="0.757" stop-color="#455A64" stop-opacity="0"/>
</linearGradient>
<linearGradient id="paint2_linear_29_355" x1="475.991" y1="339.416" x2="413.162" y2="168.828" gradientUnits="userSpaceOnUse">
<stop stop-color="#9E958E"/>
<stop offset="0.442" stop-color="#AEA298"/>
<stop offset="1" stop-color="#C9B8A9"/>
</linearGradient>
<linearGradient id="paint3_linear_29_355" x1="253.48" y1="450.284" x2="277.68" y2="289.593" gradientUnits="userSpaceOnUse">
<stop stop-color="#4C5C64"/>
<stop offset="1" stop-color="#455A64" stop-opacity="0"/>
</linearGradient>
<linearGradient id="paint4_linear_29_355" x1="268.648" y1="203.813" x2="372.82" y2="203.813" gradientUnits="userSpaceOnUse">
<stop stop-color="#4C5C64"/>
<stop offset="1" stop-color="#455A64" stop-opacity="0"/>
</linearGradient>
<linearGradient id="paint5_linear_29_355" x1="431.912" y1="368.435" x2="546.796" y2="426.393" gradientUnits="userSpaceOnUse">
<stop stop-color="#9E958E"/>
<stop offset="0.25" stop-color="#AEA298"/>
<stop offset="0.566" stop-color="#C9B8A9"/>
</linearGradient>
<linearGradient id="paint6_linear_29_355" x1="494.254" y1="505.397" x2="477.058" y2="422.373" gradientUnits="userSpaceOnUse">
<stop stop-color="#37474F"/>
<stop offset="0.808" stop-color="#42565F" stop-opacity="0.192"/>
<stop offset="1" stop-color="#455A64" stop-opacity="0"/>
</linearGradient>
<linearGradient id="paint7_linear_29_355" x1="125.549" y1="81.0369" x2="-66.0837" y2="517.548" gradientUnits="userSpaceOnUse">
<stop stop-color="#9E958E"/>
<stop offset="0.46" stop-color="#8E8884"/>
<stop offset="1" stop-color="#757575"/>
</linearGradient>
<linearGradient id="paint8_linear_29_355" x1="-146.409" y1="462.715" x2="1.98313" y2="314.78" gradientUnits="userSpaceOnUse">
<stop stop-color="#37474F"/>
<stop offset="0.612" stop-color="#42565F" stop-opacity="0.192"/>
<stop offset="0.757" stop-color="#455A64" stop-opacity="0"/>
</linearGradient>
<linearGradient id="paint9_linear_29_355" x1="166.769" y1="256.907" x2="64.5503" y2="53.6174" gradientUnits="userSpaceOnUse">
<stop stop-color="#9E958E"/>
<stop offset="0.442" stop-color="#AEA298"/>
<stop offset="1" stop-color="#C9B8A9"/>
</linearGradient>
<linearGradient id="paint10_linear_29_355" x1="-47.501" y1="402.662" x2="-4.88306" y2="195.377" gradientUnits="userSpaceOnUse">
<stop stop-color="#4C5C64"/>
<stop offset="1" stop-color="#455A64" stop-opacity="0"/>
</linearGradient>
<linearGradient id="paint11_linear_29_355" x1="-32.8942" y1="78.6335" x2="67.4191" y2="78.6335" gradientUnits="userSpaceOnUse">
<stop stop-color="#4C5C64"/>
<stop offset="1" stop-color="#455A64" stop-opacity="0"/>
</linearGradient>
<linearGradient id="paint12_linear_29_355" x1="124.323" y1="295.057" x2="246.434" y2="340.18" gradientUnits="userSpaceOnUse">
<stop stop-color="#9E958E"/>
<stop offset="0.25" stop-color="#AEA298"/>
<stop offset="0.566" stop-color="#C9B8A9"/>
</linearGradient>
<linearGradient id="paint13_linear_29_355" x1="184.356" y1="475.117" x2="154.551" y2="369.713" gradientUnits="userSpaceOnUse">
<stop stop-color="#37474F"/>
<stop offset="0.808" stop-color="#42565F" stop-opacity="0.192"/>
<stop offset="1" stop-color="#455A64" stop-opacity="0"/>
</linearGradient>
<linearGradient id="paint14_linear_29_355" x1="267.488" y1="304.984" x2="188.576" y2="512.605" gradientUnits="userSpaceOnUse">
<stop stop-color="#9E958E"/>
<stop offset="0.46" stop-color="#8E8884"/>
<stop offset="1" stop-color="#757575"/>
</linearGradient>
<linearGradient id="paint15_linear_29_355" x1="124.126" y1="479.178" x2="191.183" y2="401.964" gradientUnits="userSpaceOnUse">
<stop stop-color="#37474F"/>
<stop offset="0.612" stop-color="#42565F" stop-opacity="0.192"/>
<stop offset="0.757" stop-color="#455A64" stop-opacity="0"/>
</linearGradient>
<linearGradient id="paint16_linear_29_355" x1="289.218" y1="385.25" x2="246.678" y2="287.532" gradientUnits="userSpaceOnUse">
<stop stop-color="#9E958E"/>
<stop offset="0.442" stop-color="#AEA298"/>
<stop offset="1" stop-color="#C9B8A9"/>
</linearGradient>
<linearGradient id="paint17_linear_29_355" x1="176.265" y1="451.771" x2="193.278" y2="356.197" gradientUnits="userSpaceOnUse">
<stop stop-color="#4C5C64"/>
<stop offset="1" stop-color="#455A64" stop-opacity="0"/>
</linearGradient>
<linearGradient id="paint18_linear_29_355" x1="183.965" y1="303.888" x2="236.845" y2="303.888" gradientUnits="userSpaceOnUse">
<stop stop-color="#4C5C64"/>
<stop offset="1" stop-color="#455A64" stop-opacity="0"/>
</linearGradient>
<linearGradient id="paint19_linear_29_355" x1="266.842" y1="402.661" x2="328.729" y2="429.075" gradientUnits="userSpaceOnUse">
<stop stop-color="#9E958E"/>
<stop offset="0.25" stop-color="#AEA298"/>
<stop offset="0.566" stop-color="#C9B8A9"/>
</linearGradient>
</defs>
</svg>
