<?xml version="1.0" encoding="UTF-8" standalone="no"?>
<!-- Created with Inkscape (http://www.inkscape.org/) -->

<svg
   width="40mm"
   height="39mm"
   viewBox="0 0 40 39"
   version="1.1"
   id="svg1"
   inkscape:version="1.4 (86a8ad7, 2024-10-11)"
   sodipodi:docname="rock.svg"
   xmlns:inkscape="http://www.inkscape.org/namespaces/inkscape"
   xmlns:sodipodi="http://sodipodi.sourceforge.net/DTD/sodipodi-0.dtd"
   xmlns="http://www.w3.org/2000/svg"
   xmlns:svg="http://www.w3.org/2000/svg">
  <sodipodi:namedview
     id="namedview1"
     pagecolor="#ffffff"
     bordercolor="#000000"
     borderopacity="0.25"
     inkscape:showpageshadow="2"
     inkscape:pageopacity="0.0"
     inkscape:pagecheckerboard="0"
     inkscape:deskcolor="#d1d1d1"
     inkscape:document-units="mm"
     inkscape:zoom="2.0989207"
     inkscape:cx="122.92032"
     inkscape:cy="78.850049"
     inkscape:window-width="1920"
     inkscape:window-height="1051"
     inkscape:window-x="-9"
     inkscape:window-y="-9"
     inkscape:window-maximized="1"
     inkscape:current-layer="layer1" />
  <defs
     id="defs1" />
  <g
     inkscape:label="Capa 1"
     inkscape:groupmode="layer"
     id="layer1">
    <g
       id="g1"
       transform="matrix(1,0,0,1.2522064,-1.1345117,-0.47718201)">
      <path
         id="path8"
         d="m 3.2604495,28.815464 c 0.535517,0.643114 2.079271,1.25236 3.448754,1.361723 0,0 5.4218425,1.27776 14.2550415,1.135943 1.38995,-0.02294 3.58881,0.08643 4.95653,-0.05045 l 10.82887,-1.083027 c 1.36807,-0.136525 2.68958,-0.807156 2.95345,-1.496835 l 0.72355,-1.894418 c 0.26388,-0.690739 0.0864,-1.780116 -0.39687,-2.433814 l -1.48238,-2.012597 c -0.0134,-0.01799 -0.0257,-0.03351 -0.0388,-0.05045 l -0.40182,-0.545042 c -0.0264,-0.05221 -0.0568,-0.104069 -0.0935,-0.153811 l -0.72073,-0.9652 c -0.43427,-0.581377 -1.02023,-1.145469 -1.39453,-1.354666 -0.21202,-0.221192 -0.58455,-0.510117 -1.06221,-0.807156 l -1.85244,-1.152525 c -0.8696,-0.541514 -2.66417,-1.115836 -4.00932,-1.283758 l -5.55201,-0.693561 c -1.34514,-0.16757 -3.52461,-0.150636 -4.86834,0.03775 l -3.00566,0.422628 c -1.345145,0.18803 -3.351745,0.678744 -4.480634,1.094669 l -2.3703135,0.87242 c -0.655108,0.240594 -0.865364,0.41275 -0.663575,0.485069 -0.724254,0.283633 -1.414639,0.676628 -1.872191,1.067858 -0.195088,0.09243 -0.365832,0.217311 -0.497771,0.374298 l -1.619954,1.930047 c -0.5461,0.648758 -1.096788,1.741311 -1.232255,2.439458 l -0.417687,2.154414 c -0.134056,0.698853 0.189442,1.78682 0.724959,2.429581 l 0.141816,0.17145"
         style="fill:#303133;fill-opacity:1;fill-rule:nonzero;stroke:none;stroke-width:0.0352777" />
      <path
         id="path71"
         d="m 40.029775,18.076555 -2.74638,-6.804377 c -0.48154,-1.194858 -1.778,-2.7700112 -2.89489,-3.5182532 l -1.4665,-0.982839 c -1.11689,-0.747888 -3.03213,-1.80093 -4.28096,-2.349852 l -5.39609,-2.378428 c -1.24742,-0.548922 -3.27871,-0.542219 -4.53778,0.01623 l -9.7772335,4.339872 c -1.259065,0.5588 -2.668413,1.991078 -3.148542,3.198989 l -1.4859,3.7415602 c -0.478721,1.206148 -1.027641,3.214159 -1.223081,4.484511 l -0.566915,3.661834 c -0.19685,1.27 0.5207,2.940755 1.600906,3.731683 l 1.345142,0.984603 c 1.081265,0.79128 3.062465,1.625246 4.424185,1.861609 l 11.6550785,2.02706 c 1.36313,0.236361 3.41453,-0.148518 4.58223,-0.85725 l 12.67706,-7.7089 c 1.16805,-0.708378 1.72297,-2.253897 1.23967,-3.44805"
         style="fill:#626567;fill-opacity:1;fill-rule:nonzero;stroke:none;stroke-width:0.0352777" />
      <path
         id="path72"
         d="m 40.029775,18.076555 -2.74638,-6.804377 c -0.48154,-1.194858 -1.98367,-2.3226892 -3.35421,-2.5202452 l -10.10109,-1.451327 c -1.37089,-0.19685 -3.49779,0.105128 -4.75227,0.674511 l -3.2639,1.481666 c -1.254121,0.5690312 -2.771065,1.9667362 -3.39019,3.1210252 l -1.038225,1.937456 c -0.618773,1.154641 -0.627943,2.612672 -0.02223,3.256138 0.605719,0.646289 1.858786,0.40005 2.796823,-0.547511 0.939802,-0.94615 1.158882,-0.79763 0.490361,0.334434 l -0.696384,1.176866 c -0.66816,1.132064 -1.132064,2.972153 -1.036814,4.109509 0.09419,1.138061 0.564091,1.551869 1.047398,0.925336 0.483306,-0.626181 1.512361,-0.572559 2.295521,0.120297 l 1.42134,1.254125 4.34799,3.325637 c 1.06221,0.813504 3.03247,1.275292 4.40196,1.032933 l 9.5324,-1.690864 c 1.36808,-0.242359 2.82082,-1.431926 3.2445,-2.657123 l 0.93063,-2.698397 c 0.42369,-1.224492 0.37606,-3.185936 -0.10724,-4.380089"
         style="fill:#7f8283;fill-opacity:1;fill-rule:nonzero;stroke:none;stroke-width:0.0352777" />
      <path
         id="path73"
         d="m 18.783375,10.853783 -1.52012,0.66287 c -1.26329,0.548922 -1.54234,1.454502 -0.62159,2.021064 0.91863,0.565502 1.13947,1.949449 0.49036,3.090686 l -0.40534,0.714374 c -0.64911,1.140531 -0.4251,2.553759 0.49636,3.157009 0.92322,0.602544 2.70898,1.004711 3.98885,0.897114 1.27812,-0.107245 2.99791,-0.9652 3.8407,-1.915936 0.84278,-0.952148 2.12089,-1.354314 2.85785,-0.899937 0.73554,0.454025 1.13524,0.153459 0.89182,-0.672041 -0.24448,-0.824795 -0.89923,-1.8923 -1.46297,-2.383014 -0.5655,-0.492125 -0.71437,-1.894064 -0.33267,-3.130903 l 0.0286,-0.08925 c 0.38029,-1.236134 -0.43604,-2.272595 -1.82457,-2.3166922 l -1.62454,-0.05186 c -1.38818,-0.0441 -3.53766,0.3672412 -4.80272,0.9165162"
         style="fill:#9fa2a1;fill-opacity:1;fill-rule:nonzero;stroke:none;stroke-width:0.0352777" />
      <path
         id="path74"
         d="m 9.6922935,18.75283 0.111831,0.177095 c 0.6921505,1.10243 1.3394965,3.028597 1.4470945,4.303888 l 0.04727,0.581731 c 0.107595,1.275292 -0.229659,1.352197 -0.75283,0.172508 L 9.6414905,21.94688 c -0.523523,-1.179336 -1.151819,-1.169811 -1.402292,0.02222 -0.250473,1.191683 -0.521758,1.344083 -0.606777,0.338314 -0.08396,-1.003653 -0.447675,-2.676525 -0.811742,-3.734153 -0.365125,-1.056569 -0.160866,-2.851855 0.455084,-4.00685 l 0.439912,-0.825852 c 0.61595,-1.154289 1.036815,-1.055864 0.93839,0.22225 l -0.03739,0.48013 c -0.09843,1.279172 0.382058,3.208514 1.075619,4.309886"
         style="fill:#7f8283;fill-opacity:1;fill-rule:nonzero;stroke:none;stroke-width:0.0352777" />
      <path
         id="path75"
         d="m 30.128355,22.69618 0.95779,1.312686 c 0.768,1.057275 0.56974,1.214614 -0.44626,0.352778 l -2.75167,-2.338211 c -1.01564,-0.862189 -1.23648,-1.489428 -0.4953,-1.399822 0.74119,0.08925 1.96603,1.016352 2.73544,2.072569"
         style="fill:#4c4e51;fill-opacity:1;fill-rule:nonzero;stroke:none;stroke-width:0.0352777" />
      <path
         id="path76"
         d="m 32.346275,5.6129168 2.23766,1.923344 c 1.0086,0.868892 2.10926,2.5735142 2.45675,3.8096472 l 0.46355,1.650647 c 0.34925,1.235428 -0.0907,3.042709 -0.98143,4.036131 l -0.0921,0.104422 c -0.89077,0.993422 -2.06164,2.075392 -2.6162,2.416881 -0.55527,0.341136 -1.24884,-0.392289 -1.55011,-1.6383 l -1.49436,-6.177492 c -0.30304,-1.245658 -1.54694,-2.7245022 -2.77884,-3.3009412 l -5.09411,-2.384425 c -1.2319,-0.577145 -3.20851,-0.516114 -4.4136,0.137583 l -3.39196,1.834445 c -1.205086,0.652991 -3.254372,0.874888 -4.575878,0.496005 L 9.0435345,8.0971778 c -1.321506,-0.377825 -1.4097,-1.204383 -0.195791,-1.843617 l 1.8870085,-0.992716 c 1.21426,-0.639939 3.28436,-1.448153 4.625623,-1.806222 l 3.21874,-0.862189 c 1.3395,-0.357011 3.51861,-0.407106 4.86693,-0.11042 l 4.63479,1.022703 c 1.34655,0.296686 3.2572,1.24072 4.26544,2.1082"
         style="fill:#9fa2a1;fill-opacity:1;fill-rule:nonzero;stroke:none;stroke-width:0.0352777" />
      <path
         id="path77"
         d="m 8.3333935,9.1138828 1.115483,1.1267732 c 0.9309815,0.939447 1.0382255,1.377244 0.242006,0.980016 -0.796573,-0.398286 -1.523296,-0.49918 -1.621721,-0.222955 -0.09807,0.273755 -0.854427,1.33738 -1.688393,2.370666 l -0.751769,0.931686 c -0.833615,1.03505 -1.215673,2.871258 -0.850196,4.102453 l 1.126067,3.806825 c 0.365479,1.231194 0.179212,1.297516 -0.414867,0.146755 l -0.446969,-0.869597 c -0.594076,-1.148644 -1.185685,-1.160639 -1.324681,-0.02399 -0.137229,1.135945 0.596548,2.733322 1.637948,3.566583 l 0.750358,0.601134 c 1.042459,0.833614 2.001309,1.526469 2.141715,1.549047 0.140052,0.02011 0.217662,-1.000478 0.17145,-2.277886 l -0.0046,-0.111125 c -0.04586,-1.279172 0.426508,-1.395236 1.053396,-0.261761 l 0.459317,0.827969 c 0.6265335,1.13277 1.7614185,2.133602 2.5325915,2.235202 0.771171,0.09772 1.721202,-0.38735 2.121252,-1.085146 0.398284,-0.698853 1.252714,-0.551392 1.907474,0.3302 0.65652,0.881592 2.29729,1.76248 3.66642,1.968855 l 2.02106,0.303035 c 1.36772,0.207433 3.00884,-0.548217 3.66501,-1.686277 l 0.32526,-0.564799 c 0.6544,-1.138061 1.52259,-1.195917 1.93887,-0.130528 0.41628,1.067154 1.85561,1.707094 3.21733,1.428398 l 3.88832,-0.794102 c 1.36066,-0.279049 2.62854,-1.533527 2.82998,-2.802821 l 0.41169,-2.591506 c 0.20285,-1.268588 0.20743,-3.323519 0.0116,-4.589286 l -0.4385,-2.850091 c -0.19544,-1.265767 0.0374,-1.322564 0.52105,-0.127706 l 1.48238,3.67665 c 0.4833,1.194153 0.66075,3.18382 0.39687,4.445 l -0.72355,3.460397 c -0.26387,1.259771 -1.58538,2.484263 -2.95345,2.734381 l -10.82887,1.977673 c -1.36772,0.250473 -3.56658,0.0508 -4.95652,0.09243 C 12.130993,31.045375 6.7091515,28.71175 6.7091515,28.71175 5.3396675,28.511725 3.7959135,27.399065 3.2603975,26.224313 l -0.141817,-0.313267 c -0.535517,-1.173692 -0.859015,-3.161242 -0.724958,-4.437239 l 0.417687,-3.935589 c 0.135467,-1.275291 0.686154,-3.27025 1.232254,-4.456288 l 1.619954,-3.5249562 c 0.545748,-1.184628 1.740255,-1.383594 2.669823,-0.443089"
         style="fill:#4c4e51;fill-opacity:1;fill-rule:nonzero;stroke:none;stroke-width:0.0352777" />
      <path
         id="path78"
         d="m 38.013295,13.032186 -0.72073,-1.763889 c -0.43427,-1.061861 -1.02023,-2.0919722 -1.39453,-2.4747362 -0.21202,-0.403577 -0.58455,-0.931333 -1.06221,-1.473552 l -1.85244,-2.105378 c -0.8696,-0.988836 -2.66417,-2.037997 -4.00932,-2.344914 l -5.55201,-1.266825 c -1.34514,-0.305858 -3.52461,-0.275167 -4.86834,0.06915 l -3.00566,0.771877 c -1.345145,0.343959 -3.351745,1.239661 -4.480634,1.999545 l -2.3703135,1.593144 c -1.130654,0.759178 -0.944033,1.146881 0.416277,0.866422 l 5.0863505,-1.049866 c 1.36031,-0.282223 1.56598,-0.435681 0.461082,-0.344664 -1.107017,0.09102 -1.834798,-0.198261 -1.627717,-0.648053 0.206021,-0.447675 1.473904,-1.056922 2.828215,-1.360311 l 2.93688,-0.654756 c 1.35467,-0.304447 3.5366,-0.274461 4.87186,0.06421 l 4.25838,1.076678 c 1.33491,0.337961 3.18594,1.362427 4.13314,2.287411 l 1.91665,1.872191 c 0.62053,0.605367 0.49389,4.1320862 0.89781,4.3247032 0.0614,0.286455 0.895,-2.434519 1.04105,-2.030942 l 0.94439,2.620786 c 0.43568,1.20897 0.15522,3.014486 -0.62618,4.032603 -0.78317,1.018822 -0.61313,1.105253 0.37712,0.194733 l 0.48789,-0.446969 c 0.99166,-0.91052 1.40053,-2.614789 0.91299,-3.808589"
         style="fill:#e9e9e7;fill-opacity:1;fill-rule:nonzero;stroke:none;stroke-width:0.0352777" />
      <path
         id="path79"
         d="m 31.648475,18.129825 -0.79516,-1.397 c -0.64276,-1.128536 -1.05728,-3.076222 -0.92604,-4.353278 l 0.0596,-0.587022 c 0.12947,-1.276703 0.48013,-1.299986 0.78317,-0.05433 l 1.49436,6.177492 c 0.30127,1.246011 0.0254,1.342319 -0.61595,0.214136"
         style="fill:#4c4e51;fill-opacity:1;fill-rule:nonzero;stroke:none;stroke-width:0.0352777" />
      <path
         id="path80"
         d="m 15.642245,7.3736308 2.81587,-1.54305 c 1.20227,-0.658989 3.15913,-0.696383 4.37198,-0.08502 l 5.19818,2.6289 c 1.21285,0.611717 1.18145,0.66675 -0.0699,0.123473 l -4.92372,-2.13995 c -1.25166,-0.543631 -3.24309,-0.4572 -4.44959,0.19438 l -3.1563,1.700742 c -1.206855,0.651933 -3.250496,0.854075 -4.56424,0.450497 L 9.0283165,8.1405698 c -1.314098,-0.402873 -1.272471,-0.541514 0.09102,-0.31115 l 1.8764255,0.317852 c 1.364896,0.230364 3.444169,-0.115711 4.646433,-0.773641"
         style="fill:#e9e9e7;fill-opacity:1;fill-rule:nonzero;stroke:none;stroke-width:0.0352777" />
    </g>
  </g>
</svg>
