<?xml version="1.0" encoding="UTF-8" standalone="no"?>
<!-- Created with Inkscape (http://www.inkscape.org/) -->

<svg
   width="32mm"
   height="30mm"
   viewBox="0 0 32 30"
   version="1.1"
   id="svg1"
   inkscape:version="1.4 (86a8ad7, 2024-10-11)"
   sodipodi:docname="excavadora_pala.svg"
   xmlns:inkscape="http://www.inkscape.org/namespaces/inkscape"
   xmlns:sodipodi="http://sodipodi.sourceforge.net/DTD/sodipodi-0.dtd"
   xmlns="http://www.w3.org/2000/svg"
   xmlns:svg="http://www.w3.org/2000/svg">
  <sodipodi:namedview
     id="namedview1"
     pagecolor="#ffffff"
     bordercolor="#000000"
     borderopacity="0.25"
     inkscape:showpageshadow="2"
     inkscape:pageopacity="0.0"
     inkscape:pagecheckerboard="0"
     inkscape:deskcolor="#d1d1d1"
     inkscape:document-units="mm"
     inkscape:zoom="2.9683221"
     inkscape:cx="96.856065"
     inkscape:cy="28.804152"
     inkscape:window-width="1920"
     inkscape:window-height="1051"
     inkscape:window-x="-9"
     inkscape:window-y="-9"
     inkscape:window-maximized="1"
     inkscape:current-layer="layer1" />
  <defs
     id="defs1" />
  <g
     inkscape:label="Capa 1"
     inkscape:groupmode="layer"
     id="layer1">
    <path
       id="path146"
       d="m 21.843118,23.263986 h -5.5178 v 0.904522 h 5.5178 v -0.904522"
       style="fill:#28292e;fill-opacity:1;fill-rule:nonzero;stroke:none;stroke-width:0.0352778" />
    <path
       id="path147"
       d="m 9.8998277,6.2925515 0.4564903,-0.756355 5.07612,3.063875 -0.45614,0.756003 -5.0764703,-3.063523"
       style="fill:#666666;fill-opacity:1;fill-rule:nonzero;stroke:none;stroke-width:0.0352778" />
    <path
       id="path148"
       d="m 6.8997977,4.2707825 0.26988,-0.44697 3.0931503,1.867253 -0.2695203,0.446617 -3.09351,-1.8669"
       style="fill:#b9bcba;fill-opacity:1;fill-rule:nonzero;stroke:none;stroke-width:0.0352778" />
    <path
       id="path149"
       d="m 17.212198,20.410366 c 0,0 0,-4.496506 0,-5.339292 0,-1.425222 -0.83467,-3.051175 -2.23484,-4.014611 -1.40018,-0.963437 -6.4350203,-3.0162505 -7.2457103,-3.4526365 -0.877,-0.471664 -1.10349,-0.757767 -1.24142,-1.179336 -0.13053,-0.397228 0.19438,-0.859367 0.55386,-0.7366 0.35913,0.122767 8.2610003,2.776008 9.5458103,3.361267 1.30493,0.594783 2.95064,2.9605105 2.95064,5.2588585 0,1.887008 0,6.10235 0,6.10235 h -2.32834"
       style="fill:#e58126;fill-opacity:1;fill-rule:nonzero;stroke:none;stroke-width:0.0352778" />
    <path
       id="path150"
       d="m 1.7026774,18.536763 c 0,0 4.8958503,-11.0264225 5.1241003,-11.5485335 0.2286,-0.521758 0.4505,-2.943578 0.4505,-3.365147 0,-0.421923 -0.70415,-0.318559 -0.97967,-0.159456 -0.27587,0.159456 -1.8919503,2.1463 -2.0524603,2.52095 -0.16051,0.37465 -3.26496004,11.7012865 -3.26496004,12.0194925 0,0.318558 0.58879004,0.532694 0.72249004,0.532694"
       style="fill:#fbb03b;fill-opacity:1;fill-rule:nonzero;stroke:none;stroke-width:0.0352778" />
    <path
       id="path151"
       d="m 30.246988,20.188469 c -0.14746,-0.668514 -0.74013,-1.144412 -1.42452,-1.144412 h -8.80286 v 4.219929 h 9.80405 c 0.26846,0 0.52211,-0.121709 0.69003,-0.330906 0.16792,-0.208845 0.23213,-0.482953 0.17427,-0.744714 l -0.44097,-1.999897"
       style="fill:#5d8bc8;fill-opacity:1;fill-rule:nonzero;stroke:none;stroke-width:0.0352778" />
    <path
       id="path152"
       d="m 12.786958,28.011316 c -1.0982,0 -1.99214,-0.893939 -1.99214,-1.992136 0,-1.09855 0.89394,-1.992136 1.99214,-1.992136 0.0353,-0.0028 4.52332,-0.318206 6.01733,-0.318206 1.49401,0 5.98205,0.315384 6.02721,0.318559 h 7e-4 c 1.08797,0 1.98121,0.893586 1.98121,1.991783 0,1.098197 -0.89359,1.992136 -1.99179,1.992136 h -12.03466"
       style="fill:#535b65;fill-opacity:1;fill-rule:nonzero;stroke:none;stroke-width:0.0352778" />
    <path
       id="path153"
       d="m 24.821618,27.728389 c 0.94227,0 1.70886,-0.766939 1.70886,-1.709209 0,-0.942269 -0.76165,-1.708856 -1.69898,-1.708856 l -0.0208,-7.05e-4 c -0.0434,-0.0032 -4.52297,-0.317853 -6.0064,-0.317853 -1.49154,0 -5.95348,0.314325 -5.99405,0.317147 l -0.0116,0.0011 h -0.0116 c -0.94227,0 -1.70921,0.766939 -1.70921,1.709208 0,0.94227 0.76694,1.709209 1.70921,1.709209 h 12.03466"
       style="fill:#28292e;fill-opacity:1;fill-rule:nonzero;stroke:none;stroke-width:0.0352778" />
    <path
       id="path154"
       d="m 14.496168,26.01918 c 0,-0.944033 -0.76518,-1.709208 -1.70921,-1.709208 -0.94403,0 -1.70921,0.765175 -1.70921,1.709208 0,0.944034 0.76518,1.708856 1.70921,1.708856 0.94403,0 1.70921,-0.764822 1.70921,-1.708856"
       style="fill:#b9bcba;fill-opacity:1;fill-rule:nonzero;stroke:none;stroke-width:0.0352778" />
    <path
       id="path155"
       d="m 12.786958,27.000961 c -0.54151,0 -0.98178,-0.44062 -0.98178,-0.981781 0,-0.541514 0.44027,-0.98178 0.98178,-0.98178 0.54151,0 0.98178,0.440266 0.98178,0.98178 0,0.541161 -0.44027,0.981781 -0.98178,0.981781"
       style="fill:#28292e;fill-opacity:1;fill-rule:nonzero;stroke:none;stroke-width:0.0352778" />
    <path
       id="path156"
       d="m 21.994458,24.66663 c 0,-0.275167 -0.22296,-0.498122 -0.49812,-0.498122 -0.27517,0 -0.49812,0.222955 -0.49812,0.498122 0,0.274814 0.22295,0.49777 0.49812,0.49777 0.27516,0 0.49812,-0.222956 0.49812,-0.49777"
       style="fill:#b9bcba;fill-opacity:1;fill-rule:nonzero;stroke:none;stroke-width:0.0352778" />
    <path
       id="path157"
       d="m 21.983168,27.229561 c 0,-0.275167 -0.22295,-0.498122 -0.49777,-0.498122 -0.27516,0 -0.49812,0.222955 -0.49812,0.498122 0,0.274814 0.22296,0.497769 0.49812,0.497769 0.27482,0 0.49777,-0.222955 0.49777,-0.497769"
       style="fill:#b9bcba;fill-opacity:1;fill-rule:nonzero;stroke:none;stroke-width:0.0352778" />
    <path
       id="path158"
       d="m 16.610368,27.229561 c 0,-0.275167 -0.22296,-0.498122 -0.49813,-0.498122 -0.27516,0 -0.49812,0.222955 -0.49812,0.498122 0,0.274814 0.22296,0.497769 0.49812,0.497769 0.27517,0 0.49813,-0.222955 0.49813,-0.497769"
       style="fill:#b9bcba;fill-opacity:1;fill-rule:nonzero;stroke:none;stroke-width:0.0352778" />
    <path
       id="path159"
       d="m 15.614118,24.66663 c 0,-0.275167 0.22296,-0.498122 0.49812,-0.498122 0.27517,0 0.49813,0.222955 0.49813,0.498122 0,0.274814 -0.22296,0.49777 -0.49813,0.49777 -0.27516,0 -0.49812,-0.222956 -0.49812,-0.49777"
       style="fill:#b9bcba;fill-opacity:1;fill-rule:nonzero;stroke:none;stroke-width:0.0352778" />
    <path
       id="path160"
       d="m 23.112408,26.01918 c 0,-0.944033 0.76518,-1.709208 1.70921,-1.709208 0.94368,0 1.70886,0.765175 1.70886,1.709208 0,0.943681 -0.76518,1.708856 -1.70886,1.708856 -0.94403,0 -1.70921,-0.765175 -1.70921,-1.708856"
       style="fill:#b9bcba;fill-opacity:1;fill-rule:nonzero;stroke:none;stroke-width:0.0352778" />
    <path
       id="path161"
       d="m 24.821618,27.000961 c -0.54151,0 -0.98178,-0.44062 -0.98178,-0.981781 0,-0.541514 0.44027,-0.98178 0.98178,-0.98178 0.54116,0 0.98178,0.440266 0.98178,0.98178 0,0.541161 -0.44062,0.981781 -0.98178,0.981781"
       style="fill:#28292e;fill-opacity:1;fill-rule:nonzero;stroke:none;stroke-width:0.0352778" />
    <path
       id="path162"
       d="m 25.030818,26.731439 h -12.45306 v -1.42487 h 12.45306 v 1.42487"
       style="fill:#5d8bc8;fill-opacity:1;fill-rule:nonzero;stroke:none;stroke-width:0.0352778" />
    <path
       id="path163"
       d="m 20.019608,23.263986 h -5.14738 c -0.4886,0 -0.88477,-0.39617 -0.88477,-0.88512 v -1.059392 c 0,-1.042811 -0.16616,-3.814939 1.10455,-5.344231 0.1076,-0.129469 0.26741,-0.204611 0.43568,-0.204611 h 3.76343 c 0.2339,0 0.42933,0.1778 0.45191,0.410634 l 0.27658,2.862791 v 4.219929"
       style="fill:#0e4a73;fill-opacity:1;fill-rule:nonzero;stroke:none;stroke-width:0.0352778" />
    <path
       id="path164"
       d="m 14.917738,22.762335 c -0.24518,0 -0.44486,-0.199672 -0.44486,-0.445205 v -1.036461 c 0,-0.0956 -10e-4,-0.20567 -0.003,-0.327731 -0.0141,-1.101725 -0.043,-3.393017 0.98672,-4.632325 0.025,-0.03034 0.0635,-0.04833 0.10266,-0.04833 h 3.68194 c 0.0123,0 0.0226,0.0092 0.0236,0.02117 l 0.20884,2.16147 c 0.0356,0.370416 -0.16898,0.722136 -0.50871,0.87383 l -0.61912,0.276578 c -0.3496,0.156281 -0.61524,0.454731 -0.7299,0.820208 l -0.54222,1.730023 c -0.11324,0.360891 -0.44802,0.606777 -0.8262,0.606777 h -1.32962"
       style="fill:#ffffff;fill-opacity:1;fill-rule:nonzero;stroke:none;stroke-width:0.0352778" />
    <path
       id="path165"
       d="m 24.033868,19.552058 h -1.93287 c -0.0589,0 -0.10654,0.134055 -0.10654,0.298802 h 0.10654 0.10619 1.72014 0.10654 0.10654 c 0,-0.164747 -0.0476,-0.298802 -0.10654,-0.298802"
       style="fill:#0e4a73;fill-opacity:1;fill-rule:nonzero;stroke:none;stroke-width:0.0352778" />
    <path
       id="path166"
       d="m 24.033868,20.170477 h -1.93287 c -0.0589,0 -0.10654,0.133703 -0.10654,0.298803 h 0.10654 0.10619 1.72014 0.10654 0.10654 c 0,-0.1651 -0.0476,-0.298803 -0.10654,-0.298803"
       style="fill:#0e4a73;fill-opacity:1;fill-rule:nonzero;stroke:none;stroke-width:0.0352778" />
    <path
       id="path167"
       d="m 24.033868,20.788544 h -1.93287 c -0.0589,0 -0.10654,0.133702 -0.10654,0.298803 h 0.10654 0.10619 1.72014 0.10654 0.10654 c 0,-0.165101 -0.0476,-0.298803 -0.10654,-0.298803"
       style="fill:#0e4a73;fill-opacity:1;fill-rule:nonzero;stroke:none;stroke-width:0.0352778" />
    <path
       id="path168"
       d="m 26.489908,19.552058 h -1.93322 c -0.0586,0 -0.10654,0.134055 -0.10654,0.298802 h 0.10654 0.10653 1.72015 0.10654 0.10654 c 0,-0.164747 -0.0476,-0.298802 -0.10654,-0.298802"
       style="fill:#0e4a73;fill-opacity:1;fill-rule:nonzero;stroke:none;stroke-width:0.0352778" />
    <path
       id="path169"
       d="m 26.489908,20.170477 h -1.93322 c -0.0586,0 -0.10654,0.133703 -0.10654,0.298803 h 0.10654 0.10653 1.72015 0.10654 0.10654 c 0,-0.1651 -0.0476,-0.298803 -0.10654,-0.298803"
       style="fill:#0e4a73;fill-opacity:1;fill-rule:nonzero;stroke:none;stroke-width:0.0352778" />
    <path
       id="path170"
       d="m 26.489908,20.788544 h -1.93322 c -0.0586,0 -0.10654,0.133702 -0.10654,0.298803 h 0.10654 0.10653 1.72015 0.10654 0.10654 c 0,-0.165101 -0.0476,-0.298803 -0.10654,-0.298803"
       style="fill:#0e4a73;fill-opacity:1;fill-rule:nonzero;stroke:none;stroke-width:0.0352778" />
    <path
       id="path171"
       d="m 28.945948,19.552058 h -1.93323 c -0.0589,0 -0.10653,0.134055 -0.10653,0.298802 h 0.10653 0.10654 1.72015 0.10654 0.10654 c 0,-0.164747 -0.0476,-0.298802 -0.10654,-0.298802"
       style="fill:#0e4a73;fill-opacity:1;fill-rule:nonzero;stroke:none;stroke-width:0.0352778" />
    <path
       id="path172"
       d="m 28.945948,20.170477 h -1.93323 c -0.0589,0 -0.10653,0.133703 -0.10653,0.298803 h 0.10653 0.10654 1.72015 0.10654 0.10654 c 0,-0.1651 -0.0476,-0.298803 -0.10654,-0.298803"
       style="fill:#0e4a73;fill-opacity:1;fill-rule:nonzero;stroke:none;stroke-width:0.0352778" />
    <path
       id="path173"
       d="m 28.945948,20.788544 h -1.93323 c -0.0589,0 -0.10653,0.133702 -0.10653,0.298803 h 0.10653 0.10654 1.72015 0.10654 0.10654 c 0,-0.165101 -0.0476,-0.298803 -0.10654,-0.298803"
       style="fill:#0e4a73;fill-opacity:1;fill-rule:nonzero;stroke:none;stroke-width:0.0352778" />
    <path
       id="path174"
       d="m 21.493158,17.955738 h 6.09212 c 0.18345,0 0.33197,0.148519 0.33197,0.331964 v 0.756355 h -6.75605 v -0.756355 c 0,-0.183445 0.14887,-0.331964 0.33196,-0.331964"
       style="fill:#0e4a73;fill-opacity:1;fill-rule:nonzero;stroke:none;stroke-width:0.0352778" />
    <path
       id="path175"
       d="m 22.091118,18.64683 h -0.248 v -0.691092 h 0.248 v 0.691092"
       style="fill:#28292e;fill-opacity:1;fill-rule:nonzero;stroke:none;stroke-width:0.0352778" />
    <path
       id="path176"
       d="m 22.824548,18.64683 h -0.24801 v -0.691092 h 0.24801 v 0.691092"
       style="fill:#28292e;fill-opacity:1;fill-rule:nonzero;stroke:none;stroke-width:0.0352778" />
    <path
       id="path177"
       d="m 23.558318,18.64683 h -0.248 v -0.691092 h 0.248 v 0.691092"
       style="fill:#28292e;fill-opacity:1;fill-rule:nonzero;stroke:none;stroke-width:0.0352778" />
    <path
       id="path178"
       d="m 24.291748,18.64683 h -0.24765 v -0.691092 h 0.24765 v 0.691092"
       style="fill:#28292e;fill-opacity:1;fill-rule:nonzero;stroke:none;stroke-width:0.0352778" />
    <path
       id="path179"
       d="m 25.025528,18.64683 h -0.24801 v -0.691092 h 0.24801 v 0.691092"
       style="fill:#28292e;fill-opacity:1;fill-rule:nonzero;stroke:none;stroke-width:0.0352778" />
    <path
       id="path180"
       d="m 25.759308,18.64683 h -0.24836 v -0.691092 h 0.24836 v 0.691092"
       style="fill:#28292e;fill-opacity:1;fill-rule:nonzero;stroke:none;stroke-width:0.0352778" />
    <path
       id="path181"
       d="m 26.492728,18.64683 h -0.248 v -0.691092 h 0.248 v 0.691092"
       style="fill:#28292e;fill-opacity:1;fill-rule:nonzero;stroke:none;stroke-width:0.0352778" />
    <path
       id="path182"
       d="m 27.226158,18.64683 h -0.24801 v -0.691092 h 0.24801 v 0.691092"
       style="fill:#28292e;fill-opacity:1;fill-rule:nonzero;stroke:none;stroke-width:0.0352778" />
    <path
       id="path183"
       d="m 2.5334674,18.301107 -0.73377,-0.509058 c -0.26706,-0.185561 -0.63747,-0.04445 -0.71332,0.271992 l -0.18874004,1.456267 1.09044004,3.135489 0.54539,-4.35469"
       style="fill:#e58126;fill-opacity:1;fill-rule:nonzero;stroke:none;stroke-width:0.0352778" />
    <path
       id="path184"
       d="m 5.6760177,19.981035 c 0,0 0.86289,0.0321 1.004,-0.0095 0.254,-0.07514 0.79693,-1.295753 1.00013,-1.412522 0.2032,-0.117122 0.27411,-0.121356 0.27411,-0.121356 l -0.80786,2.057401 -0.70662,-0.09878 -0.76376,-0.41522"
       style="fill:#28292e;fill-opacity:1;fill-rule:nonzero;stroke:none;stroke-width:0.0352778" />
    <path
       id="path185"
       d="m 6.5738377,21.548074 -4.7117003,-2.560814 0.5722,-1.053394 c 0,0 1.5868,1.279172 2.18123,1.602317 0.5944303,0.323144 2.5308303,0.95885 2.5308303,0.95885 l -0.57256,1.053041"
       style="fill:#535b65;fill-opacity:1;fill-rule:nonzero;stroke:none;stroke-width:0.0352778" />
    <path
       id="path186"
       d="m 4.2179874,20.267491 -2.2098,-1.200856 c 0,0 -0.42863,2.132895 -0.51506,2.5908 -0.091,0.481189 0.3048,0.894998 0.49495,0.998362 0.19015,0.103363 0.71931,0.39123 0.71931,0.39123 0,0 0.52917,0.287514 0.71932,0.390878 0.1905,0.103364 0.75282,0.210256 1.10701,-0.127706 0.33726,-0.321733 1.8940703,-1.8415 1.8940703,-1.8415 L 4.2179874,20.267491"
       style="fill:#28292e;fill-opacity:1;fill-rule:nonzero;stroke:none;stroke-width:0.0352778" />
  </g>
</svg>
