<?xml version="1.0" encoding="UTF-8" standalone="no"?>
<!-- Created with Inkscape (http://www.inkscape.org/) -->

<svg
   width="35mm"
   height="26mm"
   viewBox="0 0 35 26"
   version="1.1"
   id="svg1"
   inkscape:version="1.4 (86a8ad7, 2024-10-11)"
   sodipodi:docname="camion.svg"
   xmlns:inkscape="http://www.inkscape.org/namespaces/inkscape"
   xmlns:sodipodi="http://sodipodi.sourceforge.net/DTD/sodipodi-0.dtd"
   xmlns="http://www.w3.org/2000/svg"
   xmlns:svg="http://www.w3.org/2000/svg">
  <sodipodi:namedview
     id="namedview1"
     pagecolor="#ffffff"
     bordercolor="#000000"
     borderopacity="0.25"
     inkscape:showpageshadow="2"
     inkscape:pageopacity="0.0"
     inkscape:pagecheckerboard="0"
     inkscape:deskcolor="#d1d1d1"
     inkscape:document-units="mm"
     inkscape:zoom="5.9366442"
     inkscape:cx="66.283238"
     inkscape:cy="59.208534"
     inkscape:window-width="1920"
     inkscape:window-height="1051"
     inkscape:window-x="-9"
     inkscape:window-y="-9"
     inkscape:window-maximized="1"
     inkscape:current-layer="layer1" />
  <defs
     id="defs1" />
  <g
     inkscape:label="Capa 1"
     inkscape:groupmode="layer"
     id="layer1">
    <path
       id="path3"
       d="M 3.7947155,18.638978 H 23.652936 v -6.41597 H 3.7947155 v 6.41597"
       style="fill:#535b65;fill-opacity:1;fill-rule:nonzero;stroke:none;stroke-width:0.0352778" />
    <path
       id="path4"
       d="m 14.148746,20.075842 h 4.1275 c 0.2981,0 0.53975,-0.242006 0.53975,-0.540103 v -3.437467 c 0,-0.29845 -0.24165,-0.540103 -0.53975,-0.540103 h -4.1275 c -0.29845,0 -0.5401,0.241653 -0.5401,0.540103 v 3.437467 c 0,0.298097 0.24165,0.540103 0.5401,0.540103"
       style="fill:#b9bcba;fill-opacity:1;fill-rule:nonzero;stroke:none;stroke-width:0.0352778" />
    <path
       id="path5"
       d="m 4.0624755,18.421666 c 0,2.542117 2.06093,4.603045 4.60304,4.603045 2.5421205,0 4.6027005,-2.060928 4.6027005,-4.603045 0,-2.542116 -2.06058,-4.602691 -4.6027005,-4.602691 -2.54211,0 -4.60304,2.060575 -4.60304,4.602691"
       style="fill:#34373d;fill-opacity:1;fill-rule:nonzero;stroke:none;stroke-width:0.0352778" />
    <path
       id="path6"
       d="m 6.3929255,18.421666 c 0,1.255184 1.01741,2.272595 2.27259,2.272595 1.25519,0 2.2726005,-1.017411 2.2726005,-2.272595 0,-1.255183 -1.0174105,-2.272594 -2.2726005,-2.272594 -1.25518,0 -2.27259,1.017411 -2.27259,2.272594"
       style="fill:#fbb03b;fill-opacity:1;fill-rule:nonzero;stroke:none;stroke-width:0.0352778" />
    <path
       id="path7"
       d="m 19.049886,18.421666 c 0,2.542117 2.06093,4.603045 4.60305,4.603045 2.54211,0 4.60269,-2.060928 4.60269,-4.603045 0,-2.542116 -2.06058,-4.602691 -4.60269,-4.602691 -2.54212,0 -4.60305,2.060575 -4.60305,4.602691"
       style="fill:#34373d;fill-opacity:1;fill-rule:nonzero;stroke:none;stroke-width:0.0352778" />
    <path
       id="path8"
       d="m 21.380336,18.421666 c 0,1.255184 1.01741,2.272595 2.2726,2.272595 1.25518,0 2.27259,-1.017411 2.27259,-2.272595 0,-1.255183 -1.01741,-2.272594 -2.27259,-2.272594 -1.25519,0 -2.2726,1.017411 -2.2726,2.272594"
       style="fill:#fbb03b;fill-opacity:1;fill-rule:nonzero;stroke:none;stroke-width:0.0352778" />
    <path
       id="path9"
       d="m 13.801966,15.338389 h 0.26 l -1.86514,-3.115381 H 3.7978955 v 3.115381 c 0,0 -0.0533,0 0.26458,0 l 1.90465,-2.402417 h 5.4500605 l 2.38478,2.402417"
       style="fill:#fbb03b;fill-opacity:1;fill-rule:nonzero;stroke:none;stroke-width:0.0352778" />
    <path
       id="path10"
       d="M 14.452836,15.129897 9.8536755,7.2100353 h -5.7912 v -0.782108 h 7.5734305 l 0.83926,0.839258 h 18.93888 l 2.0006,3.7002867 -18.96181,4.162425"
       style="fill:#fbb03b;fill-opacity:1;fill-rule:nonzero;stroke:none;stroke-width:0.0352778" />
    <path
       id="path11"
       d="m 32.789176,10.681016 -1.62208,-2.9996697 h -20.56094 l 4.05306,6.9793557 18.12996,-3.979686"
       style="fill:#e58126;fill-opacity:1;fill-rule:nonzero;stroke:none;stroke-width:0.0352778" />
    <path
       id="path12"
       d="m 3.1554855,12.223008 h 0.63923 v 6.41597 h -0.63923 v -6.41597"
       style="fill:#e58126;fill-opacity:1;fill-rule:nonzero;stroke:none;stroke-width:0.0352778" />
    <path
       id="path13"
       d="M 10.510196,12.223008 V 9.7094663 L 9.8974155,8.4479333 h -4.10845 l 1.04917,3.7750747 h 3.6720605"
       style="fill:#e58126;fill-opacity:1;fill-rule:nonzero;stroke:none;stroke-width:0.0352778" />
    <path
       id="path14"
       d="m 7.1990255,11.058488 h 2.10044 V 8.7590833 h -1.56387 l -0.53657,2.2994047"
       style="fill:#ffffff;fill-opacity:1;fill-rule:nonzero;stroke:none;stroke-width:0.0352778" />
    <path
       id="path15"
       d="m 7.3408355,8.7590833 -0.54045,2.2994047 -0.64382,-2.2994047 z"
       style="fill:#ffffff;fill-opacity:1;fill-rule:nonzero;stroke:none;stroke-width:0.0352778" />
    <path
       id="path16"
       d="m 17.562576,20.075842 h 0.36795 v -4.517673 h -0.36795 v 4.517673"
       style="fill:#535b65;fill-opacity:1;fill-rule:nonzero;stroke:none;stroke-width:0.0352778" />
    <path
       id="path17"
       d="m 14.862066,20.075842 h -0.36795 v -4.517673 h 0.36795 v 4.517673"
       style="fill:#535b65;fill-opacity:1;fill-rule:nonzero;stroke:none;stroke-width:0.0352778" />
    <path
       id="path18"
       d="m 15.974726,16.585458 c 0,0.131233 0.10654,0.23742 0.23777,0.23742 0.13123,0 0.23742,-0.106187 0.23742,-0.23742 0,-0.131233 -0.10619,-0.237772 -0.23742,-0.237772 -0.13123,0 -0.23777,0.106539 -0.23777,0.237772"
       style="fill:#535b65;fill-opacity:1;fill-rule:nonzero;stroke:none;stroke-width:0.0352778" />
    <path
       id="path19"
       d="m 15.103716,7.6813463 3.54436,6.1034087 -2.03976,0.448028 -3.80436,-6.5514367 h 2.29976"
       style="fill:#fbb03b;fill-opacity:1;fill-rule:nonzero;stroke:none;stroke-width:0.0352778" />
    <path
       id="path20"
       d="m 19.903606,7.6813463 3.00214,5.1692527 -2.03976,0.447676 -3.26213,-5.6169287 h 2.29975"
       style="fill:#fbb03b;fill-opacity:1;fill-rule:nonzero;stroke:none;stroke-width:0.0352778" />
    <path
       id="path21"
       d="m 24.703856,7.6813463 2.45922,4.2343917 -2.03977,0.448028 -2.71921,-4.6824197 h 2.29976"
       style="fill:#fbb03b;fill-opacity:1;fill-rule:nonzero;stroke:none;stroke-width:0.0352778" />
    <path
       id="path22"
       d="m 29.504106,7.6813463 1.91629,3.2998837 -2.03976,0.447675 -2.17629,-3.7475587 h 2.29976"
       style="fill:#fbb03b;fill-opacity:1;fill-rule:nonzero;stroke:none;stroke-width:0.0352778" />
    <path
       id="path23"
       d="m 12.511856,7.2671853 0.72425,-0.373944 0.40288,-0.656167 h 1.16628 l 1.04704,-0.738011 1.08621,-0.57397 1.00612,1.171223 2.7372,-1.171223 0.9652,-0.843491 2.05211,0.421569 0.76518,0.995892 1.89124,0.176036 0.64382,0.234244 1.04669,0.983898 1.0862,0.373944 h -16.62042"
       style="fill:#1b2326;fill-opacity:1;fill-rule:nonzero;stroke:none;stroke-width:0.0352778" />
  </g>
</svg>
